<?xml version="1.0" standalone="no"?>
<!DOCTYPE svg PUBLIC "-//W3C//DTD SVG 20010904//EN"
 "http://www.w3.org/TR/2001/REC-SVG-20010904/DTD/svg10.dtd">
<svg version="1.0" xmlns="http://www.w3.org/2000/svg"
 width="557.000000pt" height="1024.000000pt" viewBox="0 0 557.000000 1024.000000"
 preserveAspectRatio="xMidYMid meet">
<metadata>
Created by potrace 1.16, written by Peter Selinger 2001-2019
</metadata>
<g transform="translate(0.000000,1024.000000) scale(0.100000,-0.100000)"
fill="#000000" stroke="none">
<path d="M1 5713 c0 -4182 2 -4525 17 -4486 20 52 51 67 116 58 25 -4 49 -11
52 -16 9 -14 44 -10 61 7 9 9 12 19 7 22 -12 9 -15 62 -4 62 5 0 7 6 4 13 -6
17 28 57 49 57 22 0 87 -32 87 -42 0 -4 6 -8 14 -8 8 0 16 -6 19 -12 4 -10 7
-10 18 -1 19 18 34 16 19 -3 -11 -12 -11 -18 2 -30 13 -13 20 -14 38 -4 15 8
20 8 16 1 -4 -6 -9 -20 -11 -32 -3 -17 0 -20 15 -16 11 3 23 1 26 -4 3 -5 -3
-9 -13 -10 -14 0 -15 -2 -3 -6 21 -8 50 -43 50 -60 0 -7 7 -13 15 -13 9 0 12
-6 9 -15 -6 -14 6 -20 29 -16 5 1 6 -7 2 -17 -4 -14 2 -24 20 -36 14 -9 23
-21 20 -26 -4 -6 1 -10 10 -10 9 0 14 -4 11 -8 -3 -5 5 -18 17 -30 32 -30 47
-50 47 -62 0 -6 5 -8 11 -4 8 5 10 -1 7 -19 -3 -15 -1 -24 3 -21 5 3 9 -2 9
-10 0 -9 0 -19 0 -23 0 -3 -11 -7 -24 -8 -18 0 -22 3 -15 11 7 8 6 14 -1 19
-5 3 -10 2 -10 -3 0 -5 -9 -12 -20 -15 -14 -3 -20 -14 -20 -31 l0 -26 -47 33
c-27 19 -53 44 -59 56 -6 12 -13 21 -15 20 -7 -5 -49 35 -49 48 0 7 -13 11
-30 11 -18 -1 -29 -6 -27 -12 2 -6 14 -10 26 -9 21 3 30 -12 10 -19 -6 -2 -7
-12 -1 -27 6 -17 11 -21 17 -12 5 9 12 5 26 -15 10 -15 16 -31 13 -36 -3 -4 0
-8 5 -8 6 0 11 8 11 17 0 15 2 14 14 -3 13 -17 12 -22 -6 -41 -22 -23 -17 -46
4 -25 20 20 28 13 28 -24 0 -29 3 -35 16 -30 11 4 14 1 10 -12 -3 -9 -8 -29
-12 -45 -3 -15 -10 -27 -14 -27 -5 0 -16 -3 -24 -6 -12 -5 -15 -2 -10 10 4 11
1 16 -11 16 -12 0 -15 -5 -9 -22 7 -23 6 -23 -14 -5 -11 11 -26 16 -31 12 -6
-3 -11 -1 -11 5 0 6 -4 9 -9 5 -5 -3 -16 3 -23 14 -8 11 -26 23 -41 26 -17 5
-27 14 -27 25 0 10 -9 22 -20 25 -11 3 -20 11 -20 16 0 6 -5 7 -10 4 -6 -3
-10 1 -10 9 0 9 -4 16 -9 16 -5 0 -16 3 -25 6 -31 12 -28 -24 3 -54 17 -16 31
-34 31 -41 0 -6 7 -11 15 -11 9 0 27 -12 40 -27 26 -30 33 -49 13 -37 -7 4 -9
3 -5 -2 4 -4 24 -7 43 -5 22 1 34 -2 34 -10 0 -7 7 -20 16 -30 15 -17 14 -20
-11 -43 -15 -14 -42 -28 -61 -32 -24 -4 -35 -13 -42 -33 l-9 -26 -7 31 c-6 25
-15 34 -46 44 -22 7 -40 17 -40 22 0 4 -6 8 -13 8 -7 0 -18 9 -25 20 -7 12
-18 18 -24 14 -7 -5 -9 -2 -6 7 3 8 -1 20 -9 28 -13 12 -14 11 -8 -8 4 -12 2
-21 -4 -21 -6 0 -11 9 -11 20 0 23 -38 28 -59 7 -10 -10 -15 -8 -27 8 -13 18
-13 21 2 32 15 11 14 12 -4 10 -11 0 -18 -5 -16 -9 3 -4 1 -8 -5 -8 -5 0 -13
5 -16 10 -10 16 -24 2 -18 -19 3 -11 14 -21 26 -23 11 -2 21 -11 23 -21 3 -25
16 -35 21 -19 3 6 9 10 13 7 5 -3 6 -13 3 -22 -4 -10 -2 -14 4 -10 6 4 13 0
17 -8 3 -8 1 -15 -4 -15 -6 0 -10 -4 -10 -10 0 -15 17 -12 35 7 10 9 27 18 39
19 21 2 73 -32 63 -42 -3 -3 -11 1 -18 9 -14 15 -53 11 -43 -4 3 -6 9 -23 14
-39 7 -24 6 -28 -8 -24 -10 3 -2 -3 17 -14 28 -16 31 -20 16 -26 -12 -4 -15
-13 -11 -29 4 -19 1 -23 -21 -25 -29 -2 -46 -20 -38 -39 2 -7 0 -13 -5 -13 -6
0 -10 5 -10 11 0 5 -4 8 -9 4 -6 -3 -13 0 -18 7 -18 29 -75 60 -99 54 -27 -7
-31 1 -9 18 13 9 11 11 -10 12 l-25 2 0 -224 0 -224 1213 0 1212 0 13 21 c7
12 11 23 8 26 -7 7 17 32 27 26 4 -2 7 -9 7 -14 0 -6 -4 -7 -10 -4 -5 3 -10 1
-10 -4 0 -6 5 -11 10 -11 6 0 10 -9 10 -20 0 -21 33 -29 45 -10 10 17 20 131
20 240 0 58 4 108 10 112 5 4 6 10 2 14 -11 12 -30 -13 -34 -43 -2 -16 -5 -39
-6 -53 -4 -28 -37 -41 -37 -14 0 30 21 148 36 200 8 28 14 65 14 82 0 17 7 49
16 71 17 43 16 92 -3 98 -8 3 -17 -13 -24 -41 -6 -25 -17 -50 -25 -56 -7 -6
-10 -18 -7 -25 9 -24 -20 -75 -42 -75 -11 0 -15 4 -10 8 6 4 11 21 12 37 4 57
10 100 18 128 9 32 -1 80 -15 72 -6 -3 -10 -14 -10 -23 0 -9 -7 -30 -15 -45
-8 -15 -10 -25 -5 -22 14 8 12 2 -5 -31 -8 -16 -15 -37 -15 -47 0 -10 -6 -20
-13 -23 -8 -3 -11 -17 -9 -39 3 -27 1 -35 -12 -35 -9 0 -16 6 -16 14 0 15 24
118 41 176 18 61 16 95 -4 95 -13 0 -24 -15 -37 -55 -11 -30 -19 -65 -20 -77
0 -13 -3 -23 -7 -23 -8 0 -9 -7 -16 -90 -4 -42 -21 -90 -33 -90 -7 0 4 108 13
123 4 6 8 37 10 67 1 30 9 84 17 119 8 36 13 68 10 73 -6 10 -35 11 -32 1 3
-14 -14 -98 -22 -108 -5 -5 -15 -35 -25 -67 -9 -31 -23 -59 -31 -62 -12 -5
-14 -1 -9 15 23 71 47 180 49 213 2 54 -20 58 -34 5 -6 -23 -16 -53 -22 -68
-21 -49 -36 -115 -30 -130 5 -13 3 -14 -10 -3 -13 10 -14 20 -6 50 5 20 11 52
14 71 2 19 8 39 14 45 11 11 13 95 2 112 -9 14 -47 34 -65 34 -9 0 -18 -21
-27 -57 -15 -71 -34 -111 -44 -94 -4 7 -3 18 3 25 6 7 9 15 6 18 -3 3 2 24 10
48 28 80 16 122 -26 84 -13 -11 -17 -12 -16 -2 2 47 -4 60 -22 55 -13 -3 -23
3 -32 20 -7 13 -28 31 -46 38 -18 8 -33 19 -33 24 0 6 -7 11 -15 11 -8 0 -15
5 -15 10 0 19 -31 10 -40 -12 -9 -20 -10 -19 -7 10 3 24 -1 35 -12 39 -26 10
-51 35 -44 46 3 6 1 7 -6 3 -7 -5 -23 5 -40 23 -16 17 -36 31 -44 31 -9 0 -25
14 -37 30 -12 17 -30 30 -41 30 -11 0 -18 4 -14 9 3 5 -8 19 -25 31 -16 12
-30 29 -31 38 0 12 -3 11 -9 -6 -12 -28 -24 -29 -17 -1 4 15 -1 22 -19 29 -13
5 -24 14 -24 19 0 6 -11 22 -25 37 -14 15 -25 38 -25 51 0 16 -7 27 -20 30
-11 3 -20 12 -20 19 0 8 -5 14 -10 14 -6 0 -21 22 -33 50 -12 27 -27 50 -33
50 -7 0 -22 -26 -34 -58 -13 -31 -27 -61 -32 -66 -4 -6 -8 -17 -8 -25 0 -9 -7
-29 -15 -45 -9 -16 -17 -38 -19 -48 -1 -11 -10 -28 -19 -39 -9 -10 -16 -25
-14 -32 1 -6 -4 -11 -11 -9 -8 1 -11 -2 -8 -7 10 -15 -12 -61 -29 -61 -11 0
-15 -6 -10 -19 4 -13 -6 -31 -33 -60 -21 -22 -43 -41 -49 -41 -15 0 -36 -27
-24 -32 7 -2 7 -8 1 -18 -8 -13 -10 -12 -10 3 0 24 -19 21 -29 -5 -11 -30 -11
-44 0 -40 5 1 9 -2 9 -8 0 -5 -4 -10 -10 -10 -5 0 -10 -7 -10 -15 0 -8 5 -15
10 -15 6 0 10 -4 10 -10 0 -6 -9 -6 -22 -1 -13 5 -27 9 -31 9 -5 0 -12 3 -15
7 -4 4 -2 6 3 5 27 -6 27 2 1 15 -16 9 -32 12 -35 7 -9 -13 -39 -11 -45 4 -7
17 -46 5 -46 -14 0 -13 -3 -12 -15 4 -11 15 -11 21 -2 29 7 6 12 20 13 33 1
21 -7 26 -33 23 -7 -1 -9 7 -5 21 5 21 4 22 -13 8 -16 -13 -18 -13 -13 0 2 8
-2 21 -10 29 -12 13 -15 12 -24 -3 -9 -15 -11 -14 -29 8 -11 14 -17 31 -13 38
5 8 2 9 -9 5 -10 -3 -17 -2 -17 3 0 9 21 14 45 11 6 -1 1 6 -10 15 -11 8 -19
20 -17 25 1 5 -3 9 -9 9 -6 0 -9 -7 -5 -15 3 -8 1 -15 -4 -15 -6 0 -10 7 -10
16 0 10 -6 14 -14 11 -10 -4 -13 -1 -9 9 3 7 0 14 -6 14 -6 0 -11 12 -11 26 0
16 -5 24 -12 21 -7 -2 -12 -11 -10 -18 2 -8 0 -11 -4 -7 -4 4 -13 3 -21 -3 -9
-8 -13 -8 -13 -1 0 6 5 14 11 17 6 5 4 12 -8 22 -10 8 -13 12 -6 9 6 -4 15 -1
19 5 4 7 3 9 -4 5 -6 -3 -13 -2 -17 3 -3 6 -12 8 -19 5 -35 -13 -30 100 5 132
19 17 22 17 69 0 64 -23 104 -19 108 12 2 13 -2 29 -8 37 -6 7 -8 25 -4 41 6
23 4 26 -10 21 -20 -8 -20 -3 0 28 9 13 13 28 10 34 -4 5 3 12 14 16 23 7 27
25 6 25 -15 0 -26 49 -26 120 0 46 35 116 102 201 15 20 28 41 28 46 0 23 167
155 220 175 9 3 29 51 49 114 18 60 37 114 41 119 14 18 60 164 60 190 0 13 4
26 9 30 5 3 13 20 16 38 15 69 125 257 201 342 14 17 44 56 65 87 22 31 45 61
52 65 7 4 25 28 41 53 16 25 50 72 76 105 25 33 49 67 52 75 9 24 140 170 151
170 6 0 27 17 46 38 56 59 162 132 192 132 6 0 17 7 25 15 22 22 36 19 29 -6
-5 -15 -4 -19 4 -15 6 4 11 15 11 26 0 10 6 20 14 23 10 4 12 0 9 -14 -3 -10
0 -19 6 -19 6 0 11 5 11 11 0 5 5 7 10 4 7 -4 7 -12 0 -24 -7 -14 -6 -19 3
-18 39 1 51 -3 39 -15 -7 -7 -12 -17 -12 -22 0 -6 5 -5 11 1 13 13 42 6 33 -8
-3 -5 2 -9 10 -9 9 0 16 -3 16 -6 0 -10 -23 -49 -34 -57 -8 -5 -6 -10 4 -17
20 -13 39 -12 20 1 -11 8 -12 12 -3 16 28 11 30 8 32 -48 1 -25 4 -29 14 -20
11 8 13 5 9 -19 l-4 -30 -18 22 c-16 20 -19 21 -34 6 -15 -15 -14 -18 13 -37
15 -11 31 -18 35 -14 3 3 15 -2 26 -12 11 -10 20 -13 20 -7 0 7 7 12 15 12 19
0 19 -14 0 -30 -22 -18 -12 -23 18 -9 21 10 29 8 48 -9 19 -19 20 -24 10 -50
-11 -26 -18 -59 -23 -99 -1 -7 -10 -13 -21 -13 -19 0 -20 -1 -2 -20 10 -11 13
-20 7 -20 -6 0 -13 -13 -17 -30 -4 -16 -25 -51 -48 -76 -23 -26 -46 -54 -51
-63 -13 -23 -153 -231 -213 -315 -15 -22 -36 -53 -47 -70 -10 -17 -35 -51 -55
-76 -20 -25 -42 -56 -48 -70 -49 -109 -85 -180 -92 -180 -4 0 -22 -22 -39 -50
-17 -27 -36 -50 -42 -50 -5 0 -10 -7 -10 -15 0 -8 -18 -32 -40 -52 -22 -21
-40 -42 -40 -46 0 -5 -24 -37 -53 -71 -69 -84 -124 -155 -149 -194 -19 -31
-19 -32 -1 -39 10 -4 24 -13 31 -20 7 -7 20 -13 28 -13 8 0 13 -6 12 -12 -2
-7 5 -12 15 -12 9 1 17 -2 17 -7 0 -5 -5 -9 -11 -9 -8 0 -7 -5 1 -15 7 -9 19
-14 26 -11 7 3 16 1 19 -5 10 -15 43 34 61 90 9 27 23 52 30 55 22 9 16 -11
-42 -141 -20 -45 -17 -52 11 -18 34 41 38 29 10 -30 -12 -28 -21 -52 -20 -54
9 -9 30 18 56 75 16 35 34 66 39 69 6 3 10 14 10 23 0 21 39 86 47 79 3 -3 -2
-19 -10 -36 -9 -17 -19 -45 -22 -63 -7 -31 -42 -89 -58 -96 -4 -2 -5 -8 -2
-12 3 -5 -4 -25 -15 -44 -11 -20 -17 -36 -14 -36 10 0 74 67 74 78 0 7 14 42
32 79 18 38 33 75 35 83 4 25 64 143 69 137 8 -8 -6 -47 -17 -47 -5 0 -9 -8
-9 -17 0 -22 -39 -122 -91 -231 -43 -90 -44 -95 -32 -99 10 -4 73 116 73 138
0 22 52 78 58 61 2 -7 -19 -58 -48 -114 -52 -104 -66 -168 -20 -93 55 90 70
118 70 130 0 7 7 18 16 26 27 22 6 -56 -37 -141 -21 -41 -36 -76 -34 -79 17
-17 78 95 170 317 10 23 22 42 26 42 18 0 19 -22 1 -57 -45 -89 -52 -105 -52
-119 0 -8 -25 -64 -55 -124 -56 -114 -55 -146 3 -62 17 27 32 52 32 56 0 4 12
23 26 42 15 19 24 34 20 34 -5 0 40 129 49 138 2 2 8 1 14 -3 8 -4 7 -13 -1
-28 -7 -12 -13 -27 -14 -33 -5 -28 -17 -60 -29 -74 -7 -8 -18 -32 -24 -52 -7
-20 -18 -41 -25 -47 -17 -14 -50 -100 -42 -108 11 -12 39 23 69 87 16 36 52
110 78 165 27 56 49 107 49 113 0 7 7 27 16 44 25 48 35 15 14 -46 -18 -54
-54 -139 -71 -169 -32 -57 -81 -164 -99 -214 l-10 -28 24 27 c14 16 29 36 35
45 19 34 25 1 9 -45 -26 -71 -14 -67 49 17 23 31 25 1 3 -44 -22 -45 -22 -64
-1 -50 6 3 18 21 26 38 21 45 59 111 66 117 4 3 17 28 29 55 68 152 83 182 96
205 8 14 22 42 30 63 9 20 20 37 26 37 5 0 6 4 3 10 -7 11 10 83 27 118 20 39
39 28 34 -20 -3 -24 -10 -44 -16 -46 -5 -2 -10 -12 -10 -23 0 -10 -5 -19 -10
-19 -6 0 -9 -3 -8 -7 5 -15 -60 -173 -80 -196 -9 -10 -17 -24 -18 -32 -1 -8
-11 -27 -22 -42 -10 -15 -25 -45 -31 -65 -7 -21 -17 -38 -22 -38 -5 0 -9 -7
-9 -15 0 -9 -7 -18 -15 -21 -8 -4 -15 -18 -15 -33 0 -15 -6 -35 -13 -46 -18
-26 -38 -85 -29 -85 11 0 26 25 96 155 21 39 44 76 51 83 20 22 10 -32 -14
-74 -12 -19 -21 -40 -21 -45 0 -6 -14 -39 -31 -75 -36 -75 -33 -95 6 -35 14
23 34 50 45 61 12 12 17 26 13 36 -3 9 -2 19 4 23 5 3 30 49 56 103 26 53 54
102 62 108 8 7 15 19 15 28 0 8 6 23 14 31 8 9 24 41 37 71 13 30 36 76 51
101 15 25 29 61 31 79 2 30 27 58 27 31 0 -6 10 -11 22 -11 20 0 20 -2 -11
-34 -19 -19 -34 -43 -35 -53 -3 -25 -27 -73 -38 -73 -4 0 -8 -7 -8 -16 0 -21
-51 -116 -67 -127 -7 -4 -13 -13 -13 -19 0 -18 -121 -256 -136 -269 -8 -6 -14
-18 -14 -26 0 -8 -7 -30 -16 -48 -9 -19 -14 -42 -12 -52 3 -14 9 -10 27 20 13
20 28 37 33 37 14 0 1 -82 -15 -92 -6 -4 -8 -10 -4 -14 13 -13 44 26 71 89 33
76 51 110 86 163 15 22 30 53 34 68 4 15 15 37 26 48 17 19 20 19 26 5 3 -9
-3 -29 -13 -44 -11 -15 -30 -50 -42 -78 -12 -27 -27 -57 -32 -65 -5 -8 -12
-23 -15 -32 -4 -10 -10 -18 -15 -18 -5 0 -6 -7 -3 -15 4 -8 1 -15 -5 -15 -6 0
-11 -8 -11 -18 0 -10 -3 -22 -7 -26 -12 -12 -42 -96 -34 -96 18 0 47 48 106
170 9 19 22 46 30 60 8 14 20 41 29 60 8 19 26 52 40 73 14 21 26 43 27 50 0
7 9 26 20 42 10 17 23 39 28 50 11 26 39 50 48 42 9 -9 -56 -135 -73 -141 -8
-3 -14 -16 -14 -29 0 -31 -37 -107 -56 -114 -8 -3 -13 -12 -10 -19 3 -7 1 -16
-3 -19 -5 -2 -12 -17 -15 -31 -4 -15 -18 -41 -32 -59 -13 -17 -24 -39 -24 -47
0 -9 -9 -35 -20 -59 -11 -24 -20 -50 -20 -56 0 -37 25 4 104 162 76 154 106
199 121 183 2 -2 -9 -30 -25 -63 -89 -187 -105 -221 -106 -235 -1 -8 -7 -28
-13 -43 -13 -34 -14 -47 -2 -47 5 0 12 12 16 27 3 16 15 37 24 48 10 11 27 43
37 70 21 58 74 149 82 141 7 -7 -13 -73 -48 -156 -26 -62 -46 -115 -57 -153
-3 -9 -1 -17 4 -17 5 0 23 29 41 65 17 36 37 65 43 65 6 0 8 7 5 16 -5 13 52
147 116 269 11 22 39 76 62 120 23 44 47 89 53 100 7 11 24 46 37 78 18 40 31
57 44 57 25 0 47 26 62 75 6 22 27 72 45 110 58 124 85 185 85 196 0 6 8 23
18 37 10 15 35 64 56 110 21 45 63 128 92 183 30 56 54 104 54 107 0 9 67 133
105 195 63 103 209 270 259 297 14 7 28 25 31 40 3 15 26 51 51 81 59 68 118
156 170 254 14 28 36 64 48 80 12 17 44 68 72 115 27 46 54 94 61 105 42 72
132 268 143 310 17 69 21 105 11 105 -4 0 -6 11 -4 24 3 16 -4 37 -18 58 -13
18 -24 46 -24 62 1 24 6 30 28 33 37 5 107 -15 114 -33 3 -7 11 -14 18 -14 20
0 77 -70 71 -86 -3 -8 1 -17 9 -21 13 -5 13 -7 -2 -18 -17 -13 -17 -16 5 -59
12 -26 22 -53 22 -60 0 -8 9 -31 19 -53 11 -21 24 -52 31 -69 6 -18 20 -41 29
-51 10 -11 24 -29 30 -41 7 -12 29 -33 50 -46 20 -13 65 -48 99 -77 34 -30 78
-63 99 -73 71 -36 158 -90 233 -144 41 -30 93 -63 115 -75 52 -26 162 -56 247
-66 42 -5 78 -17 97 -30 l31 -22 0 3390 0 3391 -2785 0 -2785 0 1 -4527z
m3229 1268 c0 -4 26 -8 58 -8 31 1 57 -2 57 -7 0 -13 34 -28 47 -20 6 4 8 3 5
-3 -7 -11 12 -21 82 -47 24 -9 57 -27 75 -40 17 -13 39 -26 49 -29 9 -4 17
-17 17 -29 1 -21 2 -22 14 -5 14 18 32 24 21 7 -11 -19 6 -68 25 -73 10 -3 21
0 23 7 3 6 23 22 46 35 39 21 42 22 39 5 -2 -11 3 -20 12 -20 8 -1 22 -2 30
-3 34 -3 44 -20 45 -74 0 -31 -3 -53 -7 -50 -5 2 -8 0 -8 -6 0 -5 -3 -17 -7
-27 -5 -13 -3 -15 8 -9 12 8 12 6 0 -9 -8 -9 -19 -15 -25 -13 -15 6 -14 -59 2
-74 6 -7 12 -17 12 -22 0 -6 -5 -6 -12 0 -18 13 -61 14 -69 1 -4 -6 2 -20 12
-31 20 -22 26 -53 9 -42 -6 4 -8 10 -6 13 2 4 -7 12 -20 19 -19 9 -24 8 -24
-3 0 -7 9 -18 20 -24 26 -14 25 -26 -5 -56 -14 -14 -25 -27 -25 -29 0 -8 35 8
42 19 4 6 10 7 14 3 4 -3 1 -13 -6 -22 -11 -13 -10 -14 4 -9 20 8 21 0 0 -21
-10 -10 -13 -22 -8 -33 4 -9 8 -23 10 -31 1 -8 5 -25 9 -38 4 -16 1 -23 -10
-23 -8 0 -15 5 -15 10 0 6 -8 10 -18 10 -11 0 -27 9 -37 20 -18 20 -85 29 -85
12 0 -8 -131 -31 -205 -36 -41 -4 -75 -15 -75 -27 0 -5 -7 -9 -15 -9 -22 0
-95 -39 -95 -50 0 -6 -11 -20 -24 -31 -20 -18 -24 -28 -21 -71 3 -54 11 -70
24 -49 6 8 11 9 15 3 7 -12 45 -10 65 2 7 4 15 5 18 2 4 -3 16 2 27 12 12 11
50 25 86 32 36 8 79 19 95 26 25 10 65 12 85 4 3 -1 15 -1 28 0 13 1 30 -4 38
-11 8 -6 18 -9 21 -5 4 4 1 11 -7 16 -8 6 -10 10 -4 10 18 0 63 -39 78 -69 8
-15 26 -33 40 -41 14 -7 26 -17 26 -21 0 -14 -70 -7 -78 8 -8 13 -11 13 -24 0
-9 -10 -20 -12 -28 -7 -8 5 -19 6 -24 3 -6 -4 -27 -6 -48 -4 -23 1 -38 -3 -38
-10 0 -6 8 -9 19 -6 14 3 18 1 14 -9 -3 -8 1 -14 10 -14 8 0 19 -6 25 -13 8
-10 6 -16 -9 -25 -11 -7 -25 -10 -31 -6 -6 4 -9 1 -6 -7 3 -8 12 -13 19 -11
10 3 11 0 3 -8 -8 -8 -24 -8 -55 -1 -52 12 -122 14 -167 5 -28 -6 -32 -4 -26
12 4 14 -1 12 -19 -8 -23 -25 -26 -25 -42 -10 -17 16 -17 16 -12 0 4 -12 1
-18 -9 -18 -11 0 -14 -5 -9 -17 5 -14 3 -15 -6 -6 -7 7 -9 19 -4 30 5 10 8 21
7 25 -1 4 9 19 23 34 26 28 27 46 1 25 -8 -7 -21 -9 -27 -5 -8 5 -9 3 -4 -6 6
-10 3 -12 -13 -8 -17 5 -22 2 -22 -14 0 -10 -4 -17 -9 -14 -5 3 -9 -10 -9 -29
0 -19 4 -35 9 -35 5 0 9 -11 9 -25 0 -14 -4 -25 -10 -25 -5 0 -7 7 -4 15 4 8
2 15 -4 15 -9 0 -22 -32 -22 -56 0 -6 12 -9 30 -6 17 2 30 8 30 12 0 9 80 70
92 70 4 0 7 -10 7 -22 -2 -30 18 -79 41 -100 11 -10 33 -17 58 -16 22 0 44 -2
49 -5 13 -8 59 37 78 77 18 37 42 39 63 5 10 -16 9 -23 -8 -41 -22 -24 -26
-38 -10 -38 17 0 50 -34 50 -51 0 -9 7 -19 15 -23 18 -7 20 5 3 23 -7 8 -8 11
-2 8 16 -9 62 15 68 35 2 10 10 18 18 18 12 0 39 42 48 75 4 13 43 41 54 37 4
-2 6 8 2 21 -5 21 -3 24 19 19 14 -2 22 -8 20 -12 -3 -5 -1 -11 4 -14 5 -4 12
-2 16 4 8 13 35 13 35 -1 0 -5 -5 -7 -12 -3 -7 4 -8 3 -4 -4 4 -6 13 -9 21 -6
8 4 16 0 18 -7 2 -8 9 -29 15 -48 9 -27 8 -36 -3 -48 -18 -17 -19 -33 -4 -33
6 0 9 -6 6 -14 -3 -8 0 -20 8 -26 9 -7 12 -23 8 -46 -4 -22 -2 -34 6 -34 6 0
11 -11 11 -25 0 -14 -5 -24 -12 -22 -15 2 -19 -91 -6 -110 5 -6 5 -14 -1 -17
-6 -4 -8 -19 -5 -34 2 -15 0 -33 -5 -41 -8 -13 -12 -13 -28 -1 -17 14 -17 14
-2 -5 9 -11 14 -26 11 -34 -2 -8 0 -11 6 -7 18 11 0 -38 -20 -52 -22 -16 -24
-36 -3 -28 23 8 18 -8 -10 -34 -14 -13 -25 -29 -25 -36 0 -7 -7 -20 -17 -29
-29 -30 -72 -99 -66 -108 3 -5 -1 -13 -8 -18 -11 -7 -10 -11 6 -24 20 -16 20
-16 -2 -10 -27 8 -46 -2 -36 -18 15 -24 9 -47 -19 -74 -16 -15 -26 -34 -23
-42 2 -9 6 -31 7 -48 1 -20 8 -33 16 -33 8 0 0 -13 -18 -30 -23 -22 -30 -35
-25 -50 5 -15 -3 -29 -28 -54 -27 -26 -34 -39 -30 -60 4 -19 1 -26 -11 -26
-14 0 -21 -11 -17 -32 0 -5 -5 -8 -13 -8 -9 0 -12 -7 -9 -20 4 -14 -2 -23 -21
-31 -19 -9 -25 -17 -20 -31 3 -12 0 -18 -10 -18 -9 0 -24 -8 -35 -19 -13 -13
-23 -16 -35 -9 -12 7 -16 6 -14 -4 2 -7 7 -16 13 -20 5 -4 6 -10 3 -14 -7 -6
-39 19 -35 27 1 3 -4 -2 -10 -10 -15 -18 -17 -35 -3 -26 6 3 10 1 10 -4 0 -6
-9 -11 -20 -11 -17 0 -19 -5 -14 -25 4 -17 2 -25 -7 -25 -10 0 -10 -3 -1 -12
19 -19 14 -30 -8 -18 -16 9 -20 8 -20 -5 0 -8 8 -15 18 -15 14 0 15 -2 2 -10
-10 -6 -16 -6 -18 0 -7 19 -33 10 -42 -14 -7 -19 -14 -23 -32 -18 -21 5 -22 4
-9 -11 7 -9 10 -17 6 -17 -5 0 -6 -3 -3 -6 4 -3 17 -1 30 6 23 11 23 11 3 -7
-12 -10 -24 -26 -28 -36 -4 -10 -11 -16 -16 -13 -5 3 -14 -1 -21 -9 -6 -8 -32
-26 -56 -40 -24 -14 -44 -31 -44 -37 0 -7 -5 -6 -15 2 -10 9 -15 9 -15 1 0 -6
-9 -11 -20 -11 -12 0 -32 -11 -45 -24 -13 -13 -26 -21 -29 -18 -3 3 -6 0 -6
-6 0 -14 -39 -16 -58 -3 -7 4 -12 12 -11 17 4 22 -3 23 -26 8 -18 -11 -38 -15
-65 -11 -22 3 -43 1 -46 -4 -3 -6 -11 -5 -20 2 -11 9 -14 8 -15 -2 0 -10 -2
-11 -6 -1 -2 6 -22 12 -43 12 -29 0 -43 6 -54 22 l-16 22 0 -22 c0 -12 -4 -22
-10 -22 -5 0 -7 7 -4 15 5 12 -2 15 -31 15 -28 0 -38 5 -42 20 -3 11 -10 20
-15 20 -5 0 -7 4 -4 9 3 5 -5 16 -19 25 -26 17 -60 21 -68 9 -2 -5 -2 -2 -1 5
5 18 -18 52 -35 52 -11 0 -11 3 -1 15 7 9 10 19 6 22 -4 4 -11 1 -16 -7 -7
-11 -10 -11 -10 -2 0 7 -10 17 -22 22 -20 8 -21 9 -4 9 18 1 18 3 -4 26 -20
21 -21 25 -6 31 22 8 20 16 -9 48 -14 15 -25 32 -25 37 0 6 -4 8 -9 4 -6 -3
-14 3 -20 12 -7 12 -10 13 -11 4 0 -10 -3 -11 -13 -2 -8 6 -17 8 -20 4 -4 -3
-7 1 -7 10 0 10 -4 17 -10 17 -5 0 -10 4 -10 10 0 5 7 7 15 4 12 -5 15 2 15
30 0 34 -1 35 -25 26 -20 -8 -27 -6 -35 11 -6 10 -8 24 -5 29 3 6 -1 10 -9 10
-9 0 -16 5 -16 10 0 6 -7 10 -15 10 -18 0 -20 36 -2 43 6 3 3 6 -8 6 -11 1
-27 6 -35 12 -13 9 -12 10 3 5 29 -9 20 21 -10 32 -18 7 -22 11 -10 11 9 1 17
8 17 17 0 11 -5 14 -17 10 -22 -9 -34 13 -21 37 7 13 7 22 -1 30 -6 6 -11 23
-11 38 0 15 -7 34 -15 43 -8 8 -15 21 -15 30 0 8 -8 20 -17 25 -17 10 -17 10
0 11 9 0 17 5 17 11 0 6 -7 8 -16 5 -9 -3 -20 -6 -25 -6 -6 0 -7 -4 -4 -10 3
-6 -1 -7 -10 -4 -12 5 -13 9 -4 20 6 8 17 14 24 14 10 0 13 35 6 68 -1 1 -12
-5 -26 -14 -14 -9 -25 -12 -25 -6 0 5 9 12 20 15 11 3 20 13 20 22 0 11 -5 15
-15 12 -8 -4 -17 -2 -20 3 -4 6 4 10 17 11 21 1 20 2 -6 11 -21 8 -25 13 -15
19 12 7 12 11 1 18 -7 4 -15 17 -16 27 -1 10 -15 25 -29 32 -28 14 -38 38 -12
28 10 -4 15 1 15 16 0 17 -3 18 -14 8 -12 -9 -15 -8 -15 7 0 10 -4 37 -10 61
-7 26 -8 50 -2 60 4 9 6 23 3 31 -2 7 2 17 9 22 7 4 10 12 5 16 -4 4 -15 -1
-23 -12 -16 -20 -16 -20 -8 0 13 37 15 99 4 106 -7 4 -8 12 -4 20 11 17 14 68
5 74 -6 4 -6 136 0 143 4 3 6 13 14 65 5 26 11 47 15 48 49 6 64 3 69 -13 2
-10 8 -18 13 -18 5 0 9 -8 9 -17 0 -26 80 -97 111 -98 20 -1 25 3 22 16 -3 9
0 20 6 23 6 4 11 0 11 -10 0 -14 3 -14 15 -4 9 7 14 19 11 26 -3 8 0 13 6 11
6 -1 13 4 15 11 4 10 -2 13 -18 10 -22 -3 -24 1 -25 37 0 27 6 48 19 63 29 31
42 28 55 -16 20 -65 51 -82 127 -68 69 13 75 16 83 49 11 45 43 48 72 7 19
-27 20 -34 9 -42 -11 -7 -9 -8 6 -6 11 2 20 10 20 18 1 22 -26 61 -37 54 -6
-4 -8 4 -7 17 2 13 0 30 -4 37 -17 26 32 3 72 -34 19 -17 28 -20 38 -12 10 8
18 6 32 -6 17 -16 19 -15 25 16 5 24 0 45 -17 80 l-23 47 23 12 c30 16 21 24
-24 20 -20 -1 -33 1 -29 7 3 5 17 7 31 4 15 -2 25 0 25 7 0 6 7 11 16 11 9 0
14 6 11 13 -2 6 -16 11 -31 9 -16 -2 -26 2 -26 10 0 11 -2 11 -9 0 -13 -21
-34 13 -27 43 7 29 0 32 -26 9 -15 -14 -20 -15 -35 -3 -15 12 -16 12 -10 -3 3
-10 5 -18 2 -18 -6 0 -64 60 -73 75 -4 8 -19 16 -32 19 -14 2 -27 5 -30 6 -8
3 -24 7 -38 8 -7 1 -11 6 -8 11 3 5 -15 6 -41 3 -39 -4 -45 -3 -40 11 4 11 2
14 -9 10 -8 -3 -20 -1 -27 5 -6 5 -24 8 -39 6 -16 -1 -28 2 -28 8 0 5 -7 7
-16 4 -12 -4 -15 -2 -10 9 3 8 2 15 -2 15 -8 0 -32 48 -32 63 0 6 -8 15 -17
22 -14 11 -15 16 -4 28 10 12 10 21 1 38 -11 19 -10 21 4 16 8 -3 18 -2 21 3
4 6 -2 10 -12 10 -17 1 -16 2 2 16 14 11 16 18 8 21 -7 3 -13 13 -13 24 0 10
-6 19 -14 19 -11 0 -11 8 0 51 7 28 19 58 26 67 10 12 10 16 1 19 -14 5 -18
24 -5 22 17 -3 35 2 29 7 -4 4 3 25 15 46 18 31 27 39 44 35 15 -2 21 0 17 9
-2 6 1 15 8 20 7 4 15 2 17 -4 2 -7 8 -12 13 -12 4 0 6 6 3 14 -3 8 4 24 15
35 12 12 21 26 21 32 0 5 4 8 9 5 5 -3 14 8 21 24 8 19 22 33 39 37 14 3 44
21 67 39 27 22 47 31 61 28 12 -3 27 1 37 11 9 9 22 15 30 12 7 -3 19 -2 26 3
7 4 26 4 41 0 16 -5 29 -6 29 -2 0 4 24 7 53 6 32 0 62 6 77 16 24 15 68 19
100 7 23 -8 54 -5 68 6 9 7 16 7 24 -1 7 -7 19 -7 35 -1 18 7 25 5 29 -6 4 -8
10 -12 15 -9 5 3 7 9 4 13 -2 5 6 8 18 7 12 -1 38 4 57 11 43 15 50 15 50 4z
m-910 -1072 c0 12 51 6 93 -12 21 -9 36 -21 32 -27 -3 -5 12 -17 34 -26 44
-17 48 -23 29 -42 -8 -8 -5 -11 15 -9 14 1 25 -1 24 -4 -1 -3 4 -13 11 -22 11
-13 10 -15 -7 -10 -12 3 -21 10 -21 15 0 5 -6 8 -12 5 -7 -2 -26 1 -43 6 -35
12 -205 16 -205 5 0 -5 -4 -8 -9 -8 -11 0 -2 38 11 46 6 4 14 0 19 -7 4 -7 11
-10 16 -6 4 5 1 12 -7 17 -13 8 -12 11 4 23 12 9 15 16 8 21 -6 3 -13 2 -17
-4 -10 -16 -51 -12 -67 8 -29 33 -32 45 -10 33 16 -8 21 -7 26 4 5 14 10 14
41 1 19 -8 35 -11 35 -7z m2214 -371 c7 -43 5 -87 -4 -93 -6 -4 -10 -16 -10
-27 0 -19 -74 -176 -89 -188 -3 -3 -14 -23 -25 -45 -16 -35 -19 -38 -27 -20
-7 17 -8 18 -8 2 -1 -10 -8 -20 -16 -23 -8 -4 -15 -12 -15 -19 0 -20 -55 -56
-74 -49 -9 3 -16 1 -16 -6 0 -6 -4 -8 -10 -5 -6 4 -10 -8 -10 -27 0 -43 -25
-80 -39 -59 -6 10 -4 22 6 37 8 13 12 28 8 34 -3 5 5 15 19 22 28 12 35 42 12
51 -17 7 -10 49 15 93 9 17 19 46 22 65 28 172 28 173 59 201 30 25 31 26 50
8 14 -13 18 -25 13 -40 -4 -12 -1 -28 7 -37 9 -12 9 -15 1 -9 -10 5 -13 -5
-13 -38 0 -25 4 -46 9 -46 9 0 17 35 27 129 5 42 13 61 36 83 35 34 66 37 72
6z m-2301 -3414 c-3 -77 -24 -166 -44 -189 -5 -5 -9 -19 -9 -31 0 -13 -6 -29
-12 -36 -7 -7 -15 -24 -16 -37 -2 -13 -14 -40 -27 -60 -13 -20 -27 -49 -31
-66 -4 -16 -16 -43 -29 -60 -12 -16 -24 -38 -28 -47 -3 -10 -10 -18 -15 -18
-17 0 -5 44 33 119 21 42 43 84 48 95 36 75 93 252 102 319 7 52 30 62 28 11z
m397 -94 c0 -4 -14 -26 -30 -49 -17 -23 -42 -65 -55 -94 -40 -85 -83 -158
-105 -182 -11 -12 -18 -24 -15 -27 3 -3 -8 -27 -24 -54 -17 -27 -40 -69 -51
-94 -34 -78 -55 -114 -67 -118 -7 -2 -13 2 -13 9 0 19 193 393 221 427 15 20
46 81 77 154 17 39 24 46 41 41 12 -3 21 -9 21 -13z m223 -119 c2 -11 -3 -24
-14 -32 -11 -7 -19 -19 -19 -26 0 -7 -4 -13 -10 -13 -5 0 -10 -8 -10 -17 0
-25 -130 -277 -150 -293 -4 -3 -9 -13 -13 -22 -7 -21 -27 -24 -27 -5 0 14 92
200 109 221 5 6 26 42 46 80 20 38 43 75 51 83 8 8 14 21 14 29 0 21 17 17 23
-5z"/>
<path d="M3045 4993 c-22 -9 -51 -24 -65 -34 -24 -16 -80 -31 -107 -29 -67 5
-113 18 -113 31 0 10 -77 32 -88 25 -4 -3 -14 -1 -21 4 -8 4 -26 4 -41 0 -15
-4 -33 -4 -40 0 -7 4 -20 5 -30 3 -15 -4 -17 -10 -9 -36 10 -35 40 -62 79 -72
14 -4 28 -12 32 -18 5 -8 12 -7 25 4 19 17 107 24 98 9 -3 -5 -13 -6 -23 -3
-13 5 -14 3 -5 -7 6 -7 9 -19 6 -26 -3 -8 0 -14 6 -14 6 0 11 9 11 20 0 11 5
20 11 20 6 0 9 -7 5 -15 -3 -9 0 -15 10 -15 11 0 14 6 10 16 -5 13 -1 13 27
-3 32 -19 77 -20 77 -2 0 5 5 9 10 9 12 0 73 41 78 53 2 4 8 5 12 2 5 -3 26 2
47 11 57 24 85 25 90 3 7 -24 16 -24 56 -1 37 20 67 50 67 66 0 18 -168 17
-215 -1z"/>
<path d="M2445 4601 c5 -16 3 -20 -9 -15 -9 3 -16 11 -16 17 0 6 -3 7 -6 4 -4
-4 -1 -13 6 -22 17 -20 -4 -20 -24 1 -15 14 -16 14 -16 0 0 -9 7 -16 15 -16 8
0 19 -8 24 -19 6 -10 29 -26 51 -35 22 -9 40 -20 40 -25 0 -5 8 -12 19 -16 10
-3 21 -19 25 -35 3 -17 12 -30 20 -30 8 0 20 -8 26 -17 8 -13 13 -14 16 -5 7
15 34 16 34 1 0 -6 6 -9 13 -6 6 2 17 -3 24 -12 18 -25 25 -7 10 27 -10 25
-16 29 -25 20 -9 -9 -12 -8 -12 5 0 10 -8 17 -20 17 -18 0 -19 3 -10 20 8 15
18 19 38 15 94 -16 274 -21 294 -9 7 5 22 10 33 11 11 2 43 8 71 14 28 5 55 9
60 8 5 -1 16 0 24 4 37 14 89 15 94 2 6 -18 -17 -37 -48 -39 -13 0 -22 -3 -20
-5 2 -2 -1 -10 -7 -17 -6 -8 -9 -20 -6 -28 3 -8 -1 -17 -9 -20 -12 -4 -14 -1
-9 14 4 11 2 20 -4 20 -16 0 -24 -40 -11 -55 6 -8 9 -18 7 -23 -3 -4 -2 -14 4
-22 7 -12 9 -10 9 8 0 12 5 22 11 22 5 0 8 4 5 9 -3 5 2 15 11 22 15 12 16 12
10 -3 -4 -12 -2 -15 8 -12 8 3 11 12 8 20 -3 8 4 17 18 23 25 9 66 49 62 60
-2 3 2 6 8 6 5 0 22 11 36 25 14 14 39 32 56 40 31 16 54 55 34 58 -50 7 -73
5 -82 -6 -6 -8 -29 -13 -55 -12 -25 1 -78 2 -118 3 -39 1 -72 6 -72 11 0 4
-10 5 -22 2 -13 -4 -27 -8 -33 -9 -5 -2 -21 -10 -35 -19 -70 -44 -158 -47
-230 -7 -35 20 -42 21 -101 9 -35 -7 -94 -15 -131 -16 -61 -3 -66 -2 -63 16 2
12 -4 24 -17 31 -18 9 -19 8 -13 -10z"/>
<path d="M2770 4278 c0 -4 -17 -8 -37 -8 -26 0 -34 -3 -24 -9 11 -7 10 -12 -8
-22 -11 -8 -21 -18 -21 -23 0 -6 5 -5 12 2 7 7 18 12 26 12 10 0 10 -3 -2 -16
-9 -8 -16 -21 -16 -27 0 -7 4 -6 10 3 9 13 13 12 28 -7 14 -17 27 -21 71 -21
34 0 56 -5 62 -13 7 -11 9 -11 9 -1 0 7 5 10 10 7 6 -3 10 -1 10 4 0 15 27 14
33 -1 4 -9 6 -10 6 -1 1 8 10 9 33 3 20 -6 36 -6 44 1 8 7 14 6 20 -2 5 -9 11
-7 20 6 11 15 16 16 29 5 13 -11 14 -10 9 5 -6 15 -3 17 14 13 12 -4 20 -2 17
2 -3 5 0 12 6 16 6 3 15 0 20 -7 5 -8 6 2 2 26 -7 48 -10 52 -25 37 -19 -19
-30 -14 -23 11 6 18 5 20 -6 10 -16 -16 -33 -17 -24 -3 4 7 -3 8 -22 4 -15 -3
-37 -6 -48 -5 -127 5 -235 5 -235 -1z"/>
<path d="M4076 2983 c-16 -3 -46 -16 -65 -29 -20 -13 -41 -24 -48 -24 -25 0
-21 -17 5 -18 105 -2 117 -5 135 -42 7 -13 14 -21 17 -19 3 2 19 -6 37 -19 20
-14 34 -18 38 -12 4 6 10 8 14 5 5 -2 27 18 50 45 l42 49 -38 25 c-29 19 -153
54 -157 45 -1 -1 -14 -4 -30 -6z"/>
<path d="M2876 1808 c-8 -13 -20 -36 -27 -53 -8 -16 -25 -45 -38 -64 -14 -18
-26 -42 -28 -53 -2 -11 -10 -32 -18 -47 -8 -14 -23 -47 -35 -73 -11 -27 -25
-48 -30 -48 -5 0 -14 -19 -21 -42 -6 -24 -19 -63 -28 -88 -9 -25 -15 -48 -13
-52 1 -5 -7 -17 -18 -28 -11 -11 -20 -29 -20 -39 0 -11 -4 -23 -10 -26 -5 -3
-10 -23 -10 -43 1 -33 2 -35 14 -20 7 10 35 66 61 125 26 60 53 119 60 133 7
14 32 68 55 120 23 52 48 109 55 125 7 17 22 55 33 85 11 30 25 67 31 83 13
33 7 35 -13 5z"/>
<path d="M972 1624 c-39 -41 -52 -60 -46 -72 6 -14 8 -14 11 6 3 12 9 22 14
22 15 0 11 -15 -12 -44 l-21 -27 24 6 c21 5 24 3 23 -21 -1 -17 -9 -30 -20
-34 -13 -5 -15 -9 -7 -14 7 -4 12 -4 13 1 0 4 4 -2 9 -14 5 -13 14 -23 19 -23
10 0 9 19 -2 38 -5 6 -4 12 2 12 11 0 47 60 43 73 -1 4 3 7 8 7 6 0 10 6 10
14 0 8 7 21 15 30 11 11 14 26 9 55 -4 22 -11 38 -16 35 -6 -4 -8 -17 -5 -30
6 -32 -16 -50 -34 -28 -8 10 -9 18 -3 22 9 6 27 43 21 42 -1 -1 -26 -26 -55
-56z"/>
<path d="M4605 1450 c-3 -5 -3 -10 1 -10 4 0 -1 -6 -11 -14 -11 -8 -25 -12
-31 -9 -8 3 -11 -6 -10 -26 2 -24 -2 -31 -16 -31 -10 0 -18 -7 -18 -15 0 -8
-4 -15 -9 -15 -15 0 -22 -32 -9 -47 10 -12 7 -13 -18 -7 -26 7 -28 6 -15 -9
12 -15 11 -17 -4 -17 -10 0 -15 -5 -12 -13 3 -7 -1 -21 -8 -31 -8 -10 -11 -24
-8 -31 2 -8 -5 -20 -16 -27 -12 -7 -21 -19 -21 -27 0 -8 -3 -12 -6 -8 -3 3
-16 -6 -29 -21 -22 -25 -22 -28 -7 -46 16 -18 16 -18 -6 -11 l-24 7 21 -21
c13 -13 19 -27 14 -34 -5 -8 -9 -7 -11 6 -4 21 -18 22 -26 1 -9 -24 -7 -36 5
-29 6 4 5 -3 -3 -14 -11 -18 -11 -23 2 -31 13 -9 13 -10 0 -11 -8 -1 -18 -1
-22 0 -5 0 -8 -6 -8 -14 0 -9 6 -12 15 -9 19 8 19 -6 1 -31 -10 -14 -11 -25
-5 -37 7 -13 6 -16 -5 -12 -8 3 -17 1 -21 -5 -3 -6 0 -11 8 -11 8 0 17 -9 20
-20 3 -13 0 -20 -9 -20 -12 0 -14 -4 -14 -25 0 -3 -7 -21 -15 -41 -8 -20 -12
-40 -9 -46 3 -5 -6 -26 -20 -47 -26 -37 -27 -79 -2 -64 6 4 5 -1 -3 -10 -11
-14 -11 -20 0 -33 11 -13 9 -14 -16 -8 -22 5 -26 4 -20 -6 5 -8 1 -18 -10 -27
-18 -12 -18 -13 -1 -13 12 0 16 -5 12 -16 -3 -9 -6 -20 -6 -25 0 -5 -7 -9 -16
-9 -10 0 -14 -6 -10 -15 3 -8 1 -15 -3 -15 -14 0 -22 -32 -11 -45 11 -13 -6
-35 -27 -35 -17 0 -17 -17 0 -23 15 -6 -42 -31 -63 -28 -13 2 -13 0 -1 -8 12
-8 13 -14 3 -35 -6 -14 -18 -26 -27 -26 -15 0 -19 -10 -15 -44 1 -10 -3 -15
-8 -12 -6 3 -25 0 -43 -8 -28 -12 -33 -19 -34 -49 l-2 -35 471 -1 c375 -2 468
1 458 11 -6 6 -12 17 -12 22 0 6 5 5 12 -2 20 -20 30 -14 26 16 -3 26 21 62
42 62 6 0 10 5 10 11 0 5 5 7 10 4 6 -3 10 -16 10 -28 0 -17 2 -19 9 -7 6 8 8
17 5 21 -2 4 3 9 11 13 8 3 15 13 15 22 0 10 6 14 14 11 8 -3 16 2 19 14 4 14
14 19 40 19 24 0 39 7 51 23 8 12 13 15 10 6 -7 -22 15 -36 27 -18 4 8 12 14
16 15 4 0 20 4 36 8 22 7 25 11 16 22 -6 8 -15 12 -19 9 -4 -3 -10 2 -14 10
-8 21 -24 19 -31 -5 -3 -11 -13 -20 -21 -20 -12 0 -12 4 -4 20 11 21 10 21
-37 36 -7 2 -16 -8 -19 -22 -4 -15 -12 -23 -19 -20 -7 2 -17 0 -23 -6 -6 -6
-12 -6 -16 1 -11 17 -29 13 -22 -4 6 -17 -14 -21 -30 -5 -6 6 -15 6 -24 0 -10
-7 -11 -10 -2 -10 6 0 12 -4 12 -10 0 -5 -9 -10 -21 -10 -13 0 -19 5 -16 13 3
8 -3 13 -14 13 -13 0 -17 -5 -14 -17 5 -14 -1 -16 -40 -13 -37 4 -45 1 -45
-13 0 -9 -3 -13 -7 -10 -3 4 -12 2 -20 -4 -10 -9 -13 -8 -13 0 0 7 -4 10 -10
6 -5 -3 -7 -13 -4 -23 5 -13 4 -14 -4 -3 -5 7 -14 11 -18 8 -5 -3 -15 1 -22 9
-13 15 -6 19 26 15 6 -1 12 6 12 15 0 13 -7 15 -35 12 -24 -3 -31 -1 -25 7 6
7 7 14 5 17 -3 3 6 13 20 22 14 9 23 21 20 26 -3 5 5 18 17 30 18 17 20 23 9
29 -16 10 -6 31 15 31 8 0 14 10 15 23 0 12 3 16 6 10 7 -18 23 -16 23 2 0 8
11 22 25 31 13 9 27 24 30 35 4 10 13 19 21 19 8 0 13 4 9 9 -3 5 -1 12 5 16
6 4 8 11 5 16 -4 5 2 6 12 2 11 -4 15 -2 10 3 -12 13 -58 12 -53 -1 2 -6 -4
-11 -13 -12 -9 -1 -25 -3 -36 -5 -14 -2 -20 3 -20 17 -1 11 -6 19 -13 18 -7
-2 -12 4 -12 12 0 9 6 12 16 8 12 -4 15 -2 12 8 -3 8 -15 13 -28 11 -16 -2
-21 2 -16 13 3 9 2 13 -4 10 -16 -10 -11 17 7 37 9 10 13 21 9 25 -4 4 -11 1
-17 -7 -7 -11 -8 -7 -3 13 4 18 2 27 -6 27 -7 0 -10 15 -8 42 2 35 0 43 -16
46 -10 2 -16 0 -13 -5 3 -5 -2 -9 -12 -9 -11 0 -17 8 -17 21 1 13 -5 20 -16
19 -10 -1 -18 3 -18 10 0 6 -13 12 -30 12 -16 1 -30 -2 -30 -6 0 -5 -8 -11
-17 -13 -13 -3 -10 -5 7 -6 l25 -1 -25 -20 c-14 -11 -33 -20 -42 -20 -19 0
-25 26 -7 32 12 4 1 58 -12 58 -14 0 -10 60 6 105 19 51 19 74 0 81 -15 6 -21
25 -7 23 25 -4 33 2 26 24 -3 12 -3 19 1 15 7 -7 35 14 35 26 0 3 -11 5 -24 4
-14 -1 -24 -5 -24 -8 2 -20 -4 -30 -17 -30 -13 0 -14 9 -10 52 4 29 11 58 17
65 6 7 8 22 5 33 -3 11 -2 18 2 16 10 -7 34 61 26 74 -3 5 -2 10 2 10 13 0 45
59 38 69 -3 5 3 12 12 14 16 4 16 5 1 6 -9 0 -20 -3 -23 -9z"/>
</g>
</svg>
