<?xml version="1.0" standalone="no"?>
<!DOCTYPE svg PUBLIC "-//W3C//DTD SVG 20010904//EN"
 "http://www.w3.org/TR/2001/REC-SVG-20010904/DTD/svg10.dtd">
<svg version="1.0" xmlns="http://www.w3.org/2000/svg"
 width="450.000000pt" height="827.000000pt" viewBox="0 0 450.000000 827.000000"
 preserveAspectRatio="xMidYMid meet">
<metadata>
Created by potrace 1.10, written by Peter Selinger 2001-2011
</metadata>
<g transform="translate(0.000000,827.000000) scale(0.100000,-0.100000)"
fill="#34181f" stroke="none">
<path d="M1 4613 c0 -3323 1 -3655 16 -3620 19 46 46 54 118 37 63 -15 77 -9
74 34 -4 62 0 75 26 82 47 12 173 -84 235 -178 14 -21 28 -38 33 -38 4 0 7 -5
7 -12 0 -6 7 -18 15 -27 58 -64 75 -86 80 -102 4 -11 11 -16 17 -13 6 4 8 -1
3 -15 -4 -12 -2 -21 4 -21 6 0 11 -4 11 -10 0 -13 -27 -13 -32 1 -2 7 -12 7
-31 -2 -19 -9 -24 -16 -17 -24 5 -7 7 -15 4 -18 -9 -9 -38 23 -39 44 -2 21 11
26 18 7 3 -10 7 -10 20 1 9 7 14 18 11 23 -4 6 -10 5 -16 -3 -7 -10 -8 -5 -4
16 3 17 3 24 0 18 -8 -19 -27 -16 -20 3 3 8 2 12 -3 9 -5 -3 -12 3 -14 12 -3
10 -5 -6 -6 -34 -1 -55 -15 -69 -31 -30 -5 12 -9 19 -9 15 -1 -12 -41 25 -41
38 0 6 -11 17 -25 24 -13 7 -22 17 -19 22 4 5 -4 17 -17 26 -28 20 -79 27 -79
11 0 -6 6 -9 14 -6 16 6 30 -19 19 -35 -3 -6 -1 -8 5 -4 6 3 24 -8 41 -25 19
-19 36 -27 43 -23 10 6 10 5 1 -7 -13 -17 -6 -32 20 -42 9 -3 17 -16 17 -27 0
-11 5 -20 11 -20 6 0 8 -7 5 -16 -8 -21 4 -40 15 -23 12 20 16 10 24 -53 6
-50 5 -58 -9 -58 -9 0 -16 5 -16 11 0 6 -6 9 -13 6 -6 -2 -11 -10 -9 -16 1 -8
-4 -7 -18 1 -11 7 -20 16 -20 19 0 4 -9 5 -20 2 -11 -3 -20 -1 -20 5 0 5 -11
13 -25 16 -14 4 -25 12 -25 20 0 7 -18 26 -40 41 -31 21 -44 25 -52 17 -9 -9
-5 -18 15 -36 15 -14 27 -29 27 -34 0 -5 11 -14 25 -20 14 -7 25 -20 25 -31 0
-13 7 -19 24 -19 13 0 33 -9 46 -22 l22 -22 -23 -24 c-12 -13 -24 -22 -27 -19
-2 2 -17 -2 -33 -10 -18 -10 -30 -11 -34 -5 -4 6 -21 17 -40 24 -18 8 -47 30
-65 50 -18 20 -42 36 -52 36 -11 0 -27 7 -35 16 -9 8 -24 13 -34 11 -11 -3
-19 -1 -19 4 0 4 -7 6 -15 3 -11 -4 -13 -2 -9 9 3 8 1 18 -5 22 -6 3 -11 -1
-11 -9 0 -9 -6 -16 -12 -17 -7 0 -3 -5 9 -11 13 -6 23 -17 23 -25 0 -7 7 -13
16 -13 11 0 15 -6 11 -20 -4 -14 0 -20 13 -20 18 0 38 -17 39 -35 1 -15 24
-13 43 3 19 16 48 10 47 -10 0 -9 -2 -10 -5 -1 -3 7 -11 10 -17 7 -18 -6 -13
-62 6 -77 14 -10 15 -15 4 -37 -8 -14 -19 -24 -26 -22 -6 1 -14 -5 -17 -13 -9
-22 -28 -18 -63 11 -20 16 -39 24 -51 21 -22 -6 -28 8 -8 16 7 3 3 6 -9 6
l-23 1 0 -180 0 -180 978 0 c747 0 981 3 990 12 7 7 12 20 12 30 0 10 5 18 10
18 6 0 10 -6 9 -12 -4 -33 2 -48 20 -48 11 0 23 5 26 10 9 15 15 294 7 285 -4
-3 -11 -25 -17 -48 -5 -22 -16 -43 -24 -45 -10 -4 -12 0 -6 14 4 11 11 48 16
84 4 36 15 99 24 140 21 96 23 132 8 137 -8 3 -13 -3 -13 -14 0 -10 -7 -31
-15 -47 -8 -15 -15 -36 -15 -45 -1 -21 -28 -57 -37 -48 -3 4 -1 23 5 43 6 20
8 42 6 49 -3 7 0 23 6 35 13 24 6 70 -10 70 -6 0 -10 -11 -10 -24 0 -14 -5
-28 -10 -31 -6 -3 -10 -18 -10 -33 0 -15 -7 -40 -15 -56 -8 -15 -15 -39 -15
-52 0 -13 -4 -24 -10 -24 -14 0 -12 31 5 79 8 23 12 48 9 55 -3 8 -1 17 5 21
13 8 15 82 2 89 -18 11 -51 -93 -77 -239 -6 -36 -8 -38 -14 -15 -3 14 -3 39 2
55 5 17 11 50 13 75 3 25 10 64 16 87 12 44 7 73 -11 73 -5 0 -10 -9 -10 -19
0 -30 -40 -154 -55 -169 -10 -11 -11 -4 -3 40 5 29 15 67 22 83 15 36 14 77
-2 83 -6 2 -16 -16 -23 -42 -6 -25 -18 -51 -27 -58 -13 -11 -14 -9 -8 17 4 17
10 49 13 71 4 35 1 44 -18 58 -36 25 -47 20 -59 -26 -19 -71 -21 -78 -30 -78
-4 0 -4 17 1 38 20 79 22 112 7 112 -8 0 -20 -6 -27 -13 -11 -9 -12 -9 -7 0 9
15 -12 56 -24 48 -5 -3 -14 4 -20 15 -6 11 -15 20 -21 20 -6 0 -25 11 -43 25
-18 14 -38 25 -43 25 -6 0 -13 7 -17 15 -3 8 -11 15 -18 15 -7 1 -31 19 -53
40 -22 22 -45 40 -52 40 -7 0 -20 11 -29 25 -9 14 -21 25 -27 25 -5 0 -22 13
-37 28 -14 16 -32 26 -40 24 -7 -3 -10 0 -6 7 4 6 0 14 -8 17 -9 3 -16 12 -16
20 0 8 -5 14 -11 14 -17 0 -38 32 -39 58 0 12 -6 22 -12 22 -15 1 -39 32 -59
78 -8 17 -17 32 -22 32 -7 0 -57 -103 -63 -130 -7 -37 -37 -110 -45 -110 -5 0
-9 -7 -9 -15 0 -8 -5 -15 -10 -15 -6 0 -9 -3 -9 -7 4 -25 -3 -43 -17 -43 -10
0 -14 -6 -11 -14 7 -18 -24 -54 -41 -49 -7 3 -10 -1 -6 -11 4 -10 1 -16 -7
-16 -35 -1 -74 -56 -70 -97 3 -28 -4 -29 -31 -3 -15 14 -25 17 -34 9 -8 -7
-14 -7 -19 1 -4 7 -19 9 -38 4 -26 -5 -30 -4 -20 7 9 11 7 23 -7 54 -10 22
-21 39 -25 37 -10 -5 -32 22 -28 35 3 7 -4 9 -18 6 -14 -4 -20 -2 -16 4 7 12
-30 59 -44 56 -4 -2 -6 4 -2 13 5 13 2 15 -15 10 -17 -6 -21 -4 -16 7 3 8 1
18 -4 21 -6 3 -13 -2 -16 -11 -6 -15 -8 -15 -16 -3 -5 9 -5 19 2 27 5 7 8 18
5 25 -4 8 -6 7 -6 -4 -1 -23 -7 -23 -32 1 -16 15 -19 26 -14 55 10 52 28 63
71 43 49 -24 83 -22 93 5 5 15 4 26 -2 30 -6 4 -12 24 -13 45 0 21 1 32 3 26
3 -7 11 -13 18 -13 7 0 22 -15 34 -32 15 -24 21 -28 21 -15 0 10 5 15 10 12 6
-3 10 0 10 8 0 7 -11 19 -24 26 -28 15 -55 64 -31 54 8 -3 15 0 15 6 0 6 -11
13 -24 17 -16 4 -26 15 -30 36 -14 69 -7 97 41 170 27 39 53 81 60 92 18 32
99 101 148 125 38 19 46 29 55 64 6 23 29 89 50 147 21 58 46 132 55 165 26
96 104 242 163 304 8 8 32 39 55 70 22 31 46 61 53 66 6 6 26 33 45 60 18 28
39 56 46 64 8 7 29 36 48 65 18 28 50 68 72 89 76 74 126 117 139 117 6 0 14
7 17 15 4 8 23 21 43 30 44 18 47 18 38 4 -4 -8 0 -9 15 -4 12 3 35 4 52 0 23
-5 28 -11 24 -24 -3 -10 1 -31 10 -47 13 -25 20 -26 16 -1 -1 5 3 6 9 2 5 -3
7 -17 4 -30 -4 -16 0 -27 13 -35 13 -8 15 -13 5 -17 -10 -4 -10 -8 -1 -19 11
-14 10 -15 -13 -18 -6 0 -12 -7 -14 -14 -1 -7 0 -8 3 -2 6 14 23 3 23 -16 0
-8 9 -24 20 -36 l19 -21 -4 39 c-2 21 -2 30 1 19 3 -11 13 -28 21 -37 13 -15
18 -15 37 -3 20 13 23 13 36 -5 7 -10 18 -16 23 -13 6 4 8 -3 4 -18 -4 -13 -7
-32 -7 -41 0 -9 -7 -24 -16 -32 -8 -9 -13 -20 -9 -25 9 -16 -20 -73 -59 -115
-20 -22 -36 -45 -36 -50 0 -6 -18 -34 -40 -63 -21 -29 -68 -96 -103 -150 -35
-54 -82 -123 -105 -153 -23 -30 -42 -60 -42 -65 0 -16 -50 -108 -71 -131 -11
-11 -19 -24 -19 -29 0 -4 -24 -35 -53 -69 -29 -34 -65 -77 -80 -98 -14 -20
-32 -42 -39 -50 -28 -28 -118 -151 -118 -159 0 -5 5 -9 12 -9 6 0 28 -18 48
-40 59 -65 85 -57 120 38 7 17 17 32 22 32 11 0 11 0 -26 -83 -14 -31 -22 -57
-16 -57 5 0 13 8 19 17 19 34 19 7 0 -31 -23 -47 -23 -47 -4 -40 7 3 22 26 31
50 19 49 44 78 44 50 0 -9 -9 -29 -20 -44 -10 -15 -22 -40 -26 -56 l-7 -28 27
23 c14 12 26 27 26 33 0 6 11 34 25 61 18 37 23 42 18 20 -3 -16 -19 -56 -34
-87 -28 -56 -38 -92 -20 -72 16 17 61 104 61 118 0 15 38 52 45 44 3 -3 -15
-44 -40 -92 -25 -48 -45 -92 -45 -99 0 -25 40 32 88 126 8 16 16 27 18 25 7
-8 -19 -84 -43 -126 -25 -45 -24 -71 2 -36 21 28 85 162 115 242 11 28 30 44
30 25 0 -13 -35 -101 -43 -109 -4 -4 -7 -13 -7 -21 0 -7 -20 -53 -44 -103 -25
-49 -41 -90 -37 -90 10 0 61 64 61 77 0 4 9 19 20 33 25 32 27 5 3 -30 -17
-24 -43 -86 -43 -104 -1 -42 147 232 166 308 6 25 21 42 29 34 3 -2 -5 -29
-16 -59 -11 -30 -25 -67 -31 -84 -6 -16 -15 -35 -19 -40 -4 -6 -27 -48 -49
-94 -43 -88 -49 -126 -11 -73 30 43 44 40 25 -4 -20 -48 -11 -54 22 -15 32 39
42 34 20 -10 -19 -37 -19 -39 -7 -39 12 0 90 135 131 226 17 38 46 98 64 134
18 36 36 83 40 105 8 41 22 65 37 65 15 0 10 -38 -9 -72 -11 -18 -31 -66 -45
-107 -15 -41 -33 -82 -40 -90 -7 -9 -28 -45 -47 -81 -18 -36 -39 -72 -46 -81
-8 -8 -14 -24 -14 -35 0 -11 -7 -29 -15 -40 -16 -21 -20 -59 -6 -49 5 3 31 44
57 92 26 48 50 81 52 74 3 -8 -2 -28 -11 -45 -33 -65 -68 -149 -63 -153 2 -3
15 11 28 31 26 40 44 48 33 14 -3 -13 -9 -34 -11 -48 -5 -25 -5 -25 21 5 l27
30 -5 -30 c-2 -16 -8 -38 -12 -49 -6 -14 -5 -18 5 -14 7 2 37 51 67 107 29 57
58 110 65 118 6 8 12 24 13 34 2 24 32 56 42 45 4 -4 -3 -25 -15 -47 -42 -73
-78 -146 -96 -195 -11 -27 -23 -55 -29 -62 -12 -15 -3 -27 13 -17 6 4 29 43
51 88 22 45 44 86 50 91 5 6 9 17 9 26 0 8 16 39 35 69 19 29 35 58 35 66 0 7
8 23 18 36 10 13 21 32 25 41 8 21 27 24 27 4 0 -8 -16 -37 -35 -66 -19 -29
-35 -60 -35 -69 0 -9 -4 -21 -9 -27 -16 -16 -91 -165 -116 -232 -42 -108 -5
-65 66 77 37 73 71 137 78 144 19 19 24 0 8 -30 -59 -108 -124 -269 -113 -281
5 -4 23 27 74 134 22 45 45 85 52 89 14 9 9 -10 -22 -90 -62 -158 -64 -165
-50 -165 5 0 19 23 32 50 13 28 27 50 32 50 4 0 8 10 8 21 0 22 48 132 95 219
14 25 51 98 82 162 40 80 63 117 75 118 21 0 25 7 64 100 79 191 284 611 340
697 19 28 34 56 34 61 0 6 47 59 105 119 58 59 108 117 111 127 3 10 23 37 43
60 35 39 92 123 142 212 60 105 93 160 104 174 7 8 38 65 70 125 83 160 109
278 70 325 -22 26 -24 70 -5 80 57 31 196 -86 173 -146 -7 -18 50 -162 89
-226 16 -26 50 -63 76 -82 26 -20 70 -53 97 -75 28 -22 64 -46 80 -53 17 -6
83 -47 147 -91 102 -69 129 -83 209 -103 50 -13 104 -24 119 -24 15 0 39 -9
54 -21 l26 -20 0 2740 0 2741 -2250 0 -2250 0 1 -3657z m2687 1016 c13 1 21
-3 18 -8 -3 -5 29 -24 72 -42 42 -18 86 -41 96 -51 11 -10 24 -18 28 -18 5 0
6 -5 3 -10 -3 -6 6 -15 21 -20 20 -8 25 -15 21 -31 -5 -19 -3 -21 29 -16 24 4
34 2 33 -6 -4 -30 3 -41 11 -19 5 12 6 30 3 40 -4 9 8 0 26 -20 33 -38 51 -47
51 -27 0 5 -4 7 -10 4 -14 -9 -12 7 4 28 12 16 14 16 27 1 15 -19 13 -51 -4
-73 -7 -8 -10 -24 -9 -36 2 -13 -3 -25 -13 -29 -9 -3 -15 -14 -14 -23 3 -35
-1 -43 -22 -43 -16 0 -19 -4 -14 -20 5 -16 3 -19 -10 -14 -12 5 -16 2 -14 -12
2 -10 0 -25 -4 -31 -5 -9 -3 -13 7 -13 9 0 16 5 16 12 0 6 3 8 7 5 3 -4 -4
-18 -17 -32 -21 -22 -22 -27 -9 -42 17 -20 39 -68 39 -84 0 -13 -39 -2 -61 17
-17 16 -55 19 -63 5 -5 -8 -54 -17 -151 -28 -54 -6 -150 -52 -172 -83 -8 -11
-20 -17 -31 -14 -10 4 -13 3 -6 -3 8 -6 8 -16 -1 -36 l-11 -28 -14 26 c-18 34
-30 32 -59 -11 -21 -30 -22 -37 -10 -45 11 -7 9 -9 -8 -9 -31 0 -38 -17 -12
-30 17 -10 23 -8 35 7 7 10 14 24 14 31 0 10 4 10 20 0 17 -11 22 -10 30 2 7
10 13 11 18 5 4 -6 20 -12 36 -13 16 -1 36 -8 44 -15 12 -10 16 -9 20 1 7 21
45 53 58 48 7 -3 15 -2 18 2 4 3 17 7 29 9 12 2 38 10 58 18 20 7 38 12 40 10
2 -2 33 -5 69 -8 48 -4 68 -10 75 -23 5 -10 22 -29 38 -43 15 -14 27 -28 27
-31 0 -12 -51 -4 -59 9 -6 8 -14 10 -22 5 -14 -9 -20 -9 -79 -12 l-35 -2 34
-21 34 -21 -24 -22 c-21 -20 -29 -21 -69 -14 -25 5 -64 6 -87 3 -24 -3 -43 -3
-43 2 0 4 -11 8 -25 8 -14 0 -25 -3 -25 -7 0 -5 -7 -8 -15 -8 -8 0 -15 5 -15
10 0 6 3 10 8 10 4 0 13 9 20 20 11 18 10 20 -10 17 -38 -4 -71 -44 -66 -78 3
-16 1 -32 -4 -35 -17 -11 -8 -44 12 -44 11 0 20 3 20 8 0 11 70 56 77 48 3 -3
8 -18 9 -32 2 -14 10 -37 19 -50 13 -20 24 -24 65 -24 52 0 74 14 91 57 10 26
44 31 53 7 3 -8 1 -24 -5 -35 -9 -17 -6 -24 18 -45 35 -30 44 -30 67 1 10 14
25 25 32 25 8 0 14 6 14 14 0 7 7 19 15 26 8 7 15 21 15 31 0 11 3 18 8 18 22
-4 34 3 28 16 -4 11 2 15 20 15 14 0 23 -4 20 -9 -4 -5 4 -7 16 -3 14 3 19 2
14 -6 -5 -8 0 -12 13 -12 15 0 21 -6 21 -23 0 -13 5 -28 12 -35 8 -8 8 -12 1
-12 -6 0 -13 -9 -16 -20 -3 -11 -1 -20 4 -20 4 0 6 -7 3 -15 -4 -8 -1 -15 5
-15 6 0 11 -12 10 -27 0 -16 2 -38 6 -50 5 -14 3 -23 -3 -23 -7 0 -11 -31 -11
-86 0 -52 -4 -91 -12 -100 -8 -9 -8 -14 -1 -14 15 0 4 -31 -16 -47 -11 -9 -12
-13 -3 -13 8 0 11 -6 7 -15 -3 -8 -1 -15 5 -15 6 0 8 -4 4 -10 -3 -5 -12 -7
-20 -3 -13 5 -20 -7 -16 -29 0 -5 -4 -8 -11 -8 -9 0 -9 -3 0 -12 14 -14 16
-42 2 -33 -5 3 -12 -6 -16 -20 -6 -24 -24 -36 -24 -15 0 19 -17 10 -28 -14 -8
-17 -7 -27 1 -36 9 -9 7 -11 -8 -8 -18 3 -20 -2 -18 -46 0 -32 -2 -44 -8 -35
-8 12 -11 12 -19 -1 -14 -21 -13 -90 2 -90 6 0 1 -11 -12 -24 -13 -15 -20 -32
-17 -41 4 -10 -5 -25 -23 -42 -21 -18 -28 -32 -24 -45 3 -11 -1 -20 -10 -24
-9 -3 -16 -12 -16 -20 0 -8 -5 -14 -11 -14 -6 0 -9 -7 -5 -15 3 -9 -3 -19 -14
-25 -11 -6 -20 -17 -20 -24 0 -7 -12 -19 -27 -26 -29 -15 -37 -17 -65 -19 -11
-1 -18 -9 -18 -20 0 -11 -4 -22 -10 -26 -5 -3 -6 -13 -3 -22 5 -11 3 -14 -6
-8 -10 6 -11 3 -1 -15 10 -18 9 -21 -1 -18 -7 2 -26 -8 -41 -24 -15 -15 -32
-28 -37 -28 -6 0 -8 -7 -5 -15 4 -8 11 -12 18 -8 16 10 -14 -29 -44 -54 -14
-12 -30 -22 -36 -23 -5 0 -19 -8 -30 -18 -10 -9 -32 -18 -49 -20 -16 -2 -41
-14 -56 -28 -31 -29 -59 -31 -66 -4 -6 21 -19 27 -25 10 -4 -13 -21 -14 -113
-6 -38 4 -74 12 -80 19 -5 7 -20 11 -32 9 -13 -2 -23 2 -23 8 0 6 -4 9 -8 6
-4 -2 -27 15 -50 40 -24 24 -49 44 -57 44 -8 0 -15 4 -15 9 0 5 -16 26 -35 47
-20 21 -31 40 -25 42 15 5 12 38 -5 52 -8 7 -15 18 -15 24 0 6 -7 20 -16 31
-12 17 -16 18 -24 5 -5 -8 -12 -11 -17 -7 -4 5 -1 12 7 18 13 7 13 10 1 18 -7
5 -11 13 -8 18 7 11 -28 53 -43 53 -5 0 -19 10 -31 23 -12 12 -19 16 -15 10 4
-7 2 -13 -4 -13 -7 0 -9 8 -5 20 4 11 2 20 -4 20 -6 0 -11 6 -11 13 0 6 -14
39 -30 72 -16 33 -30 66 -30 73 0 7 -6 21 -12 32 -11 17 -10 22 0 29 13 8 6
41 -9 41 -5 0 -9 12 -9 26 0 14 -7 32 -15 41 -8 8 -13 19 -10 24 4 5 1 9 -5 9
-6 0 -8 4 -5 10 3 5 -6 21 -20 36 -14 14 -23 29 -20 34 3 5 0 20 -7 32 -7 13
-11 29 -9 37 1 9 -3 12 -13 8 -20 -8 -20 -3 -1 17 13 13 13 15 -5 21 -15 5
-18 11 -11 23 11 23 5 136 -9 140 -5 2 -8 8 -4 13 8 13 8 144 0 157 -3 6 -1
12 4 14 6 2 12 16 13 32 1 17 9 30 17 32 8 1 21 3 28 5 8 2 19 -5 25 -16 20
-32 80 -85 107 -91 14 -4 31 -11 38 -17 11 -8 12 -5 6 18 -5 22 -2 31 16 45
21 16 21 18 5 33 -9 10 -21 15 -26 11 -12 -7 -9 57 4 74 15 20 36 14 43 -12 3
-13 16 -34 29 -46 19 -18 30 -20 67 -15 54 8 60 12 75 48 15 34 36 35 57 2 15
-22 15 -25 -2 -35 -15 -9 -14 -10 8 -8 32 4 36 28 10 56 -20 21 -20 42 0 42 5
0 23 -15 41 -32 18 -18 39 -32 47 -30 8 2 12 -1 8 -6 -3 -5 1 -9 8 -9 17 0 14
83 -4 120 -13 27 -12 30 9 46 19 14 21 21 12 44 -7 19 -20 29 -41 33 -20 4
-30 12 -30 24 0 23 -17 29 -52 19 -21 -6 -32 -2 -55 21 -15 15 -43 31 -60 34
-18 4 -33 11 -33 16 0 5 -16 6 -35 3 -22 -4 -35 -2 -35 5 0 6 -7 9 -15 6 -8
-4 -15 -2 -15 4 0 5 -18 17 -40 26 -28 11 -41 23 -46 43 -5 17 -3 28 4 31 7 2
10 13 6 27 -3 12 -1 26 5 30 8 4 8 12 1 26 -7 12 -7 19 -1 19 17 0 1 29 -19
35 -27 9 -22 60 6 59 19 0 20 2 8 25 -15 29 -11 39 9 23 11 -10 13 -6 12 19
-1 19 2 26 8 20 11 -11 37 -4 37 10 0 5 -8 9 -17 9 -17 1 -16 2 1 15 10 8 22
12 27 10 4 -3 10 4 14 15 3 11 10 20 15 20 5 0 7 7 3 16 -4 10 1 17 16 21 11
3 21 12 21 19 0 16 35 54 49 54 5 0 11 7 15 15 3 8 12 15 21 15 8 0 15 5 15
10 0 6 9 10 21 10 11 0 28 4 37 9 9 5 57 11 106 14 48 4 93 11 100 16 6 5 58
8 115 7 58 -1 127 3 154 9 27 6 64 9 81 7 17 -2 41 -3 54 -3z m384 -203 c-4
-7 -8 -5 -10 7 -2 9 -8 17 -13 17 -5 0 -9 5 -9 12 0 6 8 3 20 -7 11 -10 16
-23 12 -29z m-1222 -26 c0 -5 -2 -10 -4 -10 -3 0 -8 5 -11 10 -3 6 -1 10 4 10
6 0 11 -4 11 -10z m-93 -127 c-4 -3 -10 -3 -14 0 -3 4 0 7 7 7 7 0 10 -3 7 -7z
m1350 -50 c-4 -3 -7 0 -7 7 0 7 3 10 7 7 3 -4 3 -10 0 -14z m-430 -430 c-4 -3
-10 -3 -14 0 -3 4 0 7 7 7 7 0 10 -3 7 -7z m-705 -54 c10 -10 27 -20 38 -24
13 -4 19 -12 16 -21 -3 -9 1 -14 14 -14 12 0 20 -7 20 -17 0 -13 -3 -14 -8 -6
-5 8 -44 15 -99 19 l-90 7 4 32 c3 30 2 31 -27 27 -23 -3 -30 0 -30 12 0 12 9
15 40 14 22 -1 43 1 46 5 8 8 55 -13 76 -34z m1168 -49 c0 -5 -2 -10 -4 -10
-3 0 -8 5 -11 10 -3 6 -1 10 4 10 6 0 11 -4 11 -10z m-470 -24 c0 -3 -5 -8
-12 -12 -7 -4 -8 -3 -4 4 7 12 16 16 16 8z m-700 -16 c0 -5 -9 -10 -20 -10
-11 0 -20 5 -20 10 0 6 9 10 20 10 11 0 20 -4 20 -10z m856 -12 c-20 -11 -44
1 -25 12 6 5 19 6 27 3 12 -5 12 -7 -2 -15z m-636 -28 c0 -5 -2 -10 -4 -10 -3
0 -8 5 -11 10 -3 6 -1 10 4 10 6 0 11 -4 11 -10z m1430 -30 c11 -7 11 -10 2
-10 -7 0 -32 -18 -54 -40 -23 -22 -48 -40 -55 -40 -22 0 -26 28 -9 56 26 39
83 55 116 34z m37 -102 c10 -14 10 -62 -1 -93 -21 -60 -111 -223 -118 -212 -5
8 -8 9 -8 1 0 -18 -56 -74 -74 -74 -9 0 -20 8 -23 18 -4 9 -11 20 -16 23 -6 4
-3 20 7 40 19 38 34 98 43 174 6 50 29 85 56 85 16 0 40 -24 31 -32 -10 -11
-13 -107 -4 -113 6 -3 10 -3 11 2 0 4 2 17 4 28 2 11 7 43 11 70 5 34 15 57
31 73 27 25 37 27 50 10z m-241 -432 c-3 -14 -14 -26 -22 -26 -11 0 -14 5 -9
18 4 9 10 25 12 35 9 29 27 3 19 -27z m60 -31 c-2 -13 -8 -31 -15 -38 -6 -8
-9 -16 -6 -19 3 -3 -2 -11 -10 -18 -13 -11 -18 -10 -30 6 -21 28 -19 57 3 50
13 -5 22 1 30 19 15 32 31 32 28 0z m-1869 -17 c-3 -8 -6 -5 -6 6 -1 11 2 17
5 13 3 -3 4 -12 1 -19z m1563 -58 c8 -5 11 -12 8 -16 -10 -9 -38 3 -38 16 0
12 10 13 30 0z m234 -15 c-4 -8 -8 -15 -10 -15 -2 0 -4 7 -4 15 0 8 4 15 10
15 5 0 7 -7 4 -15z m-264 -116 c0 -5 -4 -9 -10 -9 -5 0 -10 7 -10 16 0 8 5 12
10 9 6 -3 10 -10 10 -16z m-53 -36 c-4 -3 -7 0 -7 7 0 7 3 10 7 7 3 -4 3 -10
0 -14z m357 -98 c4 -10 -1 -15 -14 -15 -11 0 -20 7 -20 15 0 8 6 15 14 15 8 0
16 -7 20 -15z m-579 -275 c3 -5 4 -10 1 -10 -3 0 -8 5 -11 10 -3 6 -4 10 -1
10 3 0 8 -4 11 -10z m-65 -104 c0 -3 -4 -8 -10 -11 -5 -3 -10 -1 -10 4 0 6 5
11 10 11 6 0 10 -2 10 -4z m347 -43 c-4 -3 -10 -3 -14 0 -3 4 0 7 7 7 7 0 10
-3 7 -7z m-77 -73 c0 -13 -11 -13 -30 0 -12 8 -11 10 8 10 12 0 22 -4 22 -10z
m-63 -37 c-4 -3 -10 -3 -14 0 -3 4 0 7 7 7 7 0 10 -3 7 -7z m-1337 -7 c0 -3
-4 -8 -10 -11 -5 -3 -10 -1 -10 4 0 6 5 11 10 11 6 0 10 -2 10 -4z m60 0 c0
-3 -5 -8 -12 -12 -7 -4 -8 -3 -4 4 7 12 16 16 16 8z m947 -3 c-4 -3 -10 -3
-14 0 -3 4 0 7 7 7 7 0 10 -3 7 -7z m303 -17 c0 -3 -5 -8 -12 -12 -7 -4 -8 -3
-4 4 7 12 16 16 16 8z m-1203 -43 c-4 -3 -10 -3 -14 0 -3 4 0 7 7 7 7 0 10 -3
7 -7z m20 -20 c-4 -3 -10 -3 -14 0 -3 4 0 7 7 7 7 0 10 -3 7 -7z m-7 -63 c0
-5 -2 -10 -4 -10 -3 0 -8 5 -11 10 -3 6 -1 10 4 10 6 0 11 -4 11 -10z m47 -47
c-4 -3 -7 0 -7 7 0 7 3 10 7 7 3 -4 3 -10 0 -14z m53 -57 c0 -3 -5 -8 -12 -12
-7 -4 -8 -3 -4 4 7 12 16 16 16 8z m-33 -33 c-4 -3 -10 -3 -14 0 -3 4 0 7 7 7
7 0 10 -3 7 -7z m-367 -872 c0 -6 -4 -13 -10 -16 -5 -3 -10 1 -10 9 0 9 5 16
10 16 6 0 10 -4 10 -9z m52 -32 c17 -13 27 -27 24 -36 -3 -8 -1 -11 4 -8 6 3
13 -1 16 -9 3 -9 12 -16 20 -16 8 0 14 -4 14 -10 0 -23 -64 5 -83 37 -4 7 -15
13 -22 13 -8 0 -15 4 -15 9 0 5 -3 16 -6 25 -9 22 12 20 48 -5z m60 -121 c-7
-7 -12 -8 -12 -2 0 6 3 14 7 17 3 4 9 5 12 2 2 -3 -1 -11 -7 -17z m-196 -66
c-18 -16 -18 -16 -6 6 6 13 14 21 18 18 3 -4 -2 -14 -12 -24z m174 8 c0 -5 -5
-10 -11 -10 -5 0 -7 5 -4 10 3 6 8 10 11 10 2 0 4 -4 4 -10z m111 -13 c-10 -9
-11 -8 -5 6 3 10 9 15 12 12 3 -3 0 -11 -7 -18z m-31 9 c0 -3 -4 -8 -10 -11
-5 -3 -10 -1 -10 4 0 6 5 11 10 11 6 0 10 -2 10 -4z m143 -73 c-3 -47 -19
-108 -33 -128 -3 -5 -13 -30 -20 -55 -8 -25 -21 -56 -30 -70 -10 -14 -22 -41
-29 -61 -6 -20 -23 -51 -36 -69 -39 -53 -31 -11 14 73 22 40 44 89 49 108 6
19 22 66 36 104 14 39 26 84 26 101 0 30 6 44 20 44 3 0 5 -21 3 -47z m-493
33 c0 -3 -5 -8 -12 -12 -7 -4 -8 -3 -4 4 7 12 16 16 16 8z m340 -3 c0 -5 -5
-15 -10 -23 -8 -12 -10 -11 -10 8 0 12 5 22 10 22 6 0 10 -3 10 -7z m205 -60
c-7 -60 -18 -83 -30 -64 -6 11 23 121 33 121 2 0 1 -26 -3 -57z m-428 20 c-4
-3 -7 0 -7 7 0 7 3 10 7 7 3 -4 3 -10 0 -14z m123 7 c0 -5 -5 -10 -11 -10 -5
0 -7 5 -4 10 3 6 8 10 11 10 2 0 4 -4 4 -10z m31 -53 c-12 -24 -21 -48 -21
-54 0 -14 -29 -72 -41 -78 -17 -11 -9 23 16 71 14 26 25 54 25 63 0 23 33 68
38 53 2 -7 -6 -32 -17 -55z m-111 44 c0 -12 -20 -25 -27 -18 -7 7 6 27 18 27
5 0 9 -4 9 -9z m255 -48 l-16 -28 7 35 c8 44 17 60 22 38 2 -9 -4 -29 -13 -45z
m-229 21 c-4 -9 -9 -15 -11 -12 -3 3 -3 13 1 22 4 9 9 15 11 12 3 -3 3 -13 -1
-22z m504 22 c0 -3 -34 -82 -71 -163 -11 -24 -24 -43 -29 -43 -6 0 -10 -6 -10
-13 0 -20 -28 -73 -45 -87 -8 -7 -15 -9 -15 -6 0 7 86 184 107 221 7 11 15 37
18 58 4 28 11 37 25 37 11 0 20 -2 20 -4z m50 -41 c-10 -11 -20 -27 -22 -35
-2 -8 -13 -29 -25 -47 -13 -17 -23 -38 -23 -46 0 -8 -23 -54 -51 -103 -29 -49
-65 -118 -81 -153 -18 -41 -32 -61 -38 -55 -10 10 8 64 22 64 3 0 9 13 13 29
3 16 13 35 21 42 8 6 14 19 14 28 0 9 5 22 11 28 23 23 127 228 133 263 2 14
5 26 5 28 1 1 10 -3 21 -10 19 -12 19 -13 0 -33z m-526 -21 c-9 -21 -19 -34
-21 -27 -5 14 28 92 33 77 3 -6 -3 -28 -12 -50z m97 13 c-8 -8 -11 -5 -11 9 0
27 14 41 18 19 2 -9 -1 -22 -7 -28z m54 -11 c-4 -25 -11 -46 -17 -46 -5 0 -8
-7 -6 -16 2 -10 -3 -19 -9 -21 -17 -6 -16 16 2 51 8 15 15 38 15 50 0 22 10
40 17 32 3 -2 1 -25 -2 -50z m-265 26 c0 -5 -7 -17 -16 -28 -14 -17 -15 -17
-10 -1 3 10 6 23 6 28 0 5 5 9 10 9 6 0 10 -4 10 -8z m714 0 c2 -4 -7 -23 -21
-41 -15 -18 -46 -72 -70 -120 -25 -47 -51 -91 -59 -97 -8 -6 -14 -17 -14 -23
0 -16 -28 -72 -49 -96 -10 -11 -23 -39 -29 -61 -11 -39 -37 -73 -47 -62 -3 2
25 62 62 134 36 71 74 145 84 165 10 19 25 41 33 49 9 7 16 16 16 20 0 4 14
37 30 74 27 60 50 80 64 58z m-658 -58 c-8 -21 -15 -31 -15 -22 -1 21 18 72
24 66 3 -3 -1 -22 -9 -44z m703 37 c8 -6 10 -11 3 -15 -17 -10 -64 -84 -100
-158 -18 -36 -40 -69 -48 -72 -25 -9 -15 17 31 87 25 38 45 72 45 76 0 14 41
91 48 91 4 0 13 -4 21 -9z m-889 -5 c0 -3 -5 -8 -12 -12 -7 -4 -8 -3 -4 4 7
12 16 16 16 8z m40 -6 c0 -5 -5 -10 -11 -10 -5 0 -7 5 -4 10 3 6 8 10 11 10 2
0 4 -4 4 -10z m-73 -7 c-4 -3 -10 -3 -14 0 -3 4 0 7 7 7 7 0 10 -3 7 -7z m167
-39 c-9 -21 -19 -34 -21 -27 -5 13 26 78 33 70 2 -2 -3 -21 -12 -43z m789 0
c-10 -21 -26 -40 -35 -42 -15 -3 -16 0 -7 27 10 28 47 66 56 57 3 -2 -4 -21
-14 -42z m-373 8 c0 -20 -38 -84 -44 -74 -7 12 23 82 36 82 4 0 8 -4 8 -8z
m440 1 c0 -3 -11 -21 -25 -39 -14 -18 -25 -37 -25 -43 0 -6 -16 -35 -35 -66
-19 -30 -40 -66 -45 -79 -7 -20 -50 -56 -50 -43 0 11 85 165 107 195 22 29 29
47 32 75 1 9 41 10 41 0z m-902 -25 c-2 -6 -10 -14 -16 -16 -7 -2 -10 2 -6 12
7 18 28 22 22 4z m938 -3 c-1 -8 -12 -25 -24 -38 -12 -13 -22 -29 -22 -36 0
-15 -71 -162 -87 -179 -6 -6 -15 -21 -18 -32 -3 -11 -10 -20 -15 -20 -4 0 -11
-10 -15 -22 -4 -14 -8 -18 -11 -11 -7 16 51 134 116 238 27 44 53 88 56 98 8
21 23 23 20 2z m-685 -80 c-18 -47 -41 -79 -41 -57 0 6 6 26 14 44 8 18 17 41
20 51 3 10 10 16 15 13 5 -4 2 -26 -8 -51z m133 -67 c-36 -57 -42 -35 -7 28
18 32 29 43 31 32 2 -9 -9 -36 -24 -60z m-1237 -15 c-4 -3 -7 0 -7 7 0 7 3 10
7 7 3 -4 3 -10 0 -14z m1183 -88 c-7 -9 -15 -13 -17 -11 -7 7 7 26 19 26 6 0
6 -6 -2 -15z m-1183 -312 c-4 -3 -7 0 -7 7 0 7 3 10 7 7 3 -4 3 -10 0 -14z
m63 -84 c0 -6 -4 -7 -10 -4 -5 3 -10 11 -10 16 0 6 5 7 10 4 6 -3 10 -11 10
-16z m117 -66 c-4 -3 -7 0 -7 7 0 7 3 10 7 7 3 -4 3 -10 0 -14z m863 7 c0 -5
-5 -10 -11 -10 -5 0 -7 5 -4 10 3 6 8 10 11 10 2 0 4 -4 4 -10z m37 -57 c-4
-3 -7 0 -7 7 0 7 3 10 7 7 3 -4 3 -10 0 -14z m-407 -48 c-7 -9 -15 -13 -18
-10 -3 2 1 11 8 20 7 9 15 13 18 10 3 -2 -1 -11 -8 -20z m337 -12 c-4 -3 -7 0
-7 7 0 7 3 10 7 7 3 -4 3 -10 0 -14z m63 3 c0 -3 -4 -8 -10 -11 -5 -3 -10 -1
-10 4 0 6 5 11 10 11 6 0 10 -2 10 -4z m146 -52 c-6 -16 -26 -19 -26 -5 0 5 5
22 12 38 11 27 12 27 16 5 2 -13 1 -30 -2 -38z m-106 29 c-1 -10 -7 -31 -16
-48 l-14 -30 6 30 c4 17 6 38 6 48 0 9 3 17 9 17 5 0 9 -8 9 -17z m-63 -25
c-3 -8 -6 -5 -6 6 -1 11 2 17 5 13 3 -3 4 -12 1 -19z m-277 -22 c0 -3 -4 -8
-10 -11 -5 -3 -10 -1 -10 4 0 6 5 11 10 11 6 0 10 -2 10 -4z m411 -79 c-16
-16 -20 -5 -8 23 9 22 11 23 14 6 3 -10 0 -23 -6 -29z m-401 19 c0 -3 -4 -8
-10 -11 -5 -3 -10 -1 -10 4 0 6 5 11 10 11 6 0 10 -2 10 -4z m34 -31 c-9 -14
-21 -25 -26 -25 -10 0 8 28 27 42 16 12 16 9 -1 -17z m313 3 c-3 -8 -6 -5 -6
6 -1 11 2 17 5 13 3 -3 4 -12 1 -19z m-263 -17 c-13 -25 -44 -50 -44 -35 0 9
44 63 52 63 3 1 0 -12 -8 -28z m368 7 c-7 -7 -12 -8 -12 -2 0 14 12 26 19 19
2 -3 -1 -11 -7 -17z m-349 -65 c-21 -33 -33 -43 -53 -43 -9 0 0 14 23 36 20
19 37 41 38 47 0 9 2 9 5 0 3 -6 -3 -24 -13 -40z m76 -83 c-13 -22 -29 -40
-36 -40 -11 0 1 30 35 85 4 6 7 13 8 18 4 20 7 20 11 0 2 -13 -6 -41 -18 -63z
m-59 20 c-12 -16 -28 -30 -36 -30 -10 0 -5 13 18 41 36 45 52 36 18 -11z m99
-58 c-16 -31 -28 -42 -48 -42 -8 0 0 14 18 35 17 20 31 41 32 48 0 8 2 8 6 -1
3 -8 -1 -26 -8 -40z m208 16 c-3 -7 -5 -2 -5 12 0 14 2 19 5 13 2 -7 2 -19 0
-25z m63 22 c0 -5 -4 -10 -10 -10 -5 0 -10 5 -10 10 0 6 5 10 10 10 6 0 10 -4
10 -10z m184 -52 c-6 -72 -12 -98 -25 -98 -7 0 -9 13 -5 38 4 20 9 54 12 75 9
56 23 44 18 -15z m-297 25 c-4 -3 -7 0 -7 7 0 7 3 10 7 7 3 -4 3 -10 0 -14z
m100 -10 c-4 -3 -7 0 -7 7 0 7 3 10 7 7 3 -4 3 -10 0 -14z m120 -10 c-4 -3 -7
0 -7 7 0 7 3 10 7 7 3 -4 3 -10 0 -14z m-327 -23 c0 -5 -4 -10 -10 -10 -5 0
-10 5 -10 10 0 6 5 10 10 10 6 0 10 -4 10 -10z m42 -12 c-7 -7 -12 -8 -12 -2
0 14 12 26 19 19 2 -3 -1 -11 -7 -17z m-77 -39 c-10 -15 -25 -10 -19 6 4 8 10
12 15 9 5 -3 7 -10 4 -15z m60 -19 c3 -5 1 -10 -4 -10 -6 0 -11 5 -11 10 0 6
2 10 4 10 3 0 8 -4 11 -10z m48 -39 c-10 -17 -24 -31 -31 -31 -8 0 -3 14 14
35 32 42 42 40 17 -4z m51 -44 c-3 -9 -12 -17 -20 -17 -11 0 -11 5 -2 25 12
27 33 20 22 -8z m71 24 c3 -5 0 -13 -6 -16 -5 -4 -9 -12 -6 -19 2 -6 -5 -19
-15 -28 -17 -17 -18 -17 -18 0 0 9 7 26 15 36 8 10 12 23 9 27 -3 5 -1 9 5 9
5 0 12 -4 16 -9z m59 -37 c-1 -14 -10 -34 -19 -44 -9 -9 -15 -23 -13 -30 2 -7
-3 -15 -9 -17 -18 -6 -16 13 3 42 9 13 13 29 9 34 -8 13 13 53 24 47 5 -3 7
-17 5 -32z m201 6 c3 -5 -1 -10 -10 -10 -9 0 -13 5 -10 10 3 6 8 10 10 10 2 0
7 -4 10 -10z m-158 -37 c-4 -3 -7 0 -7 7 0 7 3 10 7 7 3 -4 3 -10 0 -14z m130
-20 c-4 -3 -7 0 -7 7 0 7 3 10 7 7 3 -4 3 -10 0 -14z m-131 -47 c-16 -38 -36
-48 -36 -17 0 22 42 79 47 64 2 -6 -3 -27 -11 -47z m64 -18 c0 -35 -16 -56
-31 -41 -10 10 -10 18 1 38 17 31 30 32 30 3z"/>
<path d="M2914 5448 c-4 -7 -3 -8 4 -4 12 7 16 16 8 16 -3 0 -8 -5 -12 -12z"/>
<path d="M2981 5384 c0 -11 3 -14 6 -6 3 7 2 16 -1 19 -3 4 -6 -2 -5 -13z"/>
<path d="M3013 5323 c4 -3 10 -3 14 0 3 4 0 7 -7 7 -7 0 -10 -3 -7 -7z"/>
<path d="M1757 5219 c6 -23 9 -24 16 -5 3 8 0 17 -7 19 -10 4 -12 -1 -9 -14z"/>
<path d="M1773 5033 c4 -3 10 -3 14 0 3 4 0 7 -7 7 -7 0 -10 -3 -7 -7z"/>
<path d="M2981 4794 c0 -11 3 -14 6 -6 3 7 2 16 -1 19 -3 4 -6 -2 -5 -13z"/>
<path d="M2515 4770 c3 -5 11 -10 16 -10 6 0 7 5 4 10 -3 6 -11 10 -16 10 -6
0 -7 -4 -4 -10z"/>
<path d="M2600 4750 c0 -5 5 -10 10 -10 6 0 10 5 10 10 0 6 -4 10 -10 10 -5 0
-10 -4 -10 -10z"/>
<path d="M2900 4715 c0 -8 9 -15 20 -15 24 0 27 15 4 24 -22 9 -24 8 -24 -9z"/>
<path d="M3135 4610 c-3 -5 -1 -10 4 -10 6 0 11 5 11 10 0 6 -2 10 -4 10 -3 0
-8 -4 -11 -10z"/>
<path d="M3220 4609 c0 -5 5 -7 10 -4 6 3 10 8 10 11 0 2 -4 4 -10 4 -5 0 -10
-5 -10 -11z"/>
<path d="M2643 4543 c4 -3 10 -3 14 0 3 4 0 7 -7 7 -7 0 -10 -3 -7 -7z"/>
<path d="M1856 4494 c-5 -14 -4 -15 9 -4 17 14 19 20 6 20 -5 0 -12 -7 -15
-16z"/>
<path d="M2466 4035 c-20 -7 -46 -19 -58 -27 -13 -8 -37 -17 -54 -21 -34 -6
-115 9 -124 24 -4 5 -17 11 -30 14 -31 6 -159 9 -165 4 -12 -13 31 -70 61 -81
19 -7 34 -16 34 -20 0 -14 30 -9 36 7 5 11 9 12 19 2 7 -7 11 -15 9 -19 -2 -4
5 -9 16 -13 11 -4 18 -10 15 -15 -3 -4 -1 -19 4 -32 9 -21 11 -19 15 14 0 6
24 19 51 28 44 16 127 53 177 81 29 15 58 11 51 -7 -5 -14 -2 -16 22 -10 38
10 85 44 85 62 0 10 -13 14 -42 15 -24 1 -53 3 -64 4 -12 1 -38 -3 -58 -10z"/>
<path d="M3173 4023 c4 -3 10 -3 14 0 3 4 0 7 -7 7 -7 0 -10 -3 -7 -7z"/>
<path d="M2420 3930 c0 -7 3 -10 7 -7 3 4 3 10 0 14 -4 3 -7 0 -7 -7z"/>
<path d="M2162 3898 c5 -15 28 -23 28 -10 0 5 -7 13 -16 16 -10 4 -14 1 -12
-6z"/>
<path d="M3065 3870 c-3 -5 -1 -10 4 -10 6 0 11 5 11 10 0 6 -2 10 -4 10 -3 0
-8 -4 -11 -10z"/>
<path d="M2180 3859 c0 -5 5 -7 10 -4 6 3 10 8 10 11 0 2 -4 4 -10 4 -5 0 -10
-5 -10 -11z"/>
<path d="M2195 3830 c-3 -5 1 -10 10 -10 9 0 13 5 10 10 -3 6 -8 10 -10 10 -2
0 -7 -4 -10 -10z"/>
<path d="M1957 3763 c-4 -3 -7 -11 -7 -17 0 -6 5 -5 12 2 6 6 9 14 7 17 -3 3
-9 2 -12 -2z"/>
<path d="M1986 3754 c-9 -8 -16 -23 -16 -32 0 -14 -2 -15 -9 -3 -8 12 -12 12
-25 2 -20 -17 -21 -41 -2 -41 8 0 16 -7 20 -15 3 -8 15 -15 26 -15 11 0 28 -9
37 -20 10 -11 23 -20 30 -20 7 0 13 -10 13 -22 0 -28 49 -56 62 -35 6 9 10 9
16 0 5 -8 13 -9 22 -3 8 6 11 10 5 10 -20 1 -45 28 -40 42 6 14 64 15 170 4
22 -3 82 4 135 15 52 10 116 22 141 25 42 5 47 4 52 -17 5 -19 8 -20 21 -9 9
7 16 9 16 4 0 -4 12 4 28 18 15 14 37 29 48 32 12 4 24 15 27 26 6 25 -24 35
-55 19 -22 -12 -200 -15 -219 -3 -5 2 -33 -6 -63 -20 -72 -33 -121 -35 -178
-7 -43 20 -50 21 -105 9 -54 -12 -73 -14 -113 -9 -8 0 -20 13 -27 27 -9 20 -9
26 3 31 16 6 19 23 5 23 -5 0 -17 -7 -25 -16z"/>
<path d="M2585 3589 c7 -11 35 -12 35 -1 0 4 -9 8 -20 9 -11 1 -18 -2 -15 -8z"/>
<path d="M2565 3560 c3 -5 8 -10 11 -10 2 0 4 5 4 10 0 6 -5 10 -11 10 -5 0
-7 -4 -4 -10z"/>
<path d="M2200 3496 c0 -2 7 -6 15 -10 8 -3 15 -1 15 4 0 6 -7 10 -15 10 -8 0
-15 -2 -15 -4z"/>
<path d="M2574 3478 c-4 -7 -3 -8 4 -4 7 4 12 9 12 12 0 8 -9 4 -16 -8z"/>
<path d="M2136 3455 c-5 -15 8 -19 44 -16 11 1 10 -2 -4 -14 -19 -14 -19 -15
10 -40 22 -19 40 -25 75 -25 25 0 49 -3 52 -7 13 -12 61 -12 70 0 7 9 10 9 13
0 4 -8 13 -9 27 -4 12 4 28 6 35 4 6 -3 12 0 12 5 0 6 14 13 30 17 17 4 30 11
30 16 0 6 5 7 10 4 6 -4 10 7 10 24 0 30 -13 41 -25 21 -4 -6 -14 -4 -28 4
-17 11 -57 14 -164 13 -77 -1 -139 1 -136 6 2 4 -9 7 -25 7 -17 0 -32 -6 -36
-15z m41 -2 c-4 -3 -10 -3 -14 0 -3 4 0 7 7 7 7 0 10 -3 7 -7z"/>
<path d="M2780 3400 c-8 -5 -12 -11 -9 -14 2 -3 11 -1 19 4 8 5 12 11 9 14 -2
3 -11 1 -19 -4z"/>
<path d="M2010 3386 c0 -2 7 -9 15 -16 13 -11 14 -10 9 4 -5 14 -24 23 -24 12z"/>
<path d="M2010 3310 c0 -7 3 -10 7 -7 3 4 3 10 0 14 -4 3 -7 0 -7 -7z"/>
<path d="M1670 3080 c0 -7 3 -10 7 -7 3 4 3 10 0 14 -4 3 -7 0 -7 -7z"/>
<path d="M1700 3070 c0 -11 2 -20 4 -20 2 0 6 9 9 20 3 11 1 20 -4 20 -5 0 -9
-9 -9 -20z"/>
<path d="M1600 2670 c0 -7 3 -10 7 -7 3 4 3 10 0 14 -4 3 -7 0 -7 -7z"/>
<path d="M3227 2382 c-35 -20 -43 -28 -30 -31 10 -2 21 -8 25 -15 6 -8 8 -8 8
1 0 8 11 12 28 11 35 -2 47 -9 32 -18 -7 -5 7 -17 40 -33 59 -30 71 -27 114
24 25 30 26 33 10 50 -41 45 -155 51 -227 11z"/>
<path d="M3335 2230 c3 -5 11 -10 16 -10 6 0 7 5 4 10 -3 6 -11 10 -16 10 -6
0 -7 -4 -4 -10z"/>
<path d="M662 1592 c-16 -2 -22 -8 -18 -19 3 -8 6 -17 6 -19 0 -3 10 4 22 16
25 23 23 27 -10 22z"/>
<path d="M543 1558 c-5 -7 -9 -30 -8 -51 l0 -38 80 -3 c75 -3 158 15 124 26
-12 4 -12 8 1 23 14 17 13 18 -9 12 -13 -3 -33 -1 -45 5 -52 27 -57 28 -75 18
-14 -7 -22 -6 -31 5 -15 18 -25 19 -37 3z m36 -27 c7 -5 12 -14 9 -21 -2 -7
-10 -4 -22 9 -19 21 -12 28 13 12z"/>
<path d="M2304 1428 c-10 -24 -27 -52 -36 -62 -10 -11 -18 -30 -18 -42 0 -12
-6 -27 -14 -33 -8 -7 -17 -23 -20 -36 -4 -14 -20 -46 -36 -71 -16 -26 -27 -50
-25 -54 3 -5 -3 -25 -12 -46 -9 -22 -17 -41 -18 -44 -1 -3 -11 -27 -23 -53
-23 -51 -28 -77 -13 -77 7 0 41 68 118 240 14 30 36 80 51 110 35 76 81 210
72 210 -4 0 -15 -19 -26 -42z"/>
<path d="M835 1410 c3 -6 -5 -10 -19 -10 -18 0 -24 -4 -20 -15 5 -11 -1 -15
-20 -16 -45 -2 -49 -4 -53 -16 -3 -8 9 -11 36 -9 45 3 53 -10 22 -38 -18 -16
-19 -16 -25 9 -5 21 -9 23 -20 13 -12 -11 -12 -14 0 -21 8 -4 14 -13 14 -18 0
-6 -4 -8 -9 -5 -12 8 -41 -4 -41 -16 0 -5 9 -7 20 -3 16 5 19 3 13 -11 -4 -12
-3 -15 5 -10 16 10 15 -7 0 -23 -11 -10 -8 -11 14 -6 23 6 26 4 21 -13 -3 -12
-11 -18 -18 -16 -8 3 -12 -4 -11 -23 1 -15 -6 -34 -14 -41 -8 -8 -9 -11 -2 -7
20 10 14 -2 -19 -34 -36 -36 -37 -37 -35 -13 0 10 -5 16 -14 14 -11 -2 -11 1
3 12 16 12 16 14 1 20 -25 10 -34 7 -34 -10 0 -9 -7 -22 -16 -29 -15 -10 -13
-13 13 -18 24 -5 34 -15 47 -46 9 -23 18 -41 21 -41 2 0 2 6 -1 14 -3 9 1 13
12 13 16 -2 25 11 55 74 4 8 3 22 -2 31 -11 19 4 68 15 50 11 -18 28 -14 24 6
-1 9 6 33 17 52 47 80 53 97 50 130 -2 22 3 43 14 55 15 19 15 19 -4 5 -11 -8
-26 -21 -32 -29 -11 -13 -13 -13 -13 1 0 9 5 20 10 23 13 8 13 25 -1 25 -5 0
-7 -4 -4 -10z m2 -97 c-4 -3 -10 -3 -14 0 -3 4 0 7 7 7 7 0 10 -3 7 -7z m-97
-263 c0 -5 -4 -10 -10 -10 -5 0 -10 5 -10 10 0 6 5 10 10 10 6 0 10 -4 10 -10z"/>
<path d="M583 1383 c4 -3 10 -3 14 0 3 4 0 7 -7 7 -7 0 -10 -3 -7 -7z"/>
<path d="M876 1365 c-9 -26 -7 -32 5 -12 6 10 9 21 6 23 -2 3 -7 -2 -11 -11z"/>
<path d="M661 1341 c-8 -6 -9 -11 -3 -15 6 -3 14 -1 17 5 9 14 2 20 -14 10z"/>
<path d="M2914 1285 c-13 -41 -4 -46 14 -8 14 31 15 43 4 43 -4 0 -12 -16 -18
-35z"/>
<path d="M601 1286 c-12 -14 -11 -19 5 -30 24 -18 25 -16 16 18 -7 25 -9 27
-21 12z"/>
<path d="M533 1243 c4 -3 10 -3 14 0 3 4 0 7 -7 7 -7 0 -10 -3 -7 -7z"/>
<path d="M563 1233 c-22 -8 -14 -26 8 -20 15 4 19 2 15 -9 -3 -8 -4 -14 -2
-14 3 0 11 -3 20 -6 11 -4 14 0 13 15 -1 12 -5 21 -10 21 -4 0 -5 5 -2 10 6
10 -20 12 -42 3z"/>
<path d="M2900 1210 c0 -7 3 -10 7 -7 3 4 3 10 0 14 -4 3 -7 0 -7 -7z"/>
<path d="M3697 1183 c-4 -3 -7 -11 -7 -17 0 -6 5 -5 12 2 6 6 9 14 7 17 -3 3
-9 2 -12 -2z"/>
<path d="M3714 1165 c-4 -8 -14 -15 -23 -15 -25 0 -32 -10 -20 -31 7 -15 6
-19 -6 -19 -8 0 -15 -5 -15 -11 0 -5 -4 -7 -10 -4 -9 5 -15 -24 -11 -48 1 -5
-3 -6 -9 -2 -5 3 -10 -1 -10 -9 0 -9 -4 -16 -9 -16 -5 0 -12 -18 -16 -40 -4
-22 -12 -43 -19 -47 -19 -12 -56 -70 -49 -77 3 -3 1 -6 -6 -6 -7 0 -10 -4 -6
-9 3 -5 1 -12 -5 -16 -5 -3 -10 -24 -10 -45 0 -21 -6 -41 -12 -43 -10 -4 -10
-8 1 -15 10 -7 12 -15 5 -24 -6 -7 -9 -24 -8 -38 2 -14 -1 -34 -6 -45 -11 -26
-24 -78 -21 -88 1 -5 -7 -23 -18 -41 -16 -26 -19 -39 -12 -64 8 -25 6 -30 -5
-25 -8 3 -14 -1 -14 -11 0 -9 -6 -16 -12 -16 -9 0 -10 -3 -2 -8 15 -10 14 -42
-2 -42 -13 0 -29 -44 -25 -72 1 -11 -4 -18 -13 -18 -19 0 -22 -20 -3 -20 6 -1
0 -7 -15 -15 -15 -8 -29 -24 -33 -35 -3 -11 -15 -25 -26 -31 -12 -6 -18 -17
-15 -25 3 -8 -1 -14 -8 -14 -8 0 -13 -8 -11 -18 1 -9 0 -12 -2 -5 -2 6 -12 11
-21 11 -9 0 -24 1 -32 3 -9 3 -16 -5 -18 -19 -2 -14 -14 -27 -29 -33 -32 -12
-23 -24 12 -15 14 4 25 13 25 21 0 8 5 15 11 15 6 0 8 -9 4 -20 -6 -20 -2 -20
374 -20 335 0 380 2 375 15 -5 11 -2 13 10 9 12 -5 16 0 16 19 0 16 10 31 26
42 25 16 26 16 19 -4 -9 -29 17 -18 30 12 6 12 14 21 20 19 5 -2 12 4 15 13 7
19 83 50 88 36 3 -9 82 25 82 35 0 2 -10 9 -22 13 -16 6 -28 4 -40 -7 -16 -14
-18 -13 -18 5 0 29 -34 35 -55 11 -12 -14 -23 -18 -42 -14 -17 5 -23 3 -18 -5
5 -8 1 -9 -14 -4 -15 5 -21 2 -21 -9 0 -18 -8 -20 -30 -6 -9 6 -17 5 -21 -1
-3 -6 -19 -12 -35 -14 -16 -2 -39 -6 -51 -10 -17 -6 -23 -3 -23 9 0 10 -9 16
-25 16 -27 0 -34 17 -10 26 8 4 15 12 15 20 0 7 10 22 22 34 12 11 19 23 15
26 -3 3 6 18 21 32 15 15 40 44 55 64 18 22 34 35 43 31 9 -3 14 2 14 15 0 14
-7 20 -25 20 -14 0 -25 -3 -25 -7 0 -4 -9 -7 -20 -7 -19 0 -19 0 0 21 11 12
20 26 20 33 0 19 -28 2 -33 -20 -3 -11 -10 -17 -16 -13 -6 3 -9 11 -6 16 4 5
-1 17 -10 26 -10 10 -14 25 -11 39 3 12 1 24 -5 26 -17 6 -18 41 -2 67 14 22
14 24 0 18 -9 -3 -19 -2 -22 3 -3 5 -13 6 -22 3 -12 -5 -15 -2 -11 14 4 16 1
19 -18 15 -25 -4 -34 13 -11 21 7 2 8 8 3 13 -5 5 -11 4 -13 -4 -3 -7 -16 -17
-30 -23 -13 -5 -22 -13 -19 -18 9 -14 -22 -34 -41 -26 -10 4 -13 9 -7 12 13 4
6 53 -7 53 -14 0 -11 43 6 90 8 23 13 45 10 50 -6 10 17 70 28 70 4 0 5 5 2
10 -3 6 -17 10 -31 10 -20 0 -24 5 -24 28 0 15 4 32 8 38 5 5 15 29 22 54 15
51 40 101 55 112 6 4 2 8 -8 8 -10 0 -20 -7 -23 -15z m-34 -245 c0 -5 -4 -10
-9 -10 -6 0 -13 5 -16 10 -3 6 1 10 9 10 9 0 16 -4 16 -10z m147 -317 c-4 -3
-7 0 -7 7 0 7 3 10 7 7 3 -4 3 -10 0 -14z m43 -147 c0 -3 -4 -8 -10 -11 -5 -3
-10 -1 -10 4 0 6 5 11 10 11 6 0 10 -2 10 -4z m37 -63 c-4 -3 -7 0 -7 7 0 7 3
10 7 7 3 -4 3 -10 0 -14z m-72 -243 c3 -5 1 -10 -4 -10 -6 0 -11 5 -11 10 0 6
2 10 4 10 3 0 8 -4 11 -10z m-548 -67 c-4 -3 -10 -3 -14 0 -3 4 0 7 7 7 7 0
10 -3 7 -7z"/>
<path d="M630 1153 c0 -13 5 -23 10 -23 13 0 13 11 0 30 -8 12 -10 11 -10 -7z"/>
<path d="M596 1134 c-8 -22 1 -31 16 -16 9 9 9 15 1 23 -7 7 -12 5 -17 -7z"/>
<path d="M200 1000 c0 -7 3 -10 7 -7 3 4 3 10 0 14 -4 3 -7 0 -7 -7z"/>
<path d="M710 959 c0 -5 5 -7 10 -4 6 3 10 8 10 11 0 2 -4 4 -10 4 -5 0 -10
-5 -10 -11z"/>
<path d="M753 943 c4 -3 10 -3 14 0 3 4 0 7 -7 7 -7 0 -10 -3 -7 -7z"/>
<path d="M274 918 c-4 -7 -3 -8 4 -4 12 7 16 16 8 16 -3 0 -8 -5 -12 -12z"/>
<path d="M736 915 c-3 -8 -1 -15 4 -15 6 0 10 7 10 15 0 8 -2 15 -4 15 -2 0
-6 -7 -10 -15z"/>
<path d="M678 907 c12 -5 22 -14 22 -19 0 -4 7 -8 15 -8 8 0 15 3 15 8 -1 17
-17 27 -45 28 -28 2 -29 1 -7 -9z"/>
<path d="M460 885 c0 -8 2 -15 4 -15 2 0 6 7 10 15 3 8 1 15 -4 15 -6 0 -10
-7 -10 -15z"/>
<path d="M90 820 c0 -7 3 -10 7 -7 3 4 3 10 0 14 -4 3 -7 0 -7 -7z"/>
<path d="M120 779 c0 -5 4 -8 9 -5 5 3 11 -3 14 -14 3 -11 11 -20 19 -20 10 0
9 3 -2 10 -8 5 -11 10 -6 10 11 0 -14 30 -25 30 -5 0 -9 -5 -9 -11z"/>
<path d="M3753 754 c0 -7 6 -15 14 -18 7 -3 13 1 13 8 0 8 -6 16 -13 19 -8 3
-14 -1 -14 -9z"/>
<path d="M190 710 c0 -5 5 -10 10 -10 6 0 10 -7 10 -15 0 -8 5 -15 10 -15 18
0 11 29 -10 40 -14 7 -20 7 -20 0z"/>
<path d="M0 639 c0 -5 5 -7 10 -4 5 3 10 8 10 11 0 2 -4 4 -10 4 -5 0 -10 -5
-10 -11z"/>
<path d="M420 600 c0 -7 3 -10 7 -7 3 4 3 10 0 14 -4 3 -7 0 -7 -7z"/>
<path d="M3920 550 c0 -7 3 -10 7 -7 3 4 3 10 0 14 -4 3 -7 0 -7 -7z"/>
<path d="M4030 470 c0 -7 3 -10 7 -7 3 4 3 10 0 14 -4 3 -7 0 -7 -7z"/>
<path d="M310 440 c0 -7 3 -10 7 -7 3 4 3 10 0 14 -4 3 -7 0 -7 -7z"/>
<path d="M4246 208 c10 -10 20 -15 23 -10 3 5 21 9 39 8 17 -1 31 3 29 9 -2 5
-27 10 -55 11 -51 1 -52 1 -36 -18z"/>
<path d="M4380 218 c0 -3 -3 -13 -6 -22 -5 -14 -3 -14 25 0 37 19 40 32 6 30
-14 0 -25 -4 -25 -8z"/>
<path d="M3300 199 c0 -5 5 -7 10 -4 6 3 10 8 10 11 0 2 -4 4 -10 4 -5 0 -10
-5 -10 -11z"/>
<path d="M3107 83 c-4 -3 -7 -13 -7 -21 0 -9 3 -12 7 -9 3 4 12 2 19 -4 19
-15 28 8 10 26 -16 17 -20 18 -29 8z"/>
<path d="M4423 83 c4 -3 10 -3 14 0 3 4 0 7 -7 7 -7 0 -10 -3 -7 -7z"/>
<path d="M2610 70 c0 -7 3 -10 7 -7 3 4 3 10 0 14 -4 3 -7 0 -7 -7z"/>
<path d="M4335 70 c3 -5 8 -10 11 -10 2 0 4 5 4 10 0 6 -5 10 -11 10 -5 0 -7
-4 -4 -10z"/>
<path d="M4480 70 c0 -7 3 -10 7 -7 3 4 3 10 0 14 -4 3 -7 0 -7 -7z"/>
<path d="M4252 25 c0 -17 2 -22 5 -12 2 9 2 23 0 30 -3 6 -5 -1 -5 -18z"/>
<path d="M4390 31 c0 -10 8 -21 18 -23 17 -5 17 -2 8 18 -13 29 -26 31 -26 5z"/>
<path d="M4438 33 c6 -2 18 -2 25 0 6 3 1 5 -13 5 -14 0 -19 -2 -12 -5z"/>
<path d="M4455 10 c-3 -5 -1 -10 4 -10 6 0 11 5 11 10 0 6 -2 10 -4 10 -3 0
-8 -4 -11 -10z"/>
</g>
</svg>
