<?xml version="1.0" standalone="no"?>
<!DOCTYPE svg PUBLIC "-//W3C//DTD SVG 20010904//EN"
 "http://www.w3.org/TR/2001/REC-SVG-20010904/DTD/svg10.dtd">
<svg version="1.0" xmlns="http://www.w3.org/2000/svg"
 width="1350.000000pt" height="2481.000000pt" viewBox="0 0 1350.000000 2481.000000"
 preserveAspectRatio="xMidYMid meet">
<metadata>
Created by potrace 1.10, written by Peter Selinger 2001-2011
</metadata>
<g transform="translate(0.000000,2481.000000) scale(0.100000,-0.100000)"
fill="#34181f" stroke="none">
<path d="M0 13839 c0 -7016 3 -10968 10 -10964 5 3 12 22 16 43 4 20 12 44 19
52 7 8 18 32 25 53 11 34 20 42 77 69 64 29 68 30 127 18 98 -20 158 -39 177
-56 35 -32 155 5 173 53 3 8 1 23 -4 33 -6 10 -10 32 -10 47 0 16 -5 34 -11
40 -8 8 -8 21 0 45 5 18 15 54 22 81 6 26 15 47 19 47 4 0 18 9 31 21 20 18
32 20 79 15 30 -4 62 -13 71 -22 9 -8 34 -20 55 -26 21 -5 61 -30 90 -54 28
-24 60 -44 71 -44 12 0 34 -22 61 -60 31 -44 49 -60 66 -60 23 0 46 -33 46
-65 0 -8 9 -15 20 -15 33 0 106 -86 151 -179 11 -24 29 -46 39 -48 10 -3 21
-15 24 -28 3 -13 20 -33 36 -45 18 -13 30 -30 30 -43 0 -22 53 -87 71 -87 6 0
19 -20 30 -45 11 -25 35 -60 53 -78 17 -18 35 -40 39 -50 3 -9 15 -17 26 -17
14 0 27 -14 42 -43 12 -23 27 -49 34 -57 7 -8 15 -27 19 -43 6 -24 9 -26 28
-16 20 11 21 10 13 -22 -14 -61 -12 -84 8 -82 21 1 46 -43 31 -57 -5 -5 -25
-5 -44 -1 -28 5 -35 11 -35 31 0 19 -6 26 -26 28 -14 2 -31 -4 -39 -12 -7 -9
-21 -16 -30 -16 -23 0 -80 -32 -80 -44 0 -6 10 -20 22 -33 17 -18 20 -28 12
-40 -16 -26 -33 -27 -45 -1 -6 14 -24 29 -41 34 -41 12 -60 41 -35 55 21 12
22 27 1 50 -22 24 -11 49 21 49 22 0 25 -4 25 -34 0 -29 4 -35 27 -41 21 -5
31 -2 38 11 5 9 21 30 34 46 l24 29 -22 22 c-22 21 -23 22 -36 3 -8 -10 -16
-24 -18 -30 -3 -7 -8 -8 -15 -1 -8 8 -4 25 13 60 31 63 31 65 0 65 -18 0 -25
-5 -25 -20 0 -13 -7 -20 -21 -20 -24 0 -51 56 -47 98 4 35 -28 43 -41 10 -10
-26 -8 -156 3 -203 6 -23 3 -37 -12 -55 l-19 -24 -32 31 c-22 22 -31 41 -31
63 0 29 -2 32 -26 27 -19 -3 -29 2 -41 19 -8 13 -30 33 -48 44 -23 14 -36 32
-42 58 -6 27 -15 38 -30 40 -13 2 -25 14 -32 33 -8 25 -15 29 -45 29 -38 0
-47 15 -20 34 19 14 9 46 -14 46 -9 0 -38 23 -63 51 l-46 51 -36 -13 c-32 -11
-39 -11 -56 5 -28 25 -66 18 -66 -13 0 -33 29 -50 55 -33 17 11 20 10 20 -8 0
-10 9 -24 20 -30 26 -14 26 -47 0 -55 -11 -3 -20 -11 -20 -16 0 -15 29 -22 43
-10 10 8 20 3 42 -19 16 -17 33 -30 37 -30 15 0 68 -43 68 -55 0 -16 43 -55
61 -55 8 0 20 5 27 12 6 6 15 9 18 5 9 -9 -4 -39 -15 -33 -5 3 -14 0 -20 -8
-17 -20 27 -109 49 -100 35 15 46 13 64 -13 12 -16 20 -45 21 -73 1 -54 9 -70
36 -70 29 0 34 -26 13 -65 -15 -28 -16 -36 -5 -49 19 -23 36 -20 55 9 9 14 23
25 31 25 11 0 14 -15 11 -75 -1 -41 -5 -78 -10 -82 -4 -4 8 -14 26 -23 36 -17
36 -18 22 -121 -5 -42 -9 -47 -36 -53 -54 -11 -61 -8 -54 19 5 21 2 27 -20 37
-27 13 -36 7 -63 -40 -12 -22 -95 9 -99 37 -4 24 -19 26 -45 6 -26 -19 -69 0
-65 28 2 16 -7 22 -50 33 -77 20 -92 30 -92 64 0 21 -9 36 -33 54 -19 15 -39
26 -46 26 -6 0 -15 8 -18 17 -10 27 -66 72 -89 73 -12 0 -27 7 -34 15 -7 8
-25 15 -41 15 -22 0 -30 -6 -35 -24 -11 -45 -1 -70 38 -89 33 -16 64 -56 104
-132 6 -11 31 -30 57 -43 53 -25 71 -51 69 -101 -2 -57 47 -93 78 -56 11 13
16 13 47 0 20 -8 43 -15 53 -15 11 0 26 -15 37 -37 11 -21 29 -42 41 -48 36
-16 33 -65 -5 -65 -7 0 -13 -4 -13 -9 0 -11 -78 -91 -89 -91 -5 0 -11 7 -15
15 -7 20 -23 19 -30 -3 -6 -19 -88 -48 -105 -37 -6 3 -11 15 -11 26 0 12 -7
19 -20 19 -11 0 -20 -4 -20 -10 0 -5 -9 -10 -19 -10 -27 0 -131 41 -131 51 0
5 -9 9 -20 9 -10 0 -24 9 -30 19 -6 13 -23 21 -47 23 -35 3 -38 6 -51 51 -7
26 -19 47 -25 47 -7 0 -33 20 -58 43 -48 46 -80 59 -142 58 -31 -1 -40 2 -44
18 -3 11 -14 23 -25 27 -11 3 -29 15 -39 25 -23 23 -35 24 -71 5 -16 -9 -30
-11 -33 -5 -4 5 -1 9 6 9 7 0 5 6 -6 14 -16 11 -24 11 -53 -1 -44 -18 -49 -12
-20 27 23 31 23 32 3 45 -11 8 -26 19 -33 25 -9 8 -15 5 -22 -15 -6 -15 -10
-33 -10 -42 0 -8 -9 -17 -20 -20 -11 -3 -20 -14 -20 -25 0 -15 5 -18 19 -13
11 3 22 1 26 -5 4 -6 18 -15 31 -20 14 -6 26 -20 30 -37 10 -50 13 -53 41 -53
49 0 58 -13 45 -58 -7 -22 -12 -44 -12 -49 0 -15 45 -32 67 -27 12 3 35 -5 57
-20 20 -13 42 -27 49 -30 8 -3 7 -8 -5 -16 -10 -6 -18 -20 -18 -30 0 -23 35
-44 53 -33 6 4 26 8 42 9 17 1 40 5 51 9 18 6 25 0 43 -37 26 -55 26 -63 1
-88 -16 -16 -19 -28 -14 -60 6 -36 9 -39 31 -34 27 7 73 -13 73 -31 0 -7 -7
-18 -15 -25 -8 -7 -15 -25 -15 -40 0 -17 -12 -39 -31 -60 -28 -28 -35 -31 -51
-21 -23 14 -48 -1 -48 -29 0 -22 -19 -38 -58 -49 -26 -8 -35 -5 -68 26 -21 19
-51 41 -67 49 -15 8 -32 26 -37 39 -6 17 -17 25 -32 25 -13 0 -40 5 -61 11
-31 8 -36 13 -28 28 14 26 1 36 -51 38 l-48 1 0 -539 0 -539 2939 0 c2931 0
2940 0 2946 20 3 11 15 25 26 31 17 9 19 17 14 50 -4 25 -3 39 4 39 6 0 13 11
17 25 7 28 14 31 32 13 17 -17 15 -46 -4 -66 -15 -14 -15 -17 0 -27 10 -8 16
-27 16 -49 l0 -36 64 0 c64 0 65 0 74 33 6 17 11 39 11 47 0 8 3 60 6 115 3
55 10 128 16 162 8 46 8 71 0 94 -8 22 -8 36 -1 44 11 13 8 159 -5 285 -6 54
-4 68 9 79 16 14 21 42 9 54 -3 4 -20 -12 -36 -34 -24 -32 -31 -53 -32 -94 -1
-29 -10 -67 -19 -85 -12 -24 -13 -37 -5 -46 6 -7 8 -18 4 -24 -10 -16 -65 -41
-76 -35 -13 9 -1 125 16 145 7 9 17 81 24 169 11 127 17 161 36 198 17 30 26
67 29 116 9 131 25 218 51 276 22 48 25 69 23 131 -3 69 -5 75 -30 90 -36 19
-49 6 -55 -57 -3 -26 -10 -53 -14 -59 -5 -6 -16 -34 -24 -62 -8 -27 -22 -55
-30 -62 -10 -8 -15 -31 -15 -66 0 -38 -5 -59 -17 -72 -10 -10 -26 -35 -36 -56
-42 -90 -76 5 -41 114 10 30 22 60 26 66 5 6 4 24 -2 38 -16 42 -12 76 15 154
14 39 25 78 25 86 0 27 -41 106 -55 106 -19 0 -34 -30 -33 -66 1 -38 -19 -99
-38 -114 -8 -7 -14 -29 -14 -51 0 -21 -4 -41 -10 -44 -5 -3 -10 -21 -10 -39 0
-19 -7 -39 -15 -46 -8 -7 -15 -27 -15 -45 0 -25 -8 -40 -31 -60 -24 -20 -29
-29 -20 -38 19 -19 13 -106 -10 -139 -19 -26 -24 -28 -36 -16 -12 12 -12 29
-3 103 6 49 16 95 21 102 17 19 42 124 43 179 0 28 7 57 13 66 28 33 43 90 43
161 0 69 -2 75 -34 110 -40 44 -46 45 -46 11 0 -14 -9 -37 -20 -51 -11 -14
-20 -36 -20 -49 0 -12 -5 -35 -12 -51 -15 -37 -47 -146 -59 -203 -5 -25 -16
-50 -24 -56 -13 -10 -13 -16 -4 -37 10 -21 8 -33 -10 -71 -15 -31 -22 -62 -21
-98 2 -79 -34 -208 -58 -208 -6 0 -10 26 -10 58 0 31 -1 66 -2 77 -3 33 16
117 35 153 11 22 18 64 21 125 7 159 19 225 60 324 7 17 14 59 15 93 2 55 0
64 -22 81 -13 11 -33 18 -43 16 -16 -2 -19 -12 -22 -64 -2 -36 -9 -72 -18 -85
-9 -13 -16 -43 -16 -69 0 -28 -6 -51 -14 -58 -8 -7 -24 -44 -37 -84 -12 -40
-26 -76 -31 -82 -4 -5 -8 -25 -8 -45 0 -27 -8 -44 -31 -68 -35 -35 -55 -43
-40 -14 5 10 12 47 16 82 12 118 41 237 80 330 34 78 33 189 -2 222 -17 16
-26 19 -35 10 -16 -16 -38 -77 -52 -147 -13 -63 -60 -167 -83 -187 -9 -7 -17
-8 -23 -2 -14 14 6 120 30 161 14 24 22 61 27 123 5 79 4 91 -17 129 -17 30
-33 44 -58 51 -19 5 -42 16 -52 25 -12 11 -31 15 -55 13 -36 -3 -39 -5 -52
-53 -8 -27 -18 -68 -23 -90 -28 -128 -65 -225 -87 -225 -16 0 -17 42 -2 57 7
7 13 40 15 73 2 34 9 72 17 83 38 61 54 214 25 243 -20 20 -40 13 -93 -30
l-30 -25 -1 65 c-1 77 -21 106 -68 102 -26 -3 -35 4 -69 49 -30 40 -48 54 -73
59 -20 4 -55 25 -83 50 -27 24 -54 44 -61 44 -6 0 -24 14 -41 32 -27 30 -31
32 -60 21 -38 -15 -52 -8 -44 19 9 27 -18 54 -61 62 -23 5 -45 20 -71 51 -20
25 -42 45 -49 45 -6 0 -44 32 -84 70 -43 42 -81 70 -94 70 -24 0 -106 72 -106
94 0 22 -49 56 -82 56 -24 0 -29 5 -35 31 -4 23 -16 35 -52 53 -54 28 -78 52
-83 85 -1 13 -10 27 -18 31 -22 10 -81 36 -112 48 -21 9 -27 19 -30 49 -3 33
-6 38 -31 41 -19 2 -32 12 -39 30 -7 15 -20 34 -31 43 -11 9 -24 43 -33 84
-15 72 -24 85 -61 85 -17 0 -25 8 -31 33 -5 20 -18 37 -36 45 -15 8 -32 26
-38 40 -6 15 -23 52 -36 82 -14 30 -31 71 -37 90 -6 19 -18 36 -28 38 -25 5
-61 -37 -82 -93 -9 -28 -30 -78 -46 -111 -16 -34 -29 -66 -29 -72 0 -6 -12
-24 -26 -41 -18 -22 -24 -38 -20 -54 6 -25 -18 -95 -58 -171 -14 -27 -26 -61
-26 -76 0 -15 -7 -33 -15 -40 -8 -7 -15 -20 -15 -30 0 -11 -10 -20 -25 -24
-23 -6 -25 -10 -19 -42 6 -32 4 -36 -26 -47 -25 -9 -31 -17 -27 -34 2 -13 -2
-28 -9 -34 -8 -6 -11 -16 -8 -21 3 -5 3 -20 0 -32 -4 -17 -15 -26 -41 -30 -42
-8 -53 -28 -34 -62 11 -21 11 -29 -3 -52 -9 -15 -28 -33 -41 -40 -14 -7 -29
-21 -32 -32 -7 -24 -14 -24 -39 -5 -11 8 -26 15 -33 15 -15 0 -18 -36 -3 -45
6 -3 10 -17 10 -30 0 -27 -33 -43 -53 -26 -10 7 -26 -3 -63 -39 -53 -52 -99
-77 -109 -60 -11 18 -35 11 -35 -10 0 -10 -10 -29 -22 -40 l-23 -21 -5 23 c-6
26 -54 38 -73 19 -6 -6 -19 -11 -29 -11 -29 0 -23 -44 7 -58 14 -6 25 -16 25
-21 0 -5 7 -17 16 -25 14 -14 18 -14 45 -1 22 12 29 22 29 46 0 26 3 30 23 27
19 -3 22 -8 19 -40 -1 -20 2 -39 8 -43 5 -3 10 -31 10 -61 0 -47 -3 -55 -17
-52 -9 2 -21 18 -25 36 -7 27 -13 32 -39 32 -19 0 -32 6 -36 18 -14 37 -67 45
-78 12 -7 -24 -50 -28 -58 -5 -8 19 -85 58 -103 51 -8 -3 -14 -12 -14 -20 0
-14 -29 -26 -62 -26 -31 0 -19 29 17 44 19 8 35 19 35 25 0 5 7 17 16 25 17
17 8 21 -15 7 -8 -5 -20 -7 -28 -4 -15 6 -18 39 -3 48 21 13 8 32 -36 54 -34
18 -44 27 -39 40 18 41 17 51 -2 51 -10 0 -24 -5 -30 -11 -12 -12 -43 24 -43
52 0 9 -11 21 -25 27 -23 11 -25 16 -19 47 l6 35 -55 -6 -54 -6 1 38 c1 34 -3
41 -36 63 -21 13 -38 32 -38 42 0 10 -9 23 -19 29 -12 6 -21 23 -23 42 -2 27
-10 36 -46 54 -52 26 -82 52 -93 82 -10 27 -29 29 -29 4 0 -25 -29 -82 -41
-82 -5 0 -12 8 -15 18 -3 9 -10 25 -15 34 -5 11 -5 19 1 23 18 11 11 35 -10
35 -11 0 -25 11 -33 25 -7 14 -28 34 -47 44 -33 17 -35 22 -36 72 -1 32 4 62
12 74 8 11 14 35 14 55 0 19 3 45 6 58 12 44 107 70 134 37 7 -8 20 -15 29
-15 9 0 41 -13 72 -29 43 -22 61 -26 80 -19 13 6 43 8 66 5 36 -4 44 -1 62 24
12 15 21 41 21 58 0 17 6 31 16 35 13 5 14 9 4 21 -7 8 -16 15 -21 15 -33 0
-65 69 -39 85 5 3 10 23 10 44 0 30 -4 40 -20 44 -16 4 -18 10 -12 28 12 31
30 35 34 7 2 -16 11 -24 28 -27 26 -3 90 -58 90 -78 0 -6 16 -30 35 -53 19
-23 35 -49 35 -57 0 -8 6 -13 12 -10 8 3 12 19 10 46 -2 30 1 41 12 41 8 0 16
-5 18 -12 2 -6 12 -9 21 -5 35 13 -8 106 -50 107 -7 0 -17 9 -23 21 -9 16 -18
19 -36 15 -19 -5 -24 -2 -24 12 0 10 -7 27 -15 38 -22 30 -18 59 10 72 14 6
25 18 25 27 0 22 -78 75 -111 75 -33 0 -43 13 -46 60 -1 19 -7 80 -12 135 -14
138 -6 185 43 266 109 179 163 259 208 311 27 32 56 78 64 102 12 34 38 65
109 133 52 48 122 107 157 131 166 112 214 142 228 142 36 0 72 36 94 95 26
67 46 145 46 175 0 11 9 39 19 62 11 24 26 63 34 88 23 69 46 132 61 165 18
38 59 146 79 205 8 25 22 65 30 90 28 81 47 156 47 186 0 16 9 43 19 60 10 17
25 58 31 90 13 58 85 223 122 276 10 14 18 35 18 46 0 10 25 56 55 102 31 45
62 94 70 109 7 14 30 44 51 66 20 22 48 64 61 93 15 34 34 59 53 70 17 9 33
25 36 34 3 9 26 39 51 65 45 48 73 85 127 172 15 25 44 63 62 84 19 20 34 41
34 46 0 5 13 14 29 21 16 6 32 22 35 34 3 13 16 34 29 47 13 13 35 42 49 64
14 22 33 46 42 54 9 7 16 19 16 25 1 20 66 114 99 142 19 15 40 43 48 61 7 19
20 36 28 39 16 6 65 89 65 110 0 14 50 79 127 163 28 31 80 90 115 131 42 49
81 83 114 100 30 15 79 56 124 105 97 104 132 128 170 120 27 -6 30 -4 30 17
0 33 68 98 102 98 14 0 37 9 51 20 14 11 34 20 46 20 11 0 24 7 29 15 6 12 14
14 33 6 21 -8 22 -10 7 -16 -10 -4 -18 -13 -18 -21 0 -19 40 -18 68 2 16 11
35 14 60 10 20 -3 44 -7 52 -7 8 -1 22 -7 30 -14 8 -7 28 -13 44 -13 27 0 56
-23 56 -44 0 -16 -32 -7 -49 14 -26 31 -51 18 -51 -26 0 -23 -6 -39 -17 -45
-17 -10 -17 -12 0 -25 10 -8 27 -12 37 -9 15 4 18 11 14 33 -4 15 -1 30 4 34
13 8 25 -25 17 -46 -3 -8 7 -25 25 -41 22 -20 30 -36 30 -61 0 -19 5 -38 11
-42 17 -10 59 17 59 38 0 10 5 18 11 18 7 0 9 -11 4 -33 -14 -69 -17 -117 -7
-117 6 0 14 -9 17 -20 4 -13 15 -20 31 -20 30 0 34 -36 4 -45 -26 -8 -25 -26
2 -60 21 -27 21 -28 2 -42 -16 -12 -20 -12 -30 2 -15 21 -34 19 -34 -4 0 -10
-7 -24 -15 -31 -17 -14 -20 -50 -5 -50 6 0 15 12 20 26 10 25 12 25 33 11 18
-11 22 -24 22 -62 0 -48 6 -56 48 -69 9 -3 17 -15 17 -27 0 -26 42 -63 52 -46
14 22 8 45 -13 50 -17 5 -19 10 -13 29 4 13 8 41 8 63 1 52 21 52 21 0 0 -40
31 -95 54 -95 6 0 17 -13 26 -30 9 -16 18 -30 22 -30 3 0 24 15 47 33 39 32
78 57 90 57 2 0 6 -12 8 -27 2 -24 7 -28 31 -26 19 1 27 -3 28 -15 1 -9 2 -21
4 -27 1 -5 3 -16 3 -24 2 -11 6 -11 20 2 32 29 40 21 27 -28 -6 -25 -16 -50
-23 -57 -15 -15 -16 -50 -1 -65 9 -9 6 -21 -10 -48 -11 -20 -21 -43 -21 -51 0
-8 -13 -17 -31 -21 -40 -8 -49 -31 -19 -55 19 -16 21 -22 12 -46 -6 -15 -20
-59 -31 -98 -12 -40 -30 -79 -43 -91 -13 -11 -47 -45 -75 -74 -29 -30 -60 -61
-69 -69 -26 -26 -59 -83 -72 -128 -7 -24 -28 -60 -46 -80 -18 -20 -50 -66 -71
-102 -21 -36 -57 -85 -80 -110 -41 -45 -117 -152 -165 -235 -56 -97 -72 -122
-101 -160 -16 -22 -37 -51 -46 -65 -10 -14 -30 -40 -45 -58 -15 -18 -28 -37
-28 -43 0 -15 -49 -88 -112 -164 -118 -143 -128 -157 -128 -169 0 -7 -9 -24
-20 -38 -19 -25 -37 -69 -65 -159 -8 -25 -24 -58 -35 -72 -12 -14 -29 -46 -40
-70 -11 -24 -27 -50 -35 -57 -8 -7 -15 -23 -15 -36 0 -15 -13 -33 -36 -51 -39
-29 -84 -93 -84 -117 0 -9 -31 -46 -68 -83 -40 -39 -74 -83 -80 -103 -7 -20
-25 -44 -42 -55 -17 -11 -40 -34 -50 -51 -11 -16 -35 -45 -55 -62 -19 -18 -35
-38 -35 -45 0 -20 -129 -184 -207 -263 -28 -29 -61 -70 -72 -92 -11 -22 -55
-82 -98 -133 -100 -120 -153 -201 -153 -233 0 -9 15 -17 41 -21 28 -5 43 -14
50 -29 6 -12 31 -33 57 -46 31 -17 48 -33 52 -50 3 -14 16 -29 28 -35 12 -5
22 -19 22 -30 0 -39 23 -59 63 -52 25 4 39 1 48 -9 18 -22 35 -17 63 19 14 17
32 40 40 49 22 24 46 74 46 93 0 10 6 31 14 48 7 18 22 55 33 82 14 36 25 51
41 53 18 3 22 -2 22 -22 0 -14 -4 -27 -9 -31 -5 -3 -17 -29 -27 -57 -9 -29
-27 -73 -40 -98 -12 -25 -25 -59 -29 -77 -3 -17 -13 -37 -21 -44 -8 -6 -14
-18 -14 -27 0 -8 -7 -23 -16 -33 -9 -10 -14 -25 -10 -34 5 -14 8 -14 32 1 14
10 37 35 50 56 27 43 60 53 49 16 -4 -13 -15 -35 -26 -50 -10 -15 -19 -37 -19
-50 0 -13 -11 -43 -25 -67 -29 -50 -32 -76 -9 -67 9 3 20 6 24 6 15 0 81 108
96 157 8 26 20 54 28 62 7 9 16 28 20 43 7 31 65 90 79 81 20 -12 0 -92 -33
-133 -58 -73 -80 -110 -80 -135 0 -13 -4 -27 -10 -30 -5 -3 -17 -30 -26 -60
-8 -30 -20 -57 -25 -60 -5 -4 -9 -10 -9 -15 0 -5 13 -1 30 8 16 9 30 22 30 29
0 7 25 31 55 53 56 42 80 73 72 94 -3 7 3 30 14 52 10 21 18 45 19 53 0 15 59
123 71 131 4 3 9 21 11 40 2 23 8 35 18 35 16 0 16 -42 -1 -60 -5 -5 -9 -27
-9 -50 0 -22 -7 -53 -15 -69 -38 -72 -60 -112 -71 -126 -6 -8 -18 -33 -27 -56
-8 -22 -30 -64 -47 -94 -35 -59 -38 -105 -6 -105 18 0 22 4 45 55 15 32 30 58
59 97 12 17 22 40 22 51 0 10 14 38 30 60 21 30 30 53 30 81 0 23 6 44 16 52
9 8 27 30 40 51 45 71 101 60 69 -14 -28 -68 -66 -140 -96 -183 -16 -22 -40
-71 -54 -110 -15 -38 -42 -93 -61 -120 -28 -42 -33 -57 -28 -83 4 -18 12 -32
20 -32 15 0 51 43 60 73 4 12 22 43 40 68 19 26 34 54 34 63 0 9 4 16 8 16 5
0 19 19 32 43 13 23 34 55 47 70 14 17 23 42 23 61 0 22 8 40 25 56 l25 23 0
-24 c0 -35 -25 -148 -43 -189 -23 -57 -25 -62 -71 -145 -69 -124 -98 -184 -94
-195 2 -5 18 0 36 11 46 30 139 176 189 298 23 57 49 111 57 120 9 10 16 25
16 34 0 9 9 31 20 49 11 18 20 42 20 53 0 11 14 40 30 65 16 25 30 54 30 64 0
16 41 119 70 176 4 8 16 15 26 15 35 0 30 -59 -10 -125 -20 -32 -36 -69 -36
-82 0 -35 -38 -131 -60 -149 -12 -10 -22 -36 -26 -70 -7 -56 -46 -150 -70
-170 -8 -6 -14 -17 -14 -23 0 -6 -21 -51 -45 -101 -25 -49 -45 -98 -45 -107 0
-9 -11 -29 -24 -45 -30 -36 -67 -109 -59 -117 19 -19 55 -3 83 36 16 22 30 46
30 52 0 6 20 28 45 51 36 32 47 49 54 88 5 28 19 60 34 75 13 15 32 39 42 55
38 60 48 10 14 -69 -12 -27 -36 -67 -54 -89 -35 -45 -55 -87 -55 -115 0 -11
-14 -46 -30 -78 -31 -57 -32 -92 -5 -92 27 0 73 51 105 117 18 37 38 75 45 83
7 8 16 26 20 39 4 14 21 46 36 72 16 25 29 56 29 68 0 27 21 68 70 141 20 30
42 72 49 92 7 21 17 40 22 43 5 4 9 15 9 26 0 12 16 49 36 85 19 35 43 97 53
137 21 87 65 155 88 135 17 -14 11 -62 -16 -123 -10 -22 -28 -69 -40 -105 -33
-97 -44 -122 -63 -150 -10 -13 -18 -34 -18 -46 0 -12 -7 -27 -15 -34 -8 -7
-15 -25 -15 -41 0 -15 -6 -32 -13 -36 -8 -4 -27 -35 -44 -68 -17 -33 -40 -78
-51 -100 -12 -22 -47 -96 -78 -165 -32 -69 -63 -132 -71 -141 -20 -24 -43
-119 -28 -119 15 0 64 53 109 122 42 62 59 74 75 54 8 -10 4 -34 -15 -92 -15
-43 -31 -86 -36 -94 -23 -41 -31 -61 -25 -66 14 -14 48 11 88 64 54 71 107
127 115 120 3 -4 0 -34 -7 -68 -8 -43 -21 -73 -41 -95 -33 -39 -38 -85 -8 -85
27 0 58 35 88 100 13 30 35 66 48 80 24 27 84 137 84 157 0 6 14 23 30 37 17
14 33 39 36 55 4 17 13 36 20 42 8 6 14 19 14 28 0 9 12 34 25 56 14 22 25 49
25 60 0 11 14 40 30 64 17 25 33 56 36 70 5 26 17 54 33 81 5 8 19 42 31 75
21 55 43 95 92 167 10 15 21 42 25 60 3 18 23 59 45 91 23 34 37 65 34 74 -4
9 -2 30 3 47 9 28 20 78 36 162 3 18 21 49 38 69 26 30 37 36 55 31 20 -7 21
-12 17 -73 -2 -36 -10 -73 -18 -82 -20 -24 -47 -86 -47 -109 0 -11 -11 -27
-24 -35 -14 -10 -26 -30 -30 -51 -4 -19 -18 -60 -31 -91 -14 -31 -25 -65 -25
-76 0 -11 -16 -53 -35 -92 -19 -39 -35 -77 -35 -84 0 -22 -30 -76 -61 -108
-15 -17 -35 -50 -44 -75 -9 -24 -24 -54 -34 -65 -10 -11 -30 -42 -44 -70 -13
-27 -34 -69 -46 -91 -12 -23 -21 -53 -21 -67 0 -15 -9 -31 -25 -41 -14 -9 -25
-25 -25 -35 0 -24 -37 -71 -56 -71 -10 0 -14 -13 -14 -45 0 -51 -39 -157 -70
-190 -11 -12 -24 -45 -30 -74 -5 -29 -12 -57 -15 -62 -4 -5 0 -9 8 -9 17 0 97
84 97 102 0 8 11 29 23 48 13 19 54 94 92 165 70 135 132 235 147 235 31 0
-23 -173 -65 -209 -10 -7 -17 -22 -17 -33 0 -19 -33 -108 -51 -138 -11 -19
-74 -150 -82 -170 -3 -8 -12 -32 -21 -52 -9 -21 -12 -39 -6 -43 14 -8 88 74
95 106 4 16 12 32 19 36 7 5 24 24 40 45 35 48 54 54 66 23 7 -18 4 -34 -12
-67 -41 -83 -45 -93 -51 -128 -3 -19 -8 -43 -12 -52 -10 -24 8 -23 50 5 21 14
40 38 50 65 14 35 39 62 58 62 3 0 7 -14 11 -32 6 -31 -25 -151 -45 -173 -5
-5 -9 -19 -9 -32 0 -52 57 -9 111 85 47 81 99 185 99 198 0 6 7 17 15 24 8 7
15 22 15 33 0 28 46 121 96 192 22 33 44 72 48 87 3 15 22 39 42 54 30 23 34
31 29 56 -9 41 14 88 86 176 7 9 15 9 30 1 16 -8 19 -17 14 -39 -9 -41 -40
-100 -69 -134 -14 -16 -26 -36 -26 -45 0 -9 -16 -39 -35 -68 -19 -28 -44 -80
-56 -115 -12 -35 -30 -74 -40 -87 -11 -13 -19 -29 -19 -36 0 -7 -9 -24 -20
-38 -11 -14 -23 -40 -27 -57 -3 -17 -12 -34 -19 -37 -8 -3 -14 -20 -14 -40 0
-21 -9 -47 -24 -66 -13 -18 -29 -50 -36 -72 -7 -22 -23 -61 -36 -86 -13 -26
-24 -54 -24 -63 0 -16 27 -21 45 -8 21 15 69 87 104 155 20 40 51 94 69 120
17 26 32 61 32 76 0 16 7 34 14 41 8 6 20 28 27 48 6 20 19 46 28 57 43 51 75
112 72 137 -1 17 6 39 18 54 12 15 21 32 21 39 0 7 14 29 30 50 17 21 30 45
30 55 0 9 22 45 50 81 27 35 50 74 50 87 0 30 56 139 90 177 15 17 31 43 34
59 9 36 58 86 85 86 12 0 21 -4 21 -8 0 -17 -50 -136 -64 -151 -8 -9 -30 -47
-49 -85 -21 -40 -47 -75 -64 -85 -29 -18 -53 -81 -53 -139 0 -15 -4 -32 -9
-37 -4 -6 -28 -48 -52 -93 -29 -56 -53 -88 -71 -98 -21 -11 -28 -22 -28 -43 0
-61 -110 -286 -153 -313 -5 -3 -14 -31 -18 -62 -4 -31 -18 -78 -30 -104 -43
-88 -69 -175 -57 -189 6 -7 14 -13 19 -13 15 0 78 94 79 116 0 11 11 35 25 54
14 19 25 38 25 44 0 18 83 191 102 212 10 12 24 39 29 60 6 21 23 55 38 74 15
19 33 51 41 70 7 19 19 42 27 51 7 9 20 38 28 65 19 64 68 124 102 124 24 0
25 -2 20 -37 -4 -20 -19 -55 -36 -77 -16 -23 -43 -73 -61 -111 -17 -39 -38
-82 -46 -97 -8 -14 -14 -37 -14 -50 0 -12 -7 -34 -14 -48 -8 -14 -30 -54 -48
-90 -18 -35 -48 -87 -65 -114 -24 -36 -33 -62 -33 -91 0 -22 -8 -51 -17 -65
-9 -13 -21 -44 -25 -69 -5 -25 -11 -58 -15 -74 -4 -20 -1 -27 10 -27 20 0 33
18 47 65 13 46 31 76 81 136 20 24 40 55 43 69 24 87 127 309 163 350 12 14
31 36 42 50 l20 25 1 -32 c0 -17 -4 -34 -9 -37 -4 -3 -11 -23 -15 -43 -7 -47
-48 -177 -69 -218 -8 -16 -22 -43 -30 -60 -45 -83 -77 -160 -77 -185 0 -15
-11 -52 -24 -81 -30 -69 -37 -101 -27 -117 17 -28 44 6 109 137 51 105 73 139
95 149 26 13 27 16 21 61 -5 39 -2 56 20 99 14 28 26 59 26 68 0 9 20 43 45
76 25 33 45 66 45 73 0 15 42 114 70 166 11 20 20 44 20 53 0 9 11 33 24 54
12 20 26 48 31 61 4 12 17 38 29 55 11 18 32 52 46 75 14 23 35 58 48 77 12
19 22 43 22 53 0 10 6 24 14 30 8 7 18 27 21 44 4 18 18 49 31 69 13 21 24 41
24 44 0 4 6 15 14 23 18 20 86 150 86 165 0 6 10 27 22 46 13 19 32 62 43 95
21 60 21 60 68 67 85 12 126 77 207 331 5 15 18 42 28 60 11 18 25 50 32 72 7
22 27 65 45 95 18 30 40 79 49 108 8 29 24 66 36 81 11 16 20 35 20 42 0 7 14
44 31 83 29 67 42 94 94 192 12 23 25 50 28 60 3 11 12 30 20 44 7 14 34 68
60 120 25 52 62 129 82 170 20 41 43 86 50 100 72 131 113 211 124 240 8 19
24 49 36 65 29 39 65 110 65 128 0 25 146 302 203 385 31 46 57 88 57 93 0 5
16 32 35 60 19 28 35 57 35 65 0 7 19 33 42 58 24 25 59 67 78 93 19 26 61 73
93 105 31 32 57 61 57 64 0 11 239 243 285 276 43 31 54 46 77 110 15 40 42
89 60 110 120 134 195 224 214 257 12 22 36 60 53 84 17 25 31 48 31 52 0 6
60 98 90 137 11 15 28 44 36 65 9 21 31 61 48 88 59 92 66 104 66 122 0 9 15
33 34 53 31 32 102 146 181 291 16 31 54 91 83 134 28 43 52 83 52 89 0 7 11
28 26 47 14 19 50 86 80 149 30 63 60 124 66 135 7 11 18 34 26 50 9 17 24 41
34 54 10 13 18 30 18 38 0 7 8 26 17 40 35 53 104 271 125 393 5 30 14 71 19
90 8 30 6 37 -11 49 -17 11 -19 21 -13 70 5 56 5 59 -30 94 -43 42 -69 100
-61 133 3 13 1 37 -5 54 -14 40 -8 52 38 73 45 20 68 21 101 2 14 -8 42 -14
62 -15 49 0 99 -25 124 -61 10 -16 30 -33 44 -39 77 -31 180 -150 180 -207 0
-22 7 -37 20 -45 25 -16 25 -29 0 -51 -29 -24 -25 -77 9 -146 16 -32 37 -89
47 -127 9 -38 20 -76 25 -84 35 -60 79 -154 79 -166 0 -23 66 -140 137 -241
60 -86 94 -120 150 -150 29 -15 111 -82 188 -153 107 -99 248 -198 366 -255
109 -54 142 -73 243 -140 25 -16 74 -48 110 -70 36 -22 66 -43 66 -46 0 -4 51
-39 113 -80 61 -40 123 -83 137 -95 42 -37 216 -123 262 -130 64 -9 252 -55
263 -63 19 -15 104 -31 162 -31 32 0 93 -9 136 -19 61 -15 88 -27 127 -60 27
-22 53 -41 59 -41 8 0 11 2385 11 8220 l0 8220 -6750 0 -6750 0 0 -10971z
m8046 3033 c23 6 50 8 60 4 18 -7 18 -8 -4 -26 l-22 -18 70 -27 c38 -15 72
-30 75 -35 11 -18 84 -48 104 -43 13 3 29 -1 39 -10 21 -19 119 -63 161 -72
20 -4 37 -17 46 -35 8 -16 27 -35 42 -42 16 -7 32 -23 38 -36 6 -13 19 -22 32
-22 25 0 29 -10 13 -26 -8 -8 0 -19 24 -37 19 -15 39 -27 45 -27 18 0 81 -62
81 -80 0 -10 -7 -23 -15 -30 -28 -23 -16 -33 32 -27 27 3 56 1 65 -4 13 -7 20
-4 28 11 13 24 60 28 60 5 0 -8 -5 -23 -11 -33 -15 -23 2 -86 24 -90 13 -3 17
4 17 26 0 16 7 35 15 42 8 7 15 23 15 36 0 35 15 36 44 3 29 -32 46 -31 46 4
0 34 12 46 38 36 30 -11 28 -24 -9 -57 l-31 -27 26 -28 c14 -15 26 -32 26 -36
0 -8 69 -26 75 -19 14 16 13 48 -2 63 -16 17 -18 16 -34 -4 -22 -27 -29 -27
-29 2 0 25 22 49 54 61 14 5 17 12 12 31 -7 28 17 37 28 10 3 -8 13 -15 21
-15 12 0 15 -6 10 -20 -4 -14 -2 -20 8 -20 8 0 20 -7 27 -15 9 -11 8 -19 -4
-37 -9 -12 -16 -37 -16 -56 0 -37 -40 -97 -71 -107 -27 -9 -24 -33 5 -41 22
-5 24 -9 15 -32 -5 -14 -7 -38 -4 -54 6 -27 -1 -34 -28 -29 -4 1 -21 -6 -37
-14 -34 -18 -38 -44 -15 -89 19 -36 19 -56 0 -56 -9 0 -15 -9 -15 -25 0 -23
-2 -24 -44 -19 -39 6 -46 4 -61 -19 -16 -25 -15 -27 6 -56 16 -22 20 -34 12
-42 -7 -7 -15 -6 -26 5 -9 9 -27 16 -41 16 -32 0 -35 -30 -8 -75 19 -30 18
-30 -9 -58 -34 -34 -29 -59 11 -51 39 8 46 -11 16 -41 -15 -14 -26 -29 -26
-33 0 -4 -9 -15 -20 -25 -26 -22 -25 -35 5 -49 14 -6 27 -23 30 -39 4 -16 13
-29 21 -29 9 0 14 -11 14 -29 0 -17 4 -32 9 -36 5 -3 21 -26 35 -52 20 -35 25
-54 20 -80 -7 -35 -14 -39 -43 -23 -10 5 -35 11 -56 13 -27 3 -47 15 -75 43
-51 53 -116 73 -164 50 -19 -9 -39 -16 -45 -16 -6 0 -10 -3 -10 -7 4 -24 -7
-29 -71 -31 -39 -1 -84 -9 -100 -17 -20 -10 -43 -13 -74 -9 -33 5 -52 2 -69
-9 -14 -9 -34 -13 -46 -10 -12 3 -36 -1 -54 -8 -17 -8 -55 -12 -83 -11 -59 4
-111 -15 -160 -58 -19 -16 -43 -30 -54 -30 -25 0 -61 -16 -140 -62 -51 -29
-71 -48 -93 -87 -19 -34 -32 -48 -42 -44 -8 3 -15 11 -15 19 0 18 -21 18 -45
1 -19 -15 -13 -37 11 -37 8 0 14 -2 14 -3 0 -9 -34 -74 -47 -88 -10 -12 -11
-23 -3 -43 13 -35 13 -36 -5 -36 -8 0 -18 12 -21 27 -8 30 -96 123 -116 123
-22 0 -35 -14 -51 -51 -8 -19 -28 -51 -43 -70 -45 -52 -79 -119 -61 -119 8 0
20 -7 27 -15 14 -17 8 -19 -43 -15 -30 2 -77 -32 -77 -55 0 -7 18 -24 40 -39
48 -32 106 -35 115 -7 3 10 14 26 24 35 16 15 19 15 36 -4 13 -14 30 -20 59
-20 l41 1 -28 24 c-15 14 -34 25 -42 25 -21 0 -36 35 -26 61 l8 23 11 -21 c14
-26 74 -47 108 -39 22 6 25 11 19 36 -6 26 -4 30 14 30 11 0 32 -15 47 -35 29
-38 48 -44 62 -19 7 13 13 14 30 5 11 -6 37 -11 57 -11 28 0 44 -7 65 -30 15
-16 35 -30 43 -30 17 0 62 56 77 95 6 17 20 27 39 31 18 4 31 14 35 26 4 18
10 20 43 15 29 -5 46 -2 68 13 20 13 33 16 41 9 9 -8 21 -4 43 12 21 15 37 20
55 15 22 -5 60 6 118 35 10 5 25 9 33 9 9 0 29 7 45 15 26 13 34 14 58 2 34
-18 138 -21 175 -6 25 11 31 9 56 -15 31 -30 48 -32 79 -11 19 14 24 14 52 0
24 -13 29 -20 24 -39 -5 -21 -3 -23 20 -19 23 5 28 -1 50 -50 19 -43 33 -60
63 -75 21 -11 47 -29 57 -41 11 -12 25 -21 33 -21 17 0 17 -34 -1 -49 -10 -8
-19 -6 -40 10 -26 21 -35 20 -68 -3 -14 -10 -21 -9 -37 6 -10 9 -22 28 -25 42
-8 31 -31 30 -73 -2 l-33 -25 -27 20 -26 21 -36 -22 c-29 -17 -52 -22 -116
-22 -73 -1 -80 -3 -80 -21 0 -14 7 -20 23 -20 13 0 31 -11 41 -23 10 -15 23
-21 33 -17 10 4 25 -4 42 -22 31 -33 32 -44 7 -67 -21 -19 -35 -8 -25 18 4 11
-3 19 -22 26 -16 6 -31 14 -34 18 -8 12 -72 32 -82 26 -4 -3 -2 -15 6 -26 9
-13 13 -32 9 -49 -5 -27 -4 -28 48 -31 31 -2 54 -8 57 -15 2 -8 -5 -13 -16
-13 -14 0 -22 -8 -24 -22 -3 -25 3 -25 -123 -8 -127 17 -290 28 -300 20 -35
-27 -125 -19 -125 11 0 28 -18 32 -49 10 -37 -26 -46 -26 -65 0 -18 26 -46 19
-46 -11 0 -16 -6 -20 -35 -20 -23 0 -37 6 -44 19 -12 22 -5 31 25 31 15 0 25
8 29 23 4 12 21 37 38 55 23 24 28 35 20 43 -9 9 -22 6 -54 -10 -29 -16 -45
-19 -52 -12 -20 20 -47 13 -47 -13 0 -27 -35 -42 -57 -24 -16 13 -17 4 -3 -22
14 -26 2 -53 -21 -47 -27 7 -34 -9 -34 -85 0 -61 2 -68 23 -78 14 -6 22 -17
20 -27 -3 -18 -55 -36 -64 -22 -3 5 -10 9 -16 9 -7 0 -6 -5 2 -15 11 -14 9
-76 -6 -126 -3 -13 5 -15 58 -11 53 3 67 8 88 31 26 28 98 89 153 129 41 29
83 29 90 0 4 -13 0 -29 -9 -39 -9 -10 -11 -20 -6 -23 5 -3 13 -23 17 -43 9
-52 43 -123 74 -155 14 -14 32 -34 40 -43 10 -12 20 -15 40 -9 30 9 89 9 177
-1 l61 -7 71 72 c54 55 70 78 70 99 -1 34 39 91 63 91 29 0 69 -19 69 -32 0
-6 12 -24 27 -40 l26 -28 -26 -24 c-15 -14 -27 -31 -27 -39 0 -8 -9 -26 -20
-40 -28 -35 -25 -45 15 -53 20 -3 35 -12 35 -20 0 -7 11 -16 25 -20 33 -8 78
-69 70 -94 -4 -14 -1 -22 10 -26 21 -8 32 3 17 18 -19 19 -14 28 12 28 14 0
37 11 53 24 15 12 38 28 51 35 12 6 22 20 22 30 0 22 23 43 63 56 31 10 35 15
62 77 9 20 27 48 40 62 25 27 45 77 45 112 0 13 5 24 10 24 6 0 10 -7 10 -15
0 -21 13 -19 28 5 7 11 21 20 33 20 18 0 20 5 17 37 -2 33 0 37 25 44 26 7 97
-6 97 -18 0 -3 -8 -12 -17 -19 -16 -12 -15 -13 15 -14 18 0 44 7 58 16 32 22
56 5 36 -26 -10 -16 -9 -21 9 -31 16 -8 18 -14 10 -22 -15 -15 -14 -57 2 -57
8 0 22 9 32 20 17 19 17 21 0 40 -22 24 -14 36 14 21 22 -12 27 -28 34 -104 3
-31 12 -56 26 -71 l22 -23 -26 -17 c-14 -9 -25 -23 -25 -32 0 -8 -7 -28 -15
-45 -15 -28 -15 -30 10 -39 23 -9 25 -12 12 -25 -20 -20 -10 -54 20 -68 22
-10 23 -15 21 -93 -2 -63 1 -87 14 -101 17 -20 30 -84 19 -101 -3 -6 -15 -10
-26 -9 -15 2 -20 -5 -22 -28 -4 -42 -4 -40 0 -138 2 -72 6 -91 20 -98 16 -9
15 -13 -9 -45 -23 -30 -25 -38 -15 -60 12 -28 5 -154 -10 -154 -14 0 -39 -31
-39 -50 0 -10 9 -20 20 -23 17 -4 19 -9 11 -29 -5 -12 -12 -35 -15 -50 -3 -14
-24 -41 -46 -58 -22 -17 -40 -38 -40 -46 0 -17 12 -18 27 -3 6 6 16 8 22 5 14
-9 14 -53 1 -61 -17 -10 -11 -25 13 -35 12 -5 16 -9 10 -9 -7 -1 -13 -7 -13
-15 0 -24 -22 -31 -36 -12 -16 23 -54 12 -54 -15 0 -10 -4 -19 -9 -19 -14 0
-22 -32 -11 -45 8 -9 5 -14 -10 -18 -28 -7 -25 -43 5 -63 19 -12 25 -25 25
-50 0 -33 -12 -45 -25 -24 -9 15 -45 12 -45 -3 0 -7 6 -19 13 -26 10 -10 7
-16 -13 -31 -15 -11 -24 -28 -25 -47 0 -23 -5 -29 -28 -31 -23 -3 -28 1 -33
27 -5 24 -12 31 -30 31 -27 0 -44 -26 -44 -68 0 -16 -9 -37 -20 -47 -28 -25
-25 -41 10 -54 20 -7 30 -17 30 -30 0 -12 -5 -21 -11 -21 -20 0 -49 21 -49 35
0 21 -14 19 -35 -5 -10 -11 -26 -22 -36 -25 -27 -9 -23 -25 5 -25 32 0 39 -13
24 -45 -9 -21 -9 -31 1 -46 17 -29 -20 -89 -55 -89 -15 0 -27 -7 -30 -17 -3
-10 -12 -31 -21 -46 -11 -22 -12 -35 -4 -55 5 -15 9 -58 8 -95 -2 -61 1 -71
21 -87 l23 -19 -36 -35 c-19 -19 -35 -39 -35 -44 0 -5 -11 -14 -25 -20 -20 -9
-25 -19 -25 -46 0 -18 6 -39 14 -45 21 -17 -11 -93 -36 -85 -11 3 -19 -2 -23
-15 -3 -12 -26 -37 -51 -57 -43 -36 -58 -74 -34 -89 6 -3 10 -17 10 -31 0 -18
-9 -28 -37 -41 -29 -14 -40 -27 -48 -56 -6 -22 -22 -47 -35 -57 -21 -16 -23
-21 -13 -43 9 -20 8 -27 -7 -40 -31 -26 -80 -48 -92 -41 -7 5 -9 -3 -4 -27 13
-69 13 -72 -19 -80 -70 -18 -104 -35 -114 -56 -13 -28 -55 -31 -71 -5 -7 10
-13 13 -16 6 -16 -38 -28 -44 -61 -32 -18 7 -33 18 -33 25 0 15 -26 17 -35 3
-3 -5 1 -23 10 -40 20 -39 12 -81 -21 -117 -28 -30 -30 -42 -8 -57 11 -9 13
-18 6 -36 l-9 -25 -7 23 c-7 22 -21 29 -30 14 -9 -15 22 -87 38 -90 17 -4 22
-27 8 -36 -5 -3 -18 4 -30 14 -12 11 -30 20 -42 20 -15 0 -20 -6 -20 -29 0
-24 -7 -33 -42 -50 -67 -33 -77 -43 -71 -74 5 -27 5 -28 -37 -21 l-43 7 7 -39
c4 -21 15 -47 23 -56 14 -16 14 -22 -5 -65 -17 -40 -25 -49 -50 -51 -21 -2
-38 -15 -62 -48 -22 -28 -41 -44 -55 -44 -12 0 -38 -11 -58 -24 -19 -13 -44
-27 -56 -31 -11 -3 -30 -18 -43 -33 -18 -21 -30 -26 -57 -24 -18 2 -38 -1 -44
-7 -6 -6 -31 -11 -56 -11 -41 0 -49 -4 -98 -55 -29 -30 -56 -55 -60 -55 -3 0
-14 -7 -24 -15 -9 -9 -36 -17 -60 -18 -46 -2 -41 -7 -81 80 -17 36 -29 38 -63
11 -16 -12 -38 -24 -49 -25 -11 -2 -24 -11 -29 -19 -7 -12 -17 -14 -46 -8 -20
4 -46 6 -59 6 -12 -1 -25 5 -28 13 -8 20 -33 19 -56 -2 -17 -16 -21 -16 -46
-1 -16 9 -41 16 -58 16 -16 -1 -40 5 -53 12 -15 7 -26 8 -30 2 -3 -5 -29 -9
-58 -8 -59 1 -108 35 -97 68 6 21 -15 24 -46 8 -32 -17 -96 -1 -109 27 -10 22
-17 25 -51 21 -39 -3 -40 -3 -40 30 0 23 -6 35 -19 40 -39 15 -150 117 -150
139 -1 25 -47 44 -96 40 -25 -2 -30 2 -33 23 -1 14 -10 44 -18 68 -13 35 -19
42 -36 36 -14 -4 -21 0 -24 13 -3 10 -15 23 -27 28 -11 6 -25 24 -29 42 -6 22
-17 34 -39 42 -38 13 -33 36 7 36 28 0 29 2 32 53 3 52 2 53 -53 109 -46 47
-56 62 -52 83 4 18 -2 33 -20 52 -23 24 -24 28 -10 34 10 3 17 9 17 13 0 10
-63 36 -79 32 -8 -1 -12 3 -8 12 8 20 -12 37 -44 37 -19 0 -30 6 -34 20 -8 25
0 39 31 50 13 5 24 16 24 25 0 17 -16 20 -25 5 -10 -17 -56 34 -49 54 4 10 1
16 -8 16 -9 0 -28 12 -44 28 -16 15 -36 27 -44 27 -24 1 -79 38 -86 57 -3 10
-18 25 -35 35 -18 11 -29 26 -29 40 0 14 -10 27 -27 35 -20 9 -29 22 -31 43
-2 16 -12 40 -23 53 -10 14 -19 36 -19 49 0 29 -17 65 -36 76 -8 4 -14 15 -14
23 0 21 -35 96 -65 140 -18 27 -25 50 -25 86 0 54 -12 85 -43 109 -26 21 -16
66 18 79 44 17 27 88 -29 121 -26 15 -33 25 -29 40 3 11 1 30 -5 42 -7 12 -11
29 -10 37 4 41 -3 62 -22 67 -27 7 -52 56 -44 87 4 18 1 25 -17 29 -22 6 -22
7 -5 26 26 28 17 65 -16 69 -18 2 -28 11 -32 28 -5 17 -13 24 -31 24 -20 0
-25 5 -25 26 0 15 -8 33 -17 40 -17 12 -17 13 0 19 23 9 22 28 -3 50 -11 10
-20 23 -20 30 0 7 -8 27 -17 46 -10 19 -18 52 -18 74 0 34 -3 40 -23 43 -14 2
-29 -4 -36 -14 -8 -10 -15 -13 -19 -7 -4 6 2 21 13 33 11 13 20 27 20 32 0 5
8 8 18 6 11 -2 17 3 17 17 0 14 -8 21 -27 23 -16 2 -28 9 -28 18 0 8 -6 14
-14 14 -26 0 -27 18 -1 66 29 55 30 62 9 85 -14 16 -14 18 5 29 27 14 27 46 1
62 -22 14 -27 68 -10 112 6 16 6 27 0 31 -6 4 -10 26 -10 51 0 36 -3 44 -18
44 -27 0 -34 11 -18 29 19 23 28 139 12 170 -19 38 -19 195 -1 231 8 15 20 30
27 33 8 4 7 6 -4 6 -10 1 -25 15 -33 31 -16 31 -16 31 14 41 26 9 29 14 21 30
-14 25 3 56 31 61 21 3 20 4 -5 31 -30 33 -31 36 -10 65 20 28 41 28 50 0 l7
-23 10 23 c7 15 19 22 38 22 16 0 33 8 39 18 9 15 12 14 34 -12 13 -15 29 -46
35 -67 8 -26 21 -44 40 -54 16 -8 32 -26 35 -40 5 -18 13 -25 29 -25 23 0 67
-40 67 -60 0 -20 69 -80 85 -74 8 4 21 2 28 -4 6 -5 32 -12 57 -16 24 -4 59
-18 76 -31 25 -19 33 -22 37 -10 3 7 -3 25 -15 40 -16 21 -18 28 -8 40 7 9 10
27 6 45 -7 36 21 70 57 70 69 0 59 88 -14 125 -22 12 -34 13 -49 5 -18 -10
-19 -7 -17 90 2 94 4 102 29 129 15 16 42 34 58 40 26 9 32 8 36 -7 3 -9 14
-35 25 -58 10 -23 19 -48 19 -56 0 -19 80 -114 108 -127 38 -18 130 -25 146
-12 8 7 45 17 83 22 110 16 132 31 163 119 23 64 31 75 56 82 45 12 91 -18
126 -81 27 -51 28 -54 11 -67 -10 -8 -29 -19 -42 -25 -34 -14 -18 -23 42 -26
48 -2 54 1 74 29 l22 32 -29 52 c-17 28 -30 61 -30 72 0 15 -9 22 -30 27 -21
5 -30 13 -30 26 0 25 28 69 44 69 20 0 150 -115 166 -146 28 -56 79 -81 108
-52 9 9 15 9 24 0 10 -10 10 -15 -1 -21 -31 -20 14 -40 54 -25 15 6 15 8 0 24
-13 14 -14 23 -6 38 22 42 6 240 -22 268 -4 4 -7 20 -7 36 0 18 -5 28 -15 28
-10 0 -15 10 -15 30 0 32 35 74 71 85 27 9 34 48 20 111 -13 55 -46 94 -80 94
-10 0 -22 5 -29 12 -7 7 -33 15 -60 18 l-47 5 -3 52 c-3 58 -12 68 -63 78 -27
5 -40 2 -52 -10 -14 -13 -20 -14 -37 -3 -19 12 -24 10 -45 -14 l-24 -28 -57
55 c-32 30 -61 55 -65 55 -4 0 -12 13 -19 29 -9 23 -22 31 -58 41 -26 6 -57
16 -70 21 -13 5 -35 9 -51 9 -27 0 -65 27 -73 52 -4 10 -11 11 -34 2 -16 -6
-58 -9 -92 -6 -53 4 -62 7 -62 24 0 21 -32 38 -38 20 -8 -25 -49 -13 -62 17
-10 25 -19 30 -61 36 -27 4 -56 13 -64 21 -7 8 -22 14 -33 14 -23 0 -44 22
-40 41 2 9 -4 13 -16 11 -11 -2 -16 1 -13 10 2 7 -4 22 -14 34 -12 12 -20 38
-21 70 -3 49 -3 49 30 52 28 3 32 7 32 33 0 22 -5 29 -19 29 -11 0 -22 4 -25
9 -8 12 25 94 44 108 13 10 12 16 -8 51 -27 49 -28 69 -3 77 18 5 18 8 3 46
-12 31 -19 38 -34 33 -13 -4 -21 2 -28 21 -7 20 -15 25 -29 20 -26 -8 -36 23
-14 47 14 16 15 23 5 38 -23 38 -11 65 17 38 10 -11 11 -6 5 26 l-7 39 29 -7
c16 -4 36 -14 45 -22 8 -8 23 -14 32 -14 19 0 24 30 5 30 -21 1 -51 50 -52 87
-1 18 -7 38 -15 42 -7 5 -12 14 -10 20 2 6 18 0 37 -15 20 -16 31 -32 28 -40
-4 -12 -1 -12 14 -4 22 12 26 25 10 35 -11 7 -1 36 18 51 11 8 12 15 3 32 -15
28 -14 32 5 32 9 0 23 -8 30 -17 13 -17 15 -17 27 -2 7 9 21 18 32 20 37 8 29
37 -14 55 -23 9 -41 20 -41 24 0 15 31 40 49 40 9 0 23 6 29 12 10 10 17 10
32 0 17 -11 21 -10 27 5 32 90 42 108 59 108 15 0 19 8 19 40 0 41 33 102 42
78 6 -16 35 -17 50 -2 6 6 9 28 6 49 -5 37 -3 39 35 59 27 14 42 29 47 48 11
44 24 54 61 47 24 -4 34 -3 34 6 0 7 12 29 26 47 24 32 30 35 69 31 42 -3 43
-2 38 22 -3 17 2 31 15 44 18 15 25 16 55 5 30 -11 40 -9 90 15 32 15 57 30
57 34 0 4 19 8 43 9 23 0 98 4 167 7 305 16 335 20 381 61 34 31 38 32 118 29
57 -2 86 -8 97 -19 18 -17 42 -19 78 -5 16 6 27 6 31 0 8 -12 62 -13 69 -2 3
5 19 7 36 4 17 -2 59 1 92 9 59 12 62 12 76 -9 19 -28 34 -28 70 3 21 17 42
25 69 25 21 0 44 5 50 11 8 8 58 12 137 13 69 1 128 4 131 8 4 3 25 -2 48 -12
35 -16 49 -17 83 -8z m1114 -524 c0 -4 -11 -8 -25 -8 -18 0 -25 5 -25 18 0 10
3 22 7 25 7 8 43 -21 43 -35z m-3630 -159 c0 -24 -12 -24 -27 0 -10 15 -10 21
0 24 18 6 27 -2 27 -24z m-285 -381 c-19 -11 -30 -5 -21 11 4 6 14 7 22 4 15
-5 14 -7 -1 -15z m4068 -141 c-3 -5 -9 -3 -14 4 -4 7 -5 17 -2 22 3 5 9 3 14
-4 4 -7 5 -17 2 -22z m-123 -158 c0 -11 -4 -17 -10 -14 -5 3 -10 15 -10 26 0
11 5 17 10 14 6 -3 10 -15 10 -26z m-50 -48 c0 -20 -13 -41 -21 -35 -15 9 -10
44 6 44 8 0 15 -4 15 -9z m-1110 -1086 c0 -8 -9 -15 -20 -15 -20 0 -26 11 -13
23 12 13 33 7 33 -8z m-2545 -81 c20 -13 28 -14 40 -4 12 10 21 10 44 0 23 -9
34 -9 53 1 37 20 87 18 165 -7 105 -33 116 -41 109 -70 -6 -23 -2 -27 36 -42
127 -50 181 -95 128 -109 -39 -10 -14 -28 43 -31 54 -3 57 -4 65 -35 10 -34 1
-54 -17 -43 -6 4 -11 14 -11 22 0 10 -13 14 -47 14 -26 0 -60 4 -77 9 -95 28
-135 34 -274 36 -84 2 -155 5 -158 8 -2 2 0 17 6 32 9 22 7 31 -6 47 -17 17
-16 20 11 48 17 18 25 35 22 45 -8 19 -37 31 -46 18 -15 -24 -49 -33 -80 -22
-23 8 -35 8 -46 -1 -11 -9 -16 -7 -24 9 -15 27 -14 37 5 66 19 29 26 30 59 9z
m3470 -64 c3 -5 -3 -10 -14 -10 -12 0 -21 5 -21 10 0 6 6 10 14 10 8 0 18 -4
21 -10z m455 -165 c0 -28 -21 -33 -40 -10 -15 18 -5 35 21 35 14 0 19 -7 19
-25z m-3521 -99 c8 -10 8 -21 1 -41 -10 -26 -13 -27 -53 -21 -52 9 -62 18 -48
44 16 30 81 41 100 18z m2591 -24 c27 -22 19 -42 -16 -42 -14 0 -27 -7 -30
-15 -9 -21 -41 -19 -54 4 -15 30 -12 39 18 55 36 20 55 20 82 -2z m-1942 -104
c24 -24 14 -37 -18 -21 -17 8 -28 19 -25 24 8 13 29 11 43 -3z m4315 -97 c27
-1 21 -31 -7 -31 -16 0 -42 -20 -84 -65 -33 -36 -66 -65 -74 -65 -17 -1 -47
-27 -80 -72 -17 -21 -43 -41 -65 -49 -34 -11 -38 -10 -55 11 -25 31 -27 84 -3
130 7 14 18 37 26 53 7 16 24 30 38 33 14 4 31 13 37 20 25 31 77 44 164 39
47 -2 93 -4 103 -4z m-5967 -12 c10 -17 -23 -46 -38 -31 -8 8 -8 15 2 27 15
18 26 19 36 4z m6052 -279 c7 0 17 -11 22 -25 5 -14 14 -25 20 -25 16 0 12
-45 -7 -79 -17 -29 -17 -32 0 -60 22 -38 22 -44 -9 -81 -21 -24 -25 -38 -21
-65 6 -36 0 -50 -112 -261 -32 -61 -75 -136 -95 -168 -20 -31 -36 -61 -36 -67
0 -17 -71 -139 -80 -139 -5 0 -10 9 -12 20 -4 26 -22 27 -26 2 -2 -11 -16 -32
-33 -47 -16 -16 -29 -35 -29 -43 0 -21 -49 -81 -73 -88 -12 -3 -32 -15 -44
-26 -41 -38 -113 5 -113 67 0 31 -3 35 -25 35 -14 0 -28 7 -31 15 -11 27 24
149 46 164 11 7 20 21 20 30 0 10 8 35 19 57 10 21 24 81 30 132 6 51 18 110
26 130 19 47 37 162 35 227 -1 49 1 52 54 98 30 25 66 52 80 58 23 11 29 8 70
-31 l44 -43 -20 -45 c-15 -33 -19 -56 -14 -86 8 -49 8 -44 0 -127 -7 -69 4
-109 31 -109 22 0 28 19 32 90 6 117 8 125 22 136 17 13 30 86 30 172 1 34 5
62 10 62 5 0 23 18 39 40 37 51 91 90 117 85 11 -3 26 -5 33 -5z m-704 -1219
c20 -22 15 -72 -14 -137 -22 -47 -43 -60 -65 -38 -19 20 -19 53 0 60 8 4 15
12 15 19 0 7 7 18 15 25 9 7 15 29 15 51 0 43 9 48 34 20z m181 -130 c3 -5 -2
-16 -10 -25 -13 -13 -13 -19 -3 -36 10 -16 10 -24 0 -41 -7 -11 -11 -28 -8
-37 7 -21 -3 -36 -28 -45 -14 -6 -17 -14 -12 -40 7 -37 -13 -66 -63 -92 -34
-17 -47 -7 -53 40 -2 21 -11 34 -30 43 -31 15 -34 29 -16 79 9 25 17 33 33 31
15 -2 19 -9 17 -28 -4 -32 6 -70 18 -70 14 0 23 40 11 54 -9 10 -7 15 9 19 11
3 20 13 20 25 0 11 7 25 15 32 8 7 15 17 15 23 0 13 60 77 71 77 4 0 10 -4 14
-9z m-945 -275 c0 -7 15 -19 33 -27 20 -9 32 -21 32 -34 0 -24 -29 -31 -61
-15 -19 11 -21 16 -12 33 9 18 8 19 -16 13 -21 -5 -26 -3 -26 13 0 20 28 43
42 35 5 -3 8 -11 8 -18z m736 -42 c-3 -9 -9 -27 -12 -40 -8 -31 -44 -33 -44
-3 0 32 19 59 41 59 15 0 19 -5 15 -16z m-743 -185 c-8 -8 -14 -6 -22 9 -13
25 -2 37 18 17 11 -11 12 -18 4 -26z m35 -36 c-4 -22 -22 -20 -26 1 -2 10 3
16 13 16 10 0 15 -7 13 -17z m-98 -145 c0 -18 -16 -23 -44 -12 -19 7 -21 35
-4 52 15 15 48 -12 48 -40z m-150 -85 c0 -20 -3 -24 -11 -16 -7 7 -9 19 -6 27
10 24 17 19 17 -11z m1068 -315 c20 -33 11 -46 -41 -58 -39 -8 -50 -2 -60 38
-10 41 2 53 45 50 30 -2 43 -9 56 -30z m-5056 -40 c-15 -15 -26 -4 -18 18 5
13 9 15 18 6 9 -9 9 -15 0 -24z m195 -300 c12 -27 7 -48 -12 -48 -20 0 -37 27
-30 50 8 27 29 26 42 -2z m304 -368 c24 -14 24 -25 -2 -51 -16 -16 -23 -18
-35 -8 -8 6 -14 21 -14 34 0 36 16 43 51 25z m2829 -132 c0 -5 -7 -8 -15 -8
-13 0 -35 28 -35 45 0 9 49 -28 50 -37z m-212 -315 c-4 -22 -48 -31 -48 -10 0
19 10 27 32 27 13 0 18 -6 16 -17z m816 -299 c23 -9 20 -33 -6 -55 -30 -24
-35 -24 -63 9 -22 25 -23 28 -8 40 18 13 52 16 77 6z m-4204 -167 c0 -14 -20
-37 -32 -37 -10 0 -11 34 -1 43 11 12 33 8 33 -6z m3022 -9 c-9 -9 -15 -9 -24
0 -9 9 -7 12 12 12 19 0 21 -3 12 -12z m-2684 -171 c2 -11 -3 -17 -16 -17 -26
0 -34 11 -20 27 14 17 32 12 36 -10z m52 -57 c0 -12 -28 -25 -36 -17 -9 9 6
27 22 27 8 0 14 -5 14 -10z m-22 -199 c4 -24 -15 -28 -43 -7 -11 8 -16 20 -12
29 9 23 51 7 55 -22z m149 -135 c-4 -9 -11 -16 -17 -16 -11 0 -14 33 -3 44 11
10 26 -11 20 -28z m143 -181 c0 -8 -4 -15 -10 -15 -5 0 -10 7 -10 15 0 8 5 15
10 15 6 0 10 -7 10 -15z m-1196 -2691 c9 -3 16 -17 16 -30 0 -20 5 -24 30 -24
19 0 33 -7 40 -19 5 -11 20 -23 32 -27 34 -10 84 -46 108 -77 l21 -27 -25 -24
c-14 -13 -26 -26 -26 -29 0 -11 33 -17 45 -7 19 15 75 -7 75 -31 0 -20 28 -39
59 -39 24 0 28 -22 6 -40 -19 -16 -81 -5 -89 15 -3 8 -15 15 -26 15 -12 0 -31
11 -44 25 -13 14 -33 25 -45 25 -17 0 -21 6 -21 35 0 31 -3 35 -37 44 -21 5
-47 11 -58 13 -15 2 -20 11 -20 35 -1 17 -8 40 -16 50 -9 10 -19 26 -23 37 -4
12 -13 17 -26 13 -29 -7 -46 18 -32 48 12 25 27 30 56 19z m456 -429 c0 -8 -7
-15 -15 -15 -16 0 -20 12 -8 23 11 12 23 8 23 -8z m-90 -17 c0 -25 -27 -58
-47 -58 -20 0 -16 31 9 57 27 29 38 29 38 1z m-604 -223 c-42 -50 -46 -53 -46
-27 0 27 60 96 73 83 7 -7 -2 -25 -27 -56z m878 23 c4 -16 -2 -30 -18 -47 -30
-30 -38 -16 -19 32 17 42 28 47 37 15z m-364 -14 c0 -18 -24 -28 -47 -19 -16
6 -15 8 7 25 26 20 40 18 40 -6z m226 5 c3 -6 -3 -21 -15 -32 l-21 -21 0 25
c0 37 20 53 36 28z m440 -91 c11 -18 7 -154 -6 -194 -6 -19 -9 -48 -5 -64 5
-21 2 -39 -9 -54 -8 -13 -22 -55 -31 -92 -9 -38 -26 -87 -39 -109 -13 -22 -29
-65 -35 -95 -7 -30 -23 -71 -36 -91 -13 -20 -27 -54 -30 -75 -8 -50 -51 -132
-86 -164 -14 -14 -30 -41 -34 -60 -18 -87 -56 -180 -96 -238 -24 -35 -52 -79
-62 -98 -10 -19 -26 -34 -34 -34 -12 0 -13 3 -4 14 9 11 10 20 1 36 -9 17 -5
33 22 93 18 40 51 99 73 132 59 88 85 140 85 167 0 13 11 39 24 56 13 18 29
54 36 80 30 117 52 181 64 185 7 3 15 23 18 44 3 22 17 64 32 94 30 65 72 220
81 304 6 61 24 154 32 168 7 11 31 8 39 -5z m-826 -6 c0 -13 -12 -22 -22 -16
-10 6 -1 24 13 24 5 0 9 -4 9 -8z m230 -9 c0 -5 -5 -15 -10 -23 -8 -12 -10
-11 -10 8 0 12 5 22 10 22 6 0 10 -3 10 -7z m150 -35 c0 -16 -31 -48 -47 -48
-17 0 -18 67 0 73 16 6 47 -11 47 -25z m623 -25 c9 -9 -13 -34 -24 -27 -14 8
-11 34 4 34 8 0 17 -3 20 -7z m-1283 -56 c0 -25 -17 -47 -37 -47 -18 0 -16 21
3 48 20 28 34 28 34 -1z m497 -21 c-13 -76 -60 -191 -89 -215 -16 -13 -28 -31
-27 -40 5 -33 -12 -107 -31 -136 -11 -17 -20 -40 -20 -53 0 -29 -11 -49 -47
-90 -32 -37 -49 -40 -58 -12 -7 22 11 96 26 105 11 7 63 115 74 155 4 14 16
33 26 43 11 10 19 28 19 40 0 48 54 181 88 219 30 33 46 27 39 -16z m-149 7
c-2 -20 -9 -29 -25 -31 -28 -4 -28 2 -5 33 23 32 34 31 30 -2z m927 -13 c4
-21 3 -49 -1 -62 -4 -13 -14 -63 -23 -112 -18 -101 -35 -123 -71 -91 -23 21
-24 59 -2 120 6 17 18 55 27 85 19 60 41 100 54 100 5 0 12 -18 16 -40z
m-1165 1 c-10 -38 -51 -92 -65 -88 -16 6 -18 37 -5 63 10 17 58 51 77 54 1 0
-2 -13 -7 -29z m653 -6 c-5 -16 -33 -21 -33 -7 0 13 22 32 31 26 5 -2 6 -11 2
-19z m151 -48 c-1 -37 -8 -66 -23 -90 -11 -19 -21 -46 -21 -61 0 -16 -5 -26
-15 -26 -27 0 -4 187 28 228 20 25 32 5 31 -51z m-717 -14 c-13 -45 -23 -60
-50 -75 -18 -9 -19 -8 -13 15 8 35 48 96 63 97 8 0 8 -10 0 -37z m1501 14 c2
-11 -10 -36 -27 -57 -17 -22 -31 -45 -31 -53 0 -7 -7 -22 -15 -33 -8 -10 -15
-33 -15 -49 0 -17 -15 -53 -35 -83 -19 -29 -42 -80 -51 -115 -10 -34 -28 -75
-41 -90 -13 -16 -23 -35 -23 -44 0 -8 -20 -35 -45 -60 -26 -25 -45 -53 -45
-66 0 -24 -73 -176 -93 -192 -7 -5 -25 -27 -40 -47 -26 -36 -57 -50 -57 -28 0
6 23 54 51 108 28 53 60 120 70 149 11 28 26 57 34 63 8 7 15 20 15 30 0 9 10
25 21 36 22 20 69 116 69 141 0 9 14 31 30 50 17 18 30 42 30 53 0 10 14 34
31 52 29 31 30 36 25 91 -5 46 -2 65 14 95 11 20 20 45 20 55 0 16 7 18 52 15
42 -2 54 -7 56 -21z m132 3 c7 -13 21 -20 39 -20 15 0 30 -3 34 -6 5 -5 -44
-73 -114 -155 -27 -32 -29 -40 -19 -59 10 -18 6 -29 -27 -78 -21 -31 -50 -70
-65 -87 -16 -16 -28 -38 -28 -48 0 -45 -35 -131 -71 -177 -21 -27 -39 -57 -39
-65 0 -9 -13 -30 -29 -46 -16 -16 -32 -43 -36 -60 -4 -17 -22 -58 -41 -91 -19
-33 -34 -63 -34 -67 0 -5 -13 -27 -30 -49 -16 -23 -30 -45 -30 -50 0 -4 -8
-19 -17 -32 -21 -29 -63 -129 -63 -148 0 -21 -61 -135 -88 -164 -31 -34 -48
-35 -56 -5 -9 35 -8 42 18 80 13 19 27 46 31 58 5 13 16 30 26 37 9 6 21 27
25 45 3 17 15 43 25 56 11 13 19 36 19 50 0 15 8 31 20 39 23 14 55 74 64 121
3 19 26 57 51 87 29 34 45 62 45 79 0 18 14 43 39 71 26 27 46 62 56 97 9 31
23 61 31 67 16 14 47 79 58 123 7 30 66 138 96 177 18 23 51 141 51 184 0 50
39 73 59 36z m-1512 -43 c-3 -24 -17 -62 -32 -84 -16 -23 -32 -61 -37 -84 -11
-48 -25 -69 -45 -69 -24 0 -17 72 11 110 14 19 25 41 25 51 0 17 34 100 46
112 4 4 14 7 22 7 11 0 14 -10 10 -43z m412 -68 c-18 -140 -30 -179 -63 -195
-22 -12 -32 -13 -43 -3 -20 17 -17 37 9 62 46 44 56 71 50 128 -4 46 -2 58 17
82 34 43 43 22 30 -74z m-138 66 c-10 -58 -16 -75 -29 -87 -11 -9 -16 -9 -23
2 -10 16 -1 80 13 98 15 19 43 10 39 -13z m-681 -86 c-20 -45 -56 -87 -67 -77
-3 3 2 23 10 43 9 21 16 46 16 56 0 9 7 25 16 34 14 14 19 14 31 3 11 -12 11
-21 -6 -59z m2163 50 c6 -5 3 -15 -6 -26 -9 -10 -26 -38 -39 -62 -13 -24 -30
-54 -37 -67 -7 -14 -25 -32 -38 -41 -25 -16 -64 -82 -79 -133 -11 -39 -66
-153 -82 -171 -16 -19 -69 -117 -108 -200 -16 -34 -38 -63 -56 -73 -35 -21
-63 -70 -55 -100 3 -14 -5 -37 -24 -66 -17 -25 -30 -50 -30 -56 0 -6 -9 -19
-20 -29 -11 -10 -20 -26 -20 -35 0 -9 -13 -29 -30 -45 -16 -16 -30 -35 -30
-42 0 -7 -9 -18 -20 -25 -13 -8 -20 -24 -20 -43 0 -17 -9 -48 -20 -70 -11 -22
-20 -45 -20 -51 0 -17 -56 -125 -79 -151 -19 -23 -61 -32 -61 -14 0 24 145
328 167 349 7 7 20 38 29 68 9 31 22 58 30 61 8 3 14 13 14 22 0 9 13 37 29
62 16 25 47 86 70 135 24 49 49 94 57 101 9 6 29 44 45 83 28 69 79 146 134
200 14 14 25 33 25 42 0 17 50 128 68 152 5 6 19 43 32 81 12 39 29 79 36 90
8 11 14 27 14 35 0 31 23 42 70 35 25 -4 49 -11 54 -16z m-1934 -44 c0 -25
-38 -132 -59 -166 -11 -17 -17 -38 -14 -45 3 -8 -1 -14 -11 -14 -25 0 -22 91
4 115 11 10 20 21 20 25 0 4 9 28 20 54 21 45 40 61 40 31z m2018 0 c4 -9 21
-19 37 -23 16 -5 30 -13 32 -19 2 -6 -15 -30 -39 -54 -58 -60 -91 -105 -116
-161 -12 -29 -31 -52 -46 -59 -20 -10 -24 -17 -19 -39 4 -22 -2 -34 -31 -63
-25 -26 -36 -45 -36 -67 0 -52 -114 -243 -152 -256 -10 -3 -23 -14 -28 -25 -6
-10 -17 -19 -25 -19 -40 0 1 91 130 290 24 36 52 84 64 108 12 23 33 48 47 54
20 9 25 19 24 42 -3 48 -2 51 35 105 19 28 35 59 35 68 0 10 7 27 15 37 8 11
15 28 15 39 0 46 39 75 58 42z m-2638 -60 c-7 -8 -17 -15 -23 -15 -5 0 -2 9 8
20 21 23 35 19 15 -5z m130 5 c0 -11 -2 -20 -4 -20 -2 0 -11 -3 -20 -6 -19 -7
-22 16 -4 34 18 18 28 15 28 -8z m-210 -3 c0 -7 -9 -18 -20 -25 -17 -10 -20
-10 -20 6 0 10 3 22 7 25 11 12 33 8 33 -6z m523 -89 c-17 -35 -34 -77 -37
-94 -4 -18 -16 -40 -27 -50 -19 -17 -19 -16 -19 28 0 67 80 212 103 189 7 -7
0 -32 -20 -73z m2407 56 c0 -7 -8 -19 -18 -26 -16 -12 -43 -66 -57 -113 -10
-38 -68 -94 -100 -97 -27 -3 -30 0 -28 25 1 15 18 60 37 101 33 69 76 113 126
128 21 7 40 -2 40 -18z m137 -80 c-5 -32 -28 -65 -98 -143 -24 -27 -43 -70
-54 -121 -4 -19 -20 -53 -36 -75 -52 -71 -99 -144 -99 -154 0 -5 -16 -28 -35
-51 -19 -23 -35 -48 -35 -56 0 -8 -9 -32 -19 -52 -11 -20 -28 -54 -38 -75 -16
-36 -72 -77 -103 -77 -14 0 -13 30 3 49 8 9 26 45 41 81 15 36 34 72 41 80 7
8 41 71 76 140 61 121 97 178 158 251 36 43 71 120 71 158 0 16 9 40 21 55 17
21 29 26 66 26 l46 0 -6 -36z m-1317 -1 c-1 -16 -14 -53 -30 -83 -17 -30 -30
-61 -30 -69 0 -21 -43 -81 -57 -81 -29 0 -25 50 11 125 20 42 36 79 36 83 0
18 33 52 51 52 14 0 19 -7 19 -27z m-526 -56 c9 -13 4 -23 -21 -48 -35 -36
-63 -34 -63 4 0 29 33 66 57 63 9 -2 22 -10 27 -19z m-864 -5 c0 -27 -29 -62
-51 -62 -22 0 -23 3 -10 28 5 9 12 25 15 35 7 23 46 23 46 -1z m2814 -15 c-1
-17 -2 -37 -3 -44 0 -7 -32 -45 -71 -84 -64 -67 -70 -76 -70 -116 0 -33 -10
-59 -45 -116 -25 -41 -45 -84 -45 -96 0 -12 -11 -37 -25 -55 -14 -18 -25 -42
-25 -53 0 -11 -9 -28 -20 -38 -11 -10 -27 -42 -35 -70 -10 -34 -23 -56 -38
-64 -13 -7 -32 -36 -46 -72 -12 -33 -37 -75 -55 -94 -18 -19 -37 -49 -42 -66
-5 -17 -19 -38 -31 -46 -21 -14 -23 -13 -35 12 -11 25 -10 29 12 47 18 14 24
28 22 49 -3 19 6 40 26 66 17 21 33 49 37 63 4 14 14 34 21 45 8 11 14 26 14
34 0 8 10 26 23 40 13 15 29 45 36 68 6 23 30 65 54 94 51 63 47 56 92 154 20
44 49 94 65 110 15 17 36 52 45 80 9 29 34 69 61 97 24 26 44 56 44 68 0 12 7
20 18 20 13 0 17 -8 16 -33z m-2016 -150 c-6 -18 -17 -39 -24 -48 -8 -8 -14
-22 -14 -29 0 -8 -10 -45 -22 -83 -17 -50 -32 -77 -58 -100 -29 -26 -36 -28
-38 -14 -4 20 56 195 69 203 5 3 9 16 9 30 0 28 14 59 38 87 14 16 17 16 33 1
14 -13 16 -21 7 -47z m1555 -14 c9 -9 -12 -33 -29 -33 -17 0 -18 27 -1 33 18
8 23 8 30 0z m-1105 -101 c3 -24 -6 -47 -33 -87 -19 -30 -42 -74 -51 -97 -14
-40 -78 -118 -96 -118 -15 0 -8 77 8 91 17 14 57 87 90 167 12 29 28 59 35 68
20 24 44 13 47 -24z m-3784 -208 c9 -25 7 -34 -8 -34 -16 0 -25 19 -18 38 6
17 19 15 26 -4z m3559 -237 c4 -12 -66 -97 -80 -97 -12 0 7 73 23 91 20 22 50
25 57 6z m-1596 -574 c-3 -3 -11 -2 -17 2 -8 5 -7 11 2 22 12 15 13 14 16 -1
2 -10 1 -20 -1 -23z m-2187 -69 c0 -9 -5 -14 -12 -12 -18 6 -21 28 -4 28 9 0
16 -7 16 -16z m217 -330 c-9 -9 -28 6 -21 18 4 6 10 6 17 -1 6 -6 8 -13 4 -17z
m168 -230 c19 -46 19 -54 -1 -54 -14 0 -44 54 -44 80 0 25 31 7 45 -26z m541
-9 c-7 -18 -26 -20 -26 -2 0 18 24 41 28 27 2 -6 1 -17 -2 -25z m-166 -190 c0
-15 -26 -32 -36 -23 -2 3 -2 13 2 22 8 20 34 21 34 1z m2575 -5 c8 -24 -1 -40
-21 -40 -20 0 -29 27 -14 45 17 20 27 19 35 -5z m115 -144 c0 -41 -15 -56 -24
-23 -10 37 -7 57 9 57 10 0 15 -10 15 -34z m-1196 -121 c3 -8 3 -21 0 -27 -5
-15 -66 -59 -72 -53 -9 8 8 51 28 73 24 26 36 28 44 7z m1000 -61 c7 -18 0
-34 -15 -34 -5 0 -9 11 -9 25 0 28 15 34 24 9z m159 -7 c2 -7 -4 -23 -14 -36
l-19 -23 0 36 c0 36 22 51 33 23z m462 -84 c-4 -60 -10 -82 -27 -101 -22 -23
-65 -27 -61 -5 22 112 55 183 86 183 4 0 6 -35 2 -77z m-329 3 c-4 -28 -14
-64 -22 -80 -8 -16 -14 -41 -14 -55 0 -14 -9 -37 -20 -51 l-20 -25 0 42 c0 23
4 44 9 47 11 7 22 64 24 124 2 41 21 67 40 55 5 -3 6 -29 3 -57z m-173 -28
c-7 -64 -12 -76 -23 -58 -9 15 -4 51 12 83 14 27 17 21 11 -25z m-858 -99 c4
-5 0 -18 -9 -28 -9 -10 -16 -23 -16 -29 0 -7 -7 -12 -15 -12 -12 0 -14 7 -9
28 11 45 35 65 49 41z m115 -38 c0 -5 -7 -14 -15 -21 -13 -10 -15 -9 -15 9 0
12 6 21 15 21 8 0 15 -4 15 -9z m1152 -147 c-4 -48 -26 -84 -52 -84 -24 0 -25
9 -5 46 8 16 15 36 15 45 0 19 21 40 35 36 5 -2 9 -22 7 -43z m-1222 8 c0 -16
-32 -52 -46 -52 -18 0 -18 10 2 38 14 21 44 31 44 14z m140 -36 c0 -13 -54
-96 -77 -118 -28 -25 -73 -46 -73 -32 0 9 75 95 123 141 12 12 27 17 27 9z
m908 -23 c-4 -34 -28 -43 -28 -10 0 25 7 37 22 37 5 0 8 -12 6 -27z m-762 4
c8 -22 -64 -155 -94 -174 -15 -9 -37 -26 -49 -37 -23 -19 -23 -19 -23 0 0 24
36 75 85 119 19 18 35 40 35 50 0 40 34 71 46 42z m1084 -32 c0 -25 -30 -76
-40 -70 -15 9 -12 38 6 63 18 26 34 29 34 7z m-1003 -101 c7 -19 -17 -95 -33
-101 -6 -2 -19 -22 -29 -44 -10 -21 -22 -39 -26 -39 -4 0 -10 -8 -13 -18 -3
-9 -21 -25 -38 -34 -35 -17 -98 -31 -98 -22 0 11 60 75 108 117 45 38 67 69
91 130 12 30 28 35 38 11z m970 -45 c1 -37 0 -40 -14 -26 -10 10 -13 24 -9 41
10 39 21 31 23 -15z m-733 -139 c-1 -42 -28 -139 -50 -181 -12 -23 -69 -105
-89 -127 -1 -1 -17 -7 -34 -12 -48 -13 -51 12 -7 60 21 23 33 46 30 55 -6 14
2 26 74 116 37 47 36 43 20 69 -10 16 -9 23 7 40 28 31 50 22 49 -20z m-168
-11 c3 -6 -7 -29 -24 -52 -16 -23 -39 -61 -51 -84 -12 -24 -26 -43 -32 -43 -6
0 -22 -9 -36 -20 -27 -21 -58 -26 -67 -11 -3 4 15 30 40 57 25 27 57 66 70 86
43 66 83 94 100 67z m-3760 -20 c3 -6 0 -17 -8 -25 -12 -12 -17 -12 -33 1 -17
13 -18 16 -5 25 20 13 37 13 46 -1z m50 -34 c8 -21 -6 -41 -17 -24 -12 19 -11
39 1 39 6 0 13 -7 16 -15z m314 -75 c8 -16 8 -20 -3 -20 -8 0 -17 9 -20 20 -3
11 -1 20 4 20 4 0 13 -9 19 -20z m4420 -60 c0 -20 -23 -43 -33 -33 -9 8 -9 48
-1 56 11 11 34 -5 34 -23z m-762 -2 c3 -14 -35 -105 -58 -138 -5 -8 -14 -28
-20 -43 -15 -41 -130 -88 -130 -53 0 8 12 24 27 36 27 21 113 129 113 142 0 4
10 23 21 43 22 36 41 42 47 13z m593 -12 c5 -19 4 -35 -6 -48 -15 -22 -16 -20
-30 50 -6 29 -4 33 11 30 10 -1 21 -16 25 -32z m757 -2 c2 -12 -3 -28 -11 -35
-8 -8 -19 -25 -26 -37 -10 -18 -9 -23 4 -28 13 -5 14 -20 9 -88 -6 -82 -30
-207 -46 -238 -14 -29 -38 -21 -54 19 -12 28 -13 42 -5 60 6 13 11 37 11 52 0
15 11 49 25 75 14 26 25 57 25 70 0 12 6 28 13 35 10 10 9 11 -5 6 -21 -8 -24
18 -9 57 5 13 12 36 16 51 4 22 11 28 28 25 14 -2 23 -11 25 -24z m-918 -54
c0 -11 -7 -20 -15 -20 -15 0 -21 21 -8 33 12 13 23 7 23 -13z m310 -22 c0 -19
-2 -20 -10 -8 -13 19 -13 30 0 30 6 0 10 -10 10 -22z m360 -13 c0 -19 -4 -35
-10 -35 -11 0 -14 53 -3 63 11 12 13 8 13 -28z m-980 -76 c0 -22 -21 -49 -39
-49 -28 0 -33 27 -8 45 25 17 47 20 47 4z m-4060 -15 c0 -9 -5 -14 -12 -12
-18 6 -21 28 -4 28 9 0 16 -7 16 -16z m4200 1 c0 -25 -23 -65 -37 -65 -18 0
-17 30 3 58 17 25 34 29 34 7z m-256 -131 c13 -34 -42 -80 -66 -56 -7 7 -3 20
13 41 27 34 44 39 53 15z m183 -89 c3 -9 -2 -22 -13 -30 -39 -30 -60 -9 -27
27 20 22 32 23 40 3z m189 -36 c-3 -18 -22 -49 -41 -70 -19 -21 -38 -51 -41
-66 -8 -32 -20 -43 -51 -43 -35 0 -35 16 -1 51 18 17 41 50 51 73 35 79 96
119 83 55z m489 1 c-5 -8 -11 -8 -17 -2 -6 6 -7 16 -3 22 5 8 11 8 17 2 6 -6
7 -16 3 -22z m-182 -136 c32 -27 30 -52 -4 -61 -19 -5 -21 -11 -15 -49 5 -39
3 -44 -29 -69 -19 -14 -35 -33 -35 -41 0 -7 -2 -14 -4 -14 -2 0 -12 -3 -22 -7
-15 -5 -16 -1 -10 43 5 29 17 59 31 74 35 39 47 68 40 100 -6 29 -1 50 13 50
4 0 20 -12 35 -26z m-205 -6 c17 -17 15 -43 -8 -88 -20 -39 -54 -60 -71 -43
-9 9 23 107 43 131 13 15 21 15 36 0z m393 -79 c9 -77 -13 -141 -58 -171 -33
-22 -34 -25 -28 -70 5 -41 3 -49 -17 -62 -27 -19 -52 -20 -66 -3 -13 15 -2 38
60 131 33 49 36 58 27 88 -5 18 -9 40 -9 49 0 23 59 101 73 96 7 -2 15 -28 18
-58z m601 -12 c9 -17 7 -24 -12 -39 -17 -14 -26 -16 -36 -7 -17 14 -17 20 -4
53 11 29 34 26 52 -7z m-462 -92 c0 -19 -4 -35 -10 -35 -11 0 -14 53 -3 63 11
12 13 8 13 -28z m390 -54 c0 -23 -16 -36 -25 -21 -9 14 1 40 15 40 5 0 10 -9
10 -19z m-368 -56 c-8 -103 -69 -215 -117 -215 -34 0 -42 52 -14 99 93 158
137 197 131 116z m161 -160 c-2 -60 -29 -141 -50 -149 -22 -9 -52 12 -59 41
-14 53 50 167 90 161 18 -3 21 -9 19 -53z"/>
<path d="M8665 16390 c-8 -13 4 -32 16 -25 12 8 12 35 0 35 -6 0 -13 -4 -16
-10z"/>
<path d="M8737 16342 c-21 -22 -21 -32 -4 -32 18 0 49 34 40 43 -10 11 -19 8
-36 -11z"/>
<path d="M5693 16313 c-18 -7 -16 -23 2 -23 8 0 15 7 15 15 0 8 -1 15 -2 14
-2 0 -9 -3 -15 -6z"/>
<path d="M8927 16153 c-6 -32 -1 -43 19 -43 8 0 14 10 14 25 0 14 0 28 1 33 0
4 -6 8 -14 10 -9 2 -17 -8 -20 -25z"/>
<path d="M8990 16080 c0 -5 9 -10 20 -10 11 0 20 5 20 10 0 6 -9 10 -20 10
-11 0 -20 -4 -20 -10z"/>
<path d="M9015 15980 c-9 -15 4 -30 25 -30 27 0 34 17 11 29 -24 13 -28 14
-36 1z"/>
<path d="M5536 15972 c-8 -13 11 -35 23 -28 16 10 14 36 -3 36 -8 0 -17 -4
-20 -8z"/>
<path d="M9102 15939 c2 -6 8 -10 13 -10 5 0 11 4 13 10 2 6 -4 11 -13 11 -9
0 -15 -5 -13 -11z"/>
<path d="M9113 15780 c-26 -10 -31 -40 -8 -40 8 0 15 5 15 10 0 17 36 11 55
-10 10 -11 23 -20 29 -20 5 0 -5 16 -24 35 -39 38 -36 37 -67 25z"/>
<path d="M5277 15673 c-4 -3 -7 -24 -7 -45 0 -27 4 -38 15 -38 10 0 15 10 15
29 0 17 5 33 10 36 6 3 10 10 10 16 0 10 -33 12 -43 2z"/>
<path d="M5390 15295 c0 -8 5 -15 10 -15 6 0 10 7 10 15 0 8 -4 15 -10 15 -5
0 -10 -7 -10 -15z"/>
<path d="M5360 15225 c0 -17 5 -25 13 -22 6 2 12 12 12 22 0 10 -6 20 -12 23
-8 2 -13 -6 -13 -23z"/>
<path d="M5322 15118 c-18 -18 -15 -38 7 -38 26 0 33 13 18 34 -10 13 -15 14
-25 4z"/>
<path d="M8924 14394 c3 -9 6 -29 6 -46 0 -36 20 -33 33 5 6 19 5 32 -3 42
-17 20 -44 20 -36 -1z"/>
<path d="M7813 14270 c-37 -46 -27 -72 21 -54 16 6 23 69 9 77 -5 2 -18 -8
-30 -23z"/>
<path d="M8525 14280 c-3 -6 5 -10 19 -10 14 0 28 5 31 10 3 6 -5 10 -19 10
-14 0 -28 -4 -31 -10z"/>
<path d="M9396 13825 c-24 -18 -12 -35 24 -35 30 0 45 21 27 39 -14 14 -28 14
-51 -4z"/>
<path d="M7935 13630 c-18 -8 -17 -9 8 -9 15 -1 27 4 27 9 0 12 -8 12 -35 0z"/>
<path d="M8705 13530 c-20 -22 -10 -25 30 -10 14 5 23 14 20 20 -10 16 -30 12
-50 -10z"/>
<path d="M5583 13520 c-13 -5 -23 -18 -23 -28 0 -10 -5 -23 -12 -30 -9 -9 -9
-15 0 -24 9 -9 20 -4 47 22 53 51 46 83 -12 60z"/>
<path d="M8842 13444 c1 -9 9 -19 16 -22 9 -3 13 2 10 14 -1 9 -9 19 -16 22
-9 3 -13 -2 -10 -14z"/>
<path d="M5841 13371 c-10 -6 -10 -10 -1 -16 13 -8 24 -1 19 14 -3 6 -10 7
-18 2z"/>
<path d="M4850 12515 c0 -8 7 -15 15 -15 8 0 15 7 15 15 0 8 -7 15 -15 15 -8
0 -15 -7 -15 -15z"/>
<path d="M4880 12455 c0 -8 5 -15 10 -15 6 0 10 7 10 15 0 8 -4 15 -10 15 -5
0 -10 -7 -10 -15z"/>
<path d="M7451 12114 c-18 -8 -43 -14 -55 -14 -28 -1 -179 -77 -226 -116 -14
-11 -54 -20 -126 -28 -17 -2 -43 -11 -57 -21 -20 -13 -30 -14 -46 -5 -12 6
-21 15 -21 21 0 6 -25 9 -62 8 -50 -2 -70 2 -98 19 -19 12 -42 22 -51 22 -9 0
-19 9 -22 20 -3 11 -13 23 -24 26 -10 3 -25 9 -33 12 -17 7 -46 10 -141 16
-37 2 -75 9 -86 14 -13 7 -33 7 -64 1 -24 -6 -64 -8 -89 -4 -61 8 -89 8 -128
0 -26 -6 -32 -11 -26 -24 3 -9 10 -29 14 -46 4 -16 21 -53 39 -82 33 -54 77
-86 165 -118 26 -10 53 -27 59 -37 13 -19 85 -26 102 -9 20 18 70 22 90 6 16
-12 18 -16 6 -24 -18 -11 -7 -43 12 -35 8 3 30 -5 48 -18 31 -21 33 -26 25
-50 -8 -21 -6 -32 7 -46 11 -12 16 -32 15 -53 -2 -25 1 -34 15 -37 10 -2 17 3
17 12 0 22 31 48 51 43 11 -3 19 -1 19 4 0 5 -5 9 -10 9 -6 0 -20 9 -31 19
l-20 19 28 26 c18 17 37 25 55 24 15 -1 36 6 46 15 13 12 28 16 44 12 16 -4
29 -1 37 9 8 9 26 16 41 16 30 0 133 54 183 96 22 18 39 25 60 21 23 -3 30 1
37 18 6 17 20 24 54 29 24 4 60 17 78 30 66 44 91 52 147 47 56 -6 78 -24 42
-36 -22 -7 -25 -14 -15 -39 9 -23 75 -21 107 4 14 11 32 20 40 20 8 0 20 6 26
14 6 8 26 20 44 27 42 17 107 87 107 115 0 39 -26 49 -129 50 -53 1 -134 4
-181 7 -62 4 -94 2 -119 -9z m-906 -293 c7 -12 -29 -33 -39 -24 -3 3 -6 12 -6
20 0 15 36 18 45 4z"/>
<path d="M9507 12065 c-4 -8 -2 -17 4 -20 15 -10 49 5 49 21 0 19 -46 18 -53
-1z"/>
<path d="M9475 12011 c-6 -11 9 -23 19 -14 9 9 7 23 -3 23 -6 0 -12 -4 -16 -9z"/>
<path d="M7230 11802 c0 -11 9 -27 20 -37 17 -16 20 -16 26 -2 7 20 -13 57
-31 57 -8 0 -15 -8 -15 -18z"/>
<path d="M6467 11716 c-9 -10 -17 -21 -17 -26 0 -14 68 -60 90 -60 18 0 21 5
18 33 -3 28 -6 32 -29 29 -18 -2 -28 3 -35 19 -9 20 -11 21 -27 5z"/>
<path d="M9196 11606 c-21 -32 -20 -36 3 -36 22 0 38 37 23 52 -6 6 -15 0 -26
-16z"/>
<path d="M6503 11593 c-20 -3 -33 -10 -33 -19 0 -8 3 -15 8 -15 74 -13 122 -5
122 21 0 21 -16 23 -97 13z"/>
<path d="M6571 11491 c-8 -5 -11 -16 -8 -25 9 -22 54 -31 73 -15 14 11 13 15
-8 31 -26 20 -37 22 -57 9z"/>
<path d="M5865 11288 c-45 -25 -49 -68 -6 -68 29 0 41 14 41 50 0 25 -11 31
-35 18z"/>
<path d="M5990 11285 c-14 -7 -33 -16 -42 -19 -12 -4 -18 -16 -18 -35 0 -21
-6 -32 -20 -36 -14 -4 -20 -16 -21 -38 -1 -29 -2 -30 -8 -8 -4 16 -17 27 -34
32 -24 7 -34 2 -68 -32 -45 -45 -48 -67 -15 -106 21 -24 26 -26 40 -14 20 17
26 11 35 -30 7 -36 16 -42 86 -58 27 -7 57 -19 66 -27 8 -8 25 -14 35 -14 13
0 25 -12 35 -32 10 -25 24 -36 55 -46 41 -13 42 -15 54 -75 15 -76 25 -90 60
-82 23 5 29 1 46 -30 23 -43 52 -44 72 -2 18 37 48 36 57 -3 7 -31 32 -41 41
-15 3 8 14 17 25 20 12 4 19 16 19 31 0 21 -4 23 -24 18 -20 -5 -27 0 -41 25
-11 22 -23 31 -40 31 -34 0 -41 32 -15 67 22 31 25 31 190 19 30 -3 105 -7
165 -10 61 -3 135 -8 165 -12 104 -12 140 -13 145 -3 4 5 23 9 44 9 21 0 58 7
81 15 24 8 70 17 104 18 33 2 71 9 83 15 12 7 41 12 65 12 24 0 53 7 64 15 10
8 38 15 62 15 24 0 53 5 65 12 12 6 54 13 92 14 39 2 89 5 112 9 47 7 45 9 58
-87 6 -42 9 -48 30 -48 20 0 24 5 22 22 -1 17 5 24 28 31 52 16 83 36 135 87
28 28 58 50 67 50 21 0 100 40 117 59 8 9 17 37 21 64 7 43 6 47 -14 47 -11 0
-36 8 -55 17 -34 16 -37 16 -56 -2 -16 -15 -25 -17 -38 -9 -14 9 -20 6 -33
-16 -17 -27 -52 -40 -110 -40 -16 0 -38 -5 -48 -12 -15 -9 -30 -8 -73 6 -30 9
-103 19 -163 22 -60 3 -112 7 -116 10 -4 2 -27 0 -51 -5 -35 -8 -46 -7 -61 6
-16 15 -22 15 -71 0 -29 -9 -59 -17 -68 -17 -8 0 -25 -11 -38 -25 -13 -14 -28
-25 -33 -25 -4 0 -41 -16 -81 -35 -61 -29 -89 -36 -177 -44 -94 -8 -107 -7
-135 10 -17 10 -42 19 -55 19 -13 0 -35 7 -49 15 -14 8 -41 22 -60 32 -19 9
-43 24 -52 31 -13 11 -33 13 -75 8 -147 -16 -258 -36 -283 -51 -24 -15 -163
-11 -214 5 -45 15 -49 19 -51 50 -3 32 -17 50 -61 76 -16 10 -15 12 16 27 18
9 41 17 51 17 24 0 32 16 25 46 -7 27 -29 30 -66 9z"/>
<path d="M8136 11244 c-17 -17 -21 -44 -7 -44 23 0 41 14 41 30 0 27 -16 33
-34 14z"/>
<path d="M5750 11190 c0 -5 9 -10 20 -10 11 0 20 5 20 10 0 6 -9 10 -20 10
-11 0 -20 -4 -20 -10z"/>
<path d="M7821 10783 c-8 -15 -13 -16 -29 -7 -24 16 -70 6 -82 -16 -8 -15 -6
-17 8 -13 10 2 31 -3 47 -11 48 -25 71 -21 84 15 6 18 11 36 11 40 0 16 -29 9
-39 -8z"/>
<path d="M7680 10693 c0 -10 9 -24 19 -30 16 -10 22 -9 32 3 14 17 5 28 -28
39 -18 5 -23 2 -23 -12z"/>
<path d="M6497 10606 c-6 -16 11 -36 30 -36 16 0 17 22 1 38 -16 16 -25 15
-31 -2z"/>
<path d="M6586 10485 c4 -8 17 -15 30 -15 12 0 29 -9 37 -20 15 -21 27 -17 27
10 0 19 -39 40 -75 40 -18 0 -23 -4 -19 -15z"/>
<path d="M7722 10448 c-7 -7 -12 -22 -12 -35 0 -32 28 -30 40 3 15 38 -2 58
-28 32z"/>
<path d="M6422 10443 c-22 -8 -2 -23 24 -17 14 4 24 2 24 -5 0 -6 -11 -11 -25
-11 -19 0 -26 -7 -31 -27 -4 -16 -14 -34 -23 -40 -14 -11 -14 -14 -1 -22 8 -5
17 -8 22 -5 4 3 23 -2 43 -10 22 -9 48 -13 67 -9 31 6 31 6 11 -13 -11 -10
-28 -24 -39 -30 -10 -6 -20 -23 -22 -38 -3 -23 0 -26 29 -26 28 0 31 -2 26
-26 -5 -30 15 -54 41 -47 11 2 31 -6 49 -21 29 -25 38 -26 162 -30 119 -3 134
-5 155 -25 19 -18 31 -21 58 -16 25 5 38 2 47 -9 8 -9 19 -16 27 -16 23 0 64
23 64 35 0 20 28 37 50 30 13 -4 20 -15 20 -32 0 -25 1 -25 18 -10 10 10 32
17 49 17 17 0 36 7 44 16 12 14 14 14 25 -1 16 -22 52 -11 66 21 15 31 45 40
68 19 17 -16 19 -15 22 7 3 20 9 23 43 23 35 0 40 3 43 25 5 37 21 49 29 22 9
-36 28 -19 25 22 -2 20 5 52 14 72 17 36 17 37 -6 56 -26 21 -53 17 -86 -13
-24 -22 -44 -9 -44 29 0 20 -4 23 -24 18 -13 -3 -49 -1 -80 5 -50 9 -60 8 -82
-8 -24 -18 -29 -18 -87 -3 -34 9 -70 20 -80 25 -10 4 -65 2 -122 -4 -77 -9
-110 -9 -125 -1 -15 8 -30 8 -54 0 -19 -6 -45 -8 -58 -5 -13 3 -44 1 -68 -5
-25 -6 -55 -14 -67 -17 -13 -3 -39 -2 -59 1 -29 6 -33 10 -24 21 16 19 6 32
-32 41 -18 3 -42 12 -53 19 -26 17 -57 24 -73 18z m106 -86 c3 -13 -3 -17 -27
-17 -20 0 -31 5 -31 14 0 29 53 32 58 3z"/>
<path d="M8338 10197 c-51 -20 -47 -63 5 -52 40 9 60 27 51 48 -7 19 -17 20
-56 4z"/>
<path d="M6027 10163 c-9 -9 30 -80 48 -87 9 -3 24 -2 33 3 16 9 15 10 -1 17
-10 4 -22 17 -27 30 -9 24 -43 48 -53 37z"/>
<path d="M6017 9933 c-15 -15 -7 -43 13 -43 15 0 20 7 20 25 0 24 -18 34 -33
18z"/>
<path d="M4997 9254 c-8 -9 11 -44 24 -44 6 0 9 10 7 22 -3 22 -19 34 -31 22z"/>
<path d="M5050 9070 c0 -13 7 -20 18 -20 24 0 32 8 25 26 -8 22 -43 17 -43 -6z"/>
<path d="M5242 8567 c-10 -11 -9 -17 2 -26 18 -15 31 2 18 25 -7 13 -10 13
-20 1z"/>
<path d="M5754 8419 c-3 -6 -1 -16 5 -22 8 -8 11 -5 11 11 0 24 -5 28 -16 11z"/>
<path d="M4785 8030 c-8 -14 23 -63 35 -55 10 6 -8 65 -20 65 -5 0 -12 -5 -15
-10z"/>
<path d="M4557 7486 c-3 -8 -3 -17 0 -20 9 -9 34 15 27 25 -8 13 -21 11 -27
-5z"/>
<path d="M9880 7216 c-41 -6 -86 -19 -100 -29 -13 -9 -31 -17 -39 -17 -8 0
-37 -15 -65 -33 -28 -19 -72 -44 -99 -56 -55 -27 -53 -41 8 -41 62 0 75 -7 76
-44 l1 -31 14 34 c15 33 16 34 64 28 27 -3 52 -2 55 4 10 15 41 10 69 -12 33
-26 34 -49 1 -49 -14 0 -25 -4 -25 -10 0 -13 34 -30 61 -30 13 0 36 -15 55
-35 18 -20 38 -33 46 -30 14 6 66 -18 115 -53 26 -18 33 -20 40 -9 4 8 21 20
38 28 27 13 215 213 215 230 0 11 -182 129 -200 129 -9 0 -40 6 -70 14 -83 21
-177 25 -260 12z"/>
<path d="M9980 6697 c0 -7 9 -20 20 -30 37 -31 71 -16 50 23 -12 23 -70 29
-70 7z"/>
<path d="M9840 6400 c0 -19 3 -21 12 -12 9 9 9 15 0 24 -9 9 -12 7 -12 -12z"/>
<path d="M9410 5590 c0 -11 7 -20 15 -20 8 0 15 9 15 20 0 11 -7 20 -15 20 -8
0 -15 -9 -15 -20z"/>
<path d="M9355 5561 c-7 -12 12 -24 25 -16 11 7 4 25 -10 25 -5 0 -11 -4 -15
-9z"/>
<path d="M2032 4770 c-10 -16 -22 -19 -60 -17 -45 2 -47 1 -50 -25 -2 -16 1
-28 7 -28 6 0 11 -11 11 -25 0 -14 -4 -25 -10 -25 -5 0 -10 5 -10 10 0 6 -14
10 -31 10 -22 0 -32 -5 -36 -19 -4 -17 -18 -23 -77 -33 -18 -3 -27 7 -71 75
-16 25 -49 26 -53 2 -2 -12 -15 -26 -32 -32 -25 -9 -30 -17 -30 -45 0 -18 7
-43 15 -56 14 -19 14 -25 2 -49 -25 -47 -31 -108 -12 -123 13 -10 24 -10 68 3
55 16 124 15 213 -3 28 -6 66 -10 85 -10 19 1 46 -2 60 -5 17 -4 46 2 85 18
32 13 87 33 121 43 70 21 83 35 25 27 -28 -4 -43 0 -55 12 -23 22 -21 32 7 50
37 24 39 43 8 59 -28 14 -72 6 -72 -14 0 -5 -9 -10 -20 -10 -11 0 -20 4 -20
10 0 15 -91 54 -121 52 -31 -2 -47 13 -24 22 8 3 15 15 15 27 0 17 4 20 21 16
37 -10 93 69 65 92 -8 7 -16 4 -24 -9z m-321 -187 c36 -17 57 -52 44 -73 -9
-14 -59 14 -84 46 -37 47 -24 56 40 27z"/>
<path d="M6968 4399 c-10 -5 -18 -20 -18 -33 0 -13 -7 -29 -15 -36 -8 -7 -15
-18 -15 -24 0 -7 -13 -33 -29 -58 -16 -25 -32 -59 -36 -76 -3 -17 -17 -37 -30
-46 -13 -9 -27 -26 -30 -38 -4 -13 -18 -35 -31 -49 -17 -18 -27 -43 -31 -80
-5 -38 -16 -67 -41 -101 -19 -27 -42 -76 -53 -111 -10 -34 -30 -78 -44 -97
-14 -19 -25 -40 -25 -47 0 -7 -15 -30 -34 -50 -38 -43 -88 -156 -79 -179 7
-18 -15 -92 -34 -115 -7 -8 -13 -22 -13 -30 0 -8 -11 -35 -24 -61 -14 -27 -20
-51 -15 -59 5 -8 -4 -26 -26 -50 -19 -21 -39 -57 -46 -81 -6 -24 -22 -64 -35
-89 -17 -34 -24 -63 -24 -106 0 -33 3 -63 6 -66 14 -14 42 15 59 60 10 26 33
71 51 99 19 28 34 55 34 59 0 14 93 225 135 308 14 26 25 56 25 68 0 11 20 53
45 94 24 40 47 86 51 102 7 29 36 101 60 143 18 33 32 63 107 233 9 21 17 42
17 47 0 5 11 26 25 46 14 20 25 50 25 67 0 16 9 46 19 66 21 39 61 153 61 174
0 7 9 29 20 50 20 37 27 77 13 77 -5 0 -16 -5 -25 -11z"/>
<path d="M2472 4240 c-7 -12 -10 -25 -7 -29 2 -5 -2 -14 -10 -21 -11 -9 -22
-9 -46 -1 -18 6 -34 9 -37 6 -3 -3 0 -22 6 -44 16 -53 17 -51 -32 -45 -31 5
-58 1 -86 -10 -36 -14 -41 -14 -46 -1 -12 31 -40 16 -51 -27 -6 -23 -9 -46 -7
-50 8 -12 49 -9 62 4 9 9 15 9 24 0 7 -7 17 -8 29 -1 14 7 23 5 35 -10 13 -15
22 -17 39 -11 29 11 34 6 26 -30 -7 -34 -65 -100 -88 -100 -12 0 -14 8 -10 34
4 23 1 39 -8 46 -8 6 -15 21 -17 32 -5 34 -28 33 -41 -1 -9 -24 -17 -31 -39
-31 -20 0 -26 -4 -22 -15 8 -20 44 -19 59 2 7 10 17 13 25 8 10 -6 9 -11 -6
-22 -18 -14 -18 -15 4 -30 12 -9 22 -24 22 -35 0 -25 -30 -36 -42 -15 -18 34
-91 9 -121 -42 -22 -37 -8 -48 36 -28 57 26 77 30 77 13 0 -8 -4 -18 -10 -21
-5 -3 -10 -17 -10 -31 0 -25 18 -32 36 -14 8 8 15 6 23 -4 11 -13 9 -17 -13
-27 -14 -7 -26 -16 -26 -22 0 -5 -7 -7 -15 -3 -16 6 -19 -3 -9 -28 8 -20 28
-20 57 -2 53 33 110 25 74 -11 -12 -12 -13 -20 -4 -34 9 -15 8 -22 -6 -36 -16
-16 -18 -16 -30 1 -10 13 -20 16 -35 12 -24 -8 -28 -26 -10 -44 9 -9 7 -17 -9
-34 -21 -23 -21 -23 -2 -58 l19 -34 -28 -24 c-15 -12 -37 -27 -49 -32 -26 -11
-30 -28 -8 -36 22 -9 19 -45 -4 -51 -20 -5 -81 -75 -81 -92 0 -6 -7 -11 -16
-11 -12 0 -15 6 -10 25 5 19 1 31 -17 48 -33 31 -41 57 -18 57 22 0 45 25 36
40 -3 5 -16 10 -27 10 -12 0 -30 7 -40 16 -12 12 -21 14 -30 6 -7 -5 -24 -12
-38 -14 -23 -3 -25 -7 -22 -46 2 -41 1 -44 -33 -58 -63 -26 -56 -64 12 -64 42
0 123 -54 124 -83 1 -12 1 -27 0 -34 -1 -6 7 -14 18 -18 30 -9 47 -33 33 -47
-7 -7 -12 -18 -12 -26 0 -16 39 -51 58 -52 14 0 16 16 2 25 -5 3 -10 12 -10
20 0 10 7 12 31 5 26 -8 36 -5 65 18 19 15 36 40 40 57 3 16 15 40 26 52 17
18 19 30 14 62 -5 36 -3 42 19 57 30 20 32 52 5 87 -21 26 -27 77 -10 77 6 0
10 16 8 35 -3 49 14 63 40 31 23 -31 68 -35 76 -8 3 9 1 33 -4 52 -8 28 -7 37
9 54 10 12 26 37 36 56 10 19 28 44 40 55 13 11 32 52 45 93 12 40 27 75 31
78 36 22 63 146 38 171 -13 13 -8 63 6 66 6 1 11 -13 13 -31 3 -33 4 -33 23
-16 10 9 19 27 19 40 0 13 5 26 10 29 15 10 12 42 -5 49 -17 6 -31 -16 -21
-33 12 -19 -17 -24 -31 -6 -16 24 -17 35 0 35 7 0 19 16 26 35 7 19 19 35 27
35 16 0 19 16 4 25 -6 3 -13 -1 -16 -9 -3 -8 -27 -23 -52 -33 -58 -22 -85 -48
-77 -74 4 -13 2 -19 -8 -19 -21 0 -16 62 6 78 9 7 17 19 17 26 0 8 7 16 15 20
21 8 19 33 -4 46 -29 15 -45 12 -59 -10z m23 -311 c-8 -12 -35 -12 -35 0 0 11
22 20 33 14 4 -2 5 -9 2 -14z m-293 -631 c-6 -6 -18 -8 -28 -4 -16 6 -15 8 2
27 16 18 19 18 27 3 6 -10 5 -20 -1 -26z m-14 -151 c2 -10 -3 -17 -12 -17 -18
0 -29 16 -21 31 9 14 29 6 33 -14z"/>
<path d="M1975 4189 c-4 -6 -5 -13 -2 -16 7 -7 27 6 27 18 0 12 -17 12 -25 -2z"/>
<path d="M2280 4177 c0 -8 7 -18 16 -21 11 -4 14 -1 12 11 -4 21 -28 30 -28
10z"/>
<path d="M1726 4154 c-11 -29 -6 -34 29 -34 28 0 35 4 35 19 0 31 -53 43 -64
15z"/>
<path d="M2696 4151 c-3 -5 1 -12 10 -15 20 -8 29 -1 19 13 -8 13 -22 14 -29
2z"/>
<path d="M8816 4050 c-10 -10 -16 -24 -15 -29 5 -15 49 16 49 35 0 19 -11 17
-34 -6z"/>
<path d="M1978 4017 c-23 -19 -25 -24 -14 -39 7 -10 19 -18 26 -18 18 0 39 31
40 58 0 28 -17 28 -52 -1z"/>
<path d="M2100 4008 c0 -18 18 -34 28 -24 3 4 -2 14 -11 23 -16 16 -17 16 -17
1z"/>
<path d="M8759 3953 c-9 -77 -7 -113 5 -113 19 0 46 33 46 56 0 33 -47 86 -51
57z"/>
<path d="M1826 3882 c-4 -10 -20 -28 -36 -40 -41 -31 -41 -68 0 -77 31 -7 58
-39 41 -49 -5 -4 -33 -5 -62 -4 -44 2 -54 -1 -67 -20 -8 -12 -23 -22 -34 -22
-14 0 -19 -6 -16 -22 2 -17 11 -24 32 -26 16 -2 33 1 39 7 15 15 37 14 37 -3
0 -7 -7 -19 -15 -26 -21 -18 -19 -40 5 -40 10 0 24 -8 29 -19 14 -26 42 -34
59 -18 10 11 11 23 4 50 -7 23 -6 39 0 45 14 14 1 32 -23 32 -10 0 -19 7 -19
15 0 14 31 37 47 34 35 -6 47 37 18 61 -10 9 -15 32 -15 76 0 61 -12 84 -24
46z"/>
<path d="M8716 3798 c-22 -31 -20 -58 4 -58 24 0 41 29 33 58 -7 28 -18 28
-37 0z"/>
<path d="M1594 3736 c-8 -21 3 -36 27 -36 15 0 20 6 17 22 -4 27 -35 37 -44
14z"/>
<path d="M11300 3684 c-14 -36 -13 -36 15 -18 28 18 33 44 10 44 -9 0 -20 -12
-25 -26z"/>
<path d="M1982 3668 c6 -18 28 -21 28 -4 0 9 -7 16 -16 16 -9 0 -14 -5 -12
-12z"/>
<path d="M8704 3649 c-18 -23 -23 -45 -14 -60 7 -10 12 -6 20 16 14 37 10 65
-6 44z"/>
<path d="M1400 3630 c0 -5 7 -10 15 -10 8 0 15 5 15 10 0 6 -7 10 -15 10 -8 0
-15 -4 -15 -10z"/>
<path d="M11057 3585 c-4 -8 -2 -17 3 -20 6 -4 10 -4 10 -1 0 2 3 11 6 20 3 9
2 16 -4 16 -5 0 -12 -7 -15 -15z"/>
<path d="M11237 3583 c-12 -11 -8 -23 8 -23 8 0 15 7 15 15 0 16 -12 20 -23 8z"/>
<path d="M1100 3570 c0 -5 -7 -10 -15 -10 -8 0 -15 -7 -15 -15 0 -18 26 -20
36 -4 5 8 10 6 16 -5 5 -9 13 -16 18 -16 17 0 11 32 -7 46 -22 16 -33 17 -33
4z"/>
<path d="M11070 3544 c-14 -8 -29 -15 -35 -17 -17 -7 28 -48 49 -46 34 2 37 0
25 -22 -9 -17 -17 -20 -44 -15 -26 5 -38 1 -64 -21 -37 -32 -37 -37 -11 -63
22 -22 27 -59 8 -61 -7 -1 -20 -3 -28 -4 -8 -1 -21 -3 -27 -4 -7 0 -13 -13
-13 -28 -1 -26 -2 -27 -15 -9 -19 24 -32 14 -38 -31 -3 -21 -9 -51 -12 -66 -6
-20 -2 -33 11 -49 l19 -21 -42 7 -42 6 6 -34 c5 -32 3 -35 -23 -38 -26 -3 -29
-7 -30 -43 0 -22 -8 -57 -17 -77 -9 -21 -17 -51 -17 -67 0 -24 -14 -44 -65
-95 -36 -36 -72 -81 -80 -100 -8 -20 -24 -40 -34 -46 -25 -13 -36 -47 -22 -64
9 -11 6 -15 -14 -20 -30 -8 -33 -32 -5 -39 23 -6 27 -27 5 -27 -26 0 -55 -60
-55 -115 0 -27 -1 -61 -2 -75 -1 -14 1 -35 5 -47 7 -18 3 -22 -23 -28 -23 -5
-30 -12 -30 -30 0 -14 9 -29 20 -35 26 -14 26 -57 0 -85 -18 -19 -19 -26 -10
-51 8 -20 8 -30 0 -32 -18 -6 -40 -33 -35 -43 4 -5 15 -9 26 -9 18 0 21 -6 23
-57 1 -9 -12 -24 -29 -33 -27 -15 -31 -23 -37 -84 -3 -37 -11 -72 -16 -79 -20
-27 -31 -77 -22 -108 8 -25 6 -37 -10 -57 -11 -13 -20 -33 -20 -43 0 -10 -13
-25 -31 -34 -23 -13 -29 -21 -24 -36 5 -15 1 -25 -14 -35 -21 -15 -29 -44 -12
-44 5 0 16 -11 25 -25 13 -20 14 -29 5 -44 -16 -24 -6 -49 23 -60 20 -8 21
-10 6 -16 -9 -3 -26 -1 -38 5 -33 18 -50 5 -50 -35 0 -28 -5 -38 -25 -47 -30
-14 -32 -24 -5 -33 14 -4 20 -15 19 -33 -2 -50 -14 -72 -49 -90 -30 -15 -35
-21 -32 -50 1 -17 -2 -32 -7 -32 -6 0 -17 -15 -26 -34 -15 -32 -15 -36 0 -60
24 -37 3 -80 -43 -84 -17 -2 -32 -7 -32 -12 0 -5 -3 -15 -6 -24 -4 -11 3 -19
22 -27 28 -10 28 -11 9 -25 -11 -8 -38 -20 -60 -27 -46 -13 -75 -39 -75 -66 0
-10 -7 -24 -15 -31 -8 -7 -15 -19 -15 -27 0 -27 -32 -64 -51 -58 -21 7 -54
-25 -68 -67 -9 -26 -8 -31 9 -35 11 -3 20 -10 20 -15 0 -6 -7 -7 -15 -4 -8 3
-21 9 -29 12 -9 3 -24 -5 -37 -20 -13 -14 -27 -26 -33 -26 -5 0 -17 -7 -27
-16 -16 -14 -18 -14 -29 5 -6 12 -18 21 -26 21 -8 0 -26 12 -39 28 -33 38 -39
27 -52 -93 -7 -66 -34 -100 -76 -97 -22 1 -42 -6 -62 -23 l-30 -25 62 0 c34 0
65 5 68 11 4 5 19 9 33 7 26 -3 27 0 32 47 5 47 8 51 40 46 5 0 14 -10 19 -20
8 -14 6 -25 -9 -44 -11 -14 -20 -30 -20 -36 0 -8 322 -11 1140 -11 753 0 1140
3 1140 10 0 6 -4 10 -9 10 -14 0 -23 32 -11 44 7 7 16 3 31 -12 11 -12 24 -20
28 -17 13 8 31 89 25 113 -7 25 49 92 78 92 10 0 25 11 34 25 20 31 30 32 37
3 4 -14 0 -26 -12 -35 -24 -16 -34 -53 -15 -53 32 0 75 31 80 58 9 42 58 95
91 96 23 1 29 7 38 40 13 45 41 63 121 76 30 5 66 18 80 29 28 22 50 19 59
-10 4 -10 13 -19 21 -19 16 0 54 35 54 50 0 6 19 10 42 10 29 0 54 8 82 27 23
15 42 28 44 29 10 6 -50 55 -61 51 -8 -3 -27 5 -43 19 -16 13 -32 23 -36 24
-4 0 -19 -20 -34 -45 -17 -29 -33 -45 -46 -45 -17 0 -19 6 -16 58 l3 57 -43 3
c-26 2 -45 9 -49 18 -13 35 -41 2 -57 -70 -6 -25 -10 -28 -36 -23 -19 4 -36 0
-53 -13 -24 -19 -24 -19 -57 5 -42 31 -64 23 -55 -21 7 -42 -12 -46 -49 -9
-14 14 -37 25 -51 25 -23 0 -25 -3 -19 -27 4 -16 12 -31 17 -34 16 -11 -1 -39
-23 -39 -11 0 -30 10 -42 22 -12 12 -29 23 -38 24 -8 1 -19 2 -25 4 -25 6 -36
-1 -33 -22 2 -18 -4 -23 -37 -30 -25 -6 -49 -5 -63 2 -41 18 -75 11 -121 -25
-24 -19 -46 -35 -48 -35 -2 0 -15 7 -29 16 -20 14 -24 22 -19 44 7 33 -11 43
-61 34 -19 -3 -45 -3 -60 0 -39 10 -30 56 15 77 32 15 64 56 55 71 -7 11 29
78 42 78 7 0 22 12 33 26 25 32 28 74 5 74 -9 0 -14 6 -11 13 2 6 16 11 30 9
21 -2 28 3 38 31 8 22 22 37 40 45 21 7 31 19 35 40 4 21 24 45 64 77 44 35
60 55 64 81 4 20 16 38 29 45 11 7 28 21 37 31 14 18 17 19 29 4 32 -39 66 -1
53 60 -9 45 -37 67 -55 43 -8 -11 -18 -14 -32 -8 -34 13 -52 10 -58 -11 -4
-15 -14 -20 -40 -20 -19 0 -40 -7 -47 -15 -9 -11 -16 -13 -24 -5 -7 7 8 27 52
68 56 52 62 60 59 94 -3 44 -14 58 -30 38 -7 -8 -25 -21 -41 -28 -24 -11 -27
-17 -23 -40 4 -20 0 -33 -18 -50 -28 -27 -32 -27 -45 -2 -8 14 -7 25 2 39 9
15 8 24 -5 45 -10 14 -24 26 -32 26 -8 0 -15 8 -15 18 0 9 -9 23 -20 30 -34
21 -21 80 21 94 19 6 0 48 -22 48 -10 0 -19 3 -20 8 0 4 -2 17 -3 30 -2 12
-11 29 -21 36 -17 12 -17 16 -6 30 9 11 11 20 4 27 -16 16 -3 65 28 98 47 52
36 81 -14 41 l-26 -21 -23 31 c-23 31 -37 34 -79 16 -13 -6 -18 1 -23 29 -4
22 -3 42 4 50 16 20 -5 29 -32 13 -13 -6 -31 -11 -41 -9 -10 1 -25 -3 -33 -9
-14 -13 -14 -13 -18 33 -1 6 7 11 17 9 20 -3 43 38 34 62 -4 9 -18 16 -32 16
-20 0 -27 -6 -32 -30 -7 -35 -52 -65 -84 -55 -14 5 -26 -1 -40 -19 -11 -14
-29 -26 -40 -26 -10 0 -19 -4 -19 -9 0 -5 6 -9 13 -8 57 2 62 -16 13 -55 -39
-31 -96 -38 -116 -13 -16 19 -4 35 26 35 27 0 32 15 9 24 -9 3 -15 19 -15 41
0 46 -15 73 -45 85 -21 8 -23 13 -16 38 5 16 5 35 0 43 -14 22 -11 84 6 116
24 47 65 160 65 181 0 10 -5 33 -11 51 -10 28 -8 37 13 69 38 59 48 80 48 101
0 10 10 25 21 33 19 12 20 17 10 37 -11 19 -18 22 -47 17 -49 -10 -113 12
-120 40 -3 12 -1 31 5 42 6 12 11 36 11 55 0 21 7 41 20 52 10 9 24 42 31 74
6 31 19 72 29 91 10 19 21 53 25 75 11 64 27 108 51 135 12 14 32 47 45 74 13
27 32 54 42 60 29 18 19 26 -33 26 -28 0 -61 6 -73 14 -18 11 -26 11 -47 0z
m-40 -777 c0 -21 -37 -50 -55 -44 -15 6 -21 38 -8 50 12 13 63 7 63 -6z m570
-1412 c0 -15 -46 -32 -57 -22 -3 4 -3 13 0 22 8 20 57 20 57 0z m110 -170 c0
-8 -4 -15 -10 -15 -5 0 -10 7 -10 15 0 8 5 15 10 15 6 0 10 -7 10 -15z m-210
-758 c0 -15 -30 -19 -45 -7 -23 19 0 43 26 27 10 -6 19 -15 19 -20z m-1642
-179 c-3 -7 -13 -13 -23 -13 -10 0 -20 6 -22 13 -3 7 5 12 22 12 17 0 25 -5
23 -12z m-141 -79 c4 -20 -23 -52 -36 -44 -15 8 -14 38 1 53 15 15 32 10 35
-9z"/>
<path d="M8667 3523 c-13 -12 -7 -23 13 -23 11 0 20 7 20 15 0 15 -21 21 -33
8z"/>
<path d="M10980 3479 c0 -24 23 -21 28 4 2 10 -3 17 -12 17 -10 0 -16 -9 -16
-21z"/>
<path d="M1180 3480 c0 -19 23 -59 31 -54 5 3 9 18 9 35 0 22 -5 29 -20 29
-11 0 -20 -4 -20 -10z"/>
<path d="M1887 3483 c-11 -10 -8 -62 3 -84 15 -27 40 -24 40 4 0 20 -26 87
-34 87 -1 0 -6 -3 -9 -7z"/>
<path d="M2055 3441 c-9 -16 3 -31 26 -31 14 0 19 6 17 17 -4 20 -33 29 -43
14z"/>
<path d="M1735 3430 c-8 -13 4 -32 16 -25 12 8 12 35 0 35 -6 0 -13 -4 -16
-10z"/>
<path d="M1790 3419 c0 -7 -7 -20 -16 -30 -20 -22 -12 -64 13 -73 26 -10 54
31 51 74 -2 28 -8 36 -25 38 -13 2 -23 -2 -23 -9z"/>
<path d="M2072 3289 c2 -7 10 -15 17 -17 8 -3 12 1 9 9 -2 7 -10 15 -17 17 -8
3 -12 -1 -9 -9z"/>
<path d="M584 2995 c-7 -30 -1 -40 21 -32 20 8 20 57 0 57 -8 0 -17 -11 -21
-25z"/>
<path d="M11217 2938 c-4 -12 -4 -24 -1 -27 6 -7 24 20 24 37 0 21 -17 13 -23
-10z"/>
<path d="M2390 2914 c0 -9 5 -14 12 -12 18 6 21 28 4 28 -9 0 -16 -7 -16 -16z"/>
<path d="M2120 2892 c0 -50 19 -64 47 -36 20 20 7 47 -26 52 -15 3 -21 -2 -21
-16z"/>
<path d="M2210 2886 c0 -9 7 -16 16 -16 9 0 14 5 12 12 -6 18 -28 21 -28 4z"/>
<path d="M2245 2840 c-4 -7 -3 -16 2 -21 12 -12 45 0 40 15 -5 15 -34 19 -42
6z"/>
<path d="M1884 2777 c-8 -21 2 -35 16 -21 5 5 6 15 0 24 -8 12 -10 12 -16 -3z"/>
<path d="M834 2767 c-3 -9 -12 -17 -19 -17 -20 0 -29 -20 -16 -33 8 -8 18 -4
38 16 21 20 25 29 15 39 -9 9 -13 7 -18 -5z"/>
<path d="M950 2736 c0 -10 9 -16 21 -16 24 0 21 23 -4 28 -10 2 -17 -3 -17
-12z"/>
<path d="M1970 2734 c0 -12 6 -15 23 -10 12 3 25 6 30 6 4 0 7 5 7 10 0 6 -13
10 -30 10 -21 0 -30 -5 -30 -16z"/>
<path d="M1377 2653 c-5 -41 6 -64 23 -47 5 5 11 25 12 44 2 25 -1 35 -13 38
-13 2 -18 -6 -22 -35z"/>
<path d="M1437 2534 c-11 -11 3 -24 24 -24 12 0 19 5 17 13 -5 14 -31 21 -41
11z"/>
<path d="M260 2466 c0 -29 17 -43 33 -27 8 8 9 16 1 28 -17 27 -34 27 -34 -1z"/>
<path d="M1572 2408 c6 -18 28 -21 28 -4 0 9 -7 16 -16 16 -9 0 -14 -5 -12
-12z"/>
<path d="M270 2370 c0 -11 4 -20 9 -20 11 0 22 26 14 34 -12 12 -23 5 -23 -14z"/>
<path d="M346 2338 c-7 -38 -4 -43 22 -29 35 19 44 13 40 -26 -4 -47 22 -58
40 -17 12 24 9 29 -28 65 -49 47 -66 49 -74 7z"/>
<path d="M11303 2348 c2 -7 10 -13 17 -13 7 0 15 6 18 13 2 7 -5 12 -18 12
-13 0 -20 -5 -17 -12z"/>
<path d="M11240 2286 c0 -8 4 -18 10 -21 5 -3 7 -19 4 -34 -6 -26 -3 -29 31
-35 21 -4 42 -3 47 2 16 16 -1 51 -33 67 -16 9 -29 20 -29 25 0 6 -7 10 -15
10 -8 0 -15 -6 -15 -14z"/>
<path d="M450 2226 c0 -13 20 -26 40 -26 5 0 14 9 20 20 10 18 8 20 -25 20
-23 0 -35 -5 -35 -14z"/>
<path d="M567 2153 c-14 -13 -7 -34 19 -58 14 -13 29 -36 33 -52 5 -18 15 -29
30 -31 64 -10 59 62 -7 93 -26 12 -42 26 -42 37 0 18 -20 24 -33 11z"/>
<path d="M0 1920 c0 -28 2 -29 20 -18 11 7 20 21 20 30 0 11 -8 18 -20 18 -16
0 -20 -7 -20 -30z"/>
<path d="M1396 1901 c-3 -5 0 -11 8 -14 15 -6 26 1 26 15 0 11 -27 10 -34 -1z"/>
<path d="M1246 1811 c-8 -12 11 -61 23 -61 13 0 20 25 14 49 -5 21 -27 28 -37
12z"/>
<path d="M1150 1785 c0 -8 7 -15 15 -15 8 0 15 4 15 9 0 5 -7 11 -15 15 -9 3
-15 0 -15 -9z"/>
<path d="M1344 1779 c-10 -17 13 -36 27 -22 12 12 4 33 -11 33 -5 0 -12 -5
-16 -11z"/>
<path d="M11741 1656 c-8 -10 -6 -17 9 -31 20 -18 20 -17 20 8 0 31 -13 42
-29 23z"/>
<path d="M40 1625 c0 -8 5 -15 10 -15 6 0 10 7 10 15 0 8 -4 15 -10 15 -5 0
-10 -7 -10 -15z"/>
<path d="M11693 1498 c2 -7 10 -13 17 -13 7 0 15 6 18 13 2 7 -5 12 -18 12
-13 0 -20 -5 -17 -12z"/>
<path d="M9562 1428 c-7 -7 -12 -18 -12 -25 0 -18 29 -16 37 3 8 21 -10 37
-25 22z"/>
<path d="M12085 1407 c-4 -10 -5 -21 -1 -24 10 -10 18 4 13 24 -4 17 -4 17
-12 0z"/>
<path d="M11992 1389 c2 -6 8 -10 13 -10 5 0 11 4 13 10 2 6 -4 11 -13 11 -9
0 -15 -5 -13 -11z"/>
<path d="M12930 675 c-14 -7 -45 -11 -70 -9 -50 4 -84 6 -102 3 -7 0 -28 2
-45 6 -27 6 -33 4 -33 -9 0 -10 13 -21 30 -27 16 -6 32 -19 35 -30 12 -36 65
-49 65 -16 0 7 12 13 28 14 15 1 49 5 75 9 37 5 52 2 66 -10 10 -9 21 -13 24
-9 15 14 4 49 -21 69 -24 19 -31 20 -52 9z"/>
<path d="M13047 673 c-12 -11 -8 -23 8 -23 8 0 15 7 15 15 0 16 -12 20 -23 8z"/>
<path d="M13130 640 c-6 -21 -15 -42 -20 -45 -13 -8 -13 -65 0 -65 5 0 13 6
17 14 13 21 49 36 87 36 25 0 36 4 36 15 0 8 7 15 16 15 12 0 15 -6 11 -21 -4
-16 -2 -19 11 -13 9 4 29 9 45 12 15 2 30 9 34 15 4 6 -4 8 -20 5 -27 -5 -48
10 -61 46 -5 16 -13 17 -60 12 -34 -5 -56 -3 -61 3 -12 21 -24 11 -35 -29z"/>
<path d="M13415 660 c-3 -6 1 -13 10 -16 19 -8 30 0 20 15 -8 14 -22 14 -30 1z"/>
<path d="M9890 605 c-13 -15 -7 -45 9 -45 12 0 41 46 34 54 -11 10 -30 7 -43
-9z"/>
<path d="M9837 524 c-13 -13 -7 -24 14 -24 11 0 19 5 17 12 -5 14 -22 21 -31
12z"/>
<path d="M11570 512 c0 -14 11 -21 26 -15 21 8 17 23 -6 23 -11 0 -20 -4 -20
-8z"/>
<path d="M9802 429 c2 -7 10 -15 17 -17 8 -3 12 1 9 9 -2 7 -10 15 -17 17 -8
3 -12 -1 -9 -9z"/>
<path d="M7885 410 c-10 -17 12 -37 25 -24 8 8 6 15 -4 23 -10 9 -16 9 -21 1z"/>
<path d="M7856 284 c-7 -18 0 -34 15 -34 5 0 9 11 9 25 0 28 -15 34 -24 9z"/>
<path d="M9309 231 c-37 -37 -45 -67 -20 -80 15 -9 23 -8 33 3 11 12 17 11 41
-12 27 -25 29 -26 55 -10 37 23 34 40 -11 61 -30 14 -37 22 -32 37 4 11 2 20
-4 20 -5 0 -15 2 -23 4 -7 2 -25 -8 -39 -23z"/>
<path d="M12116 252 c-3 -6 -1 -14 5 -17 15 -10 25 3 12 16 -7 7 -13 7 -17 1z"/>
<path d="M13256 252 c-13 -22 36 -45 61 -29 20 13 3 37 -27 37 -16 0 -31 -4
-34 -8z"/>
<path d="M13418 211 l-28 -29 24 -6 c48 -12 70 12 44 47 -12 16 -15 15 -40
-12z"/>
<path d="M7815 220 c-4 -6 -1 -18 6 -26 11 -14 13 -14 21 0 15 26 -12 51 -27
26z"/>
<path d="M12855 220 c-4 -7 -3 -16 3 -22 14 -14 45 -2 40 15 -6 16 -34 21 -43
7z"/>
<path d="M12990 211 c0 -21 23 -45 33 -34 13 12 7 41 -9 47 -23 9 -24 8 -24
-13z"/>
<path d="M12739 146 c-1 -3 -2 -37 -3 -76 -1 -70 -1 -70 27 -70 32 0 31 -2 12
44 -8 19 -14 50 -13 67 2 19 -2 34 -9 36 -7 3 -14 2 -14 -1z"/>
<path d="M13173 132 c-18 -11 -11 -111 8 -123 8 -5 36 -9 63 -9 l50 0 -31 33
c-17 17 -36 49 -43 70 -11 37 -23 44 -47 29z"/>
<path d="M13290 105 c-13 -16 -8 -20 35 -27 24 -4 32 -42 15 -64 -11 -12 -6
-14 29 -14 45 0 47 3 27 39 -10 19 -11 29 -3 42 14 23 11 25 -44 33 -35 5 -49
3 -59 -9z"/>
<path d="M12992 101 c4 -13 18 -16 19 -4 0 4 -5 9 -11 12 -7 2 -11 -2 -8 -8z"/>
<path d="M12870 52 c0 -5 7 -15 15 -22 8 -7 15 -8 15 -2 0 5 -7 15 -15 22 -8
7 -15 8 -15 2z"/>
</g>
</svg>
